<svg width="4314" height="2094" viewBox="0 0 4314 2094" fill="none" xmlns="http://www.w3.org/2000/svg">
<path fill-rule="evenodd" clip-rule="evenodd" d="M3709.55 24.9443C3700.69 38.6493 3693.83 61.3842 3694.35 75.4414C3694.89 89.4987 3704.14 111.113 3714.97 123.473C3725.75 135.801 3739.2 145.919 3744.87 145.919C3750.5 145.919 3765.97 133.271 3779.22 117.837C3792.51 102.403 3803.33 79.7001 3803.33 67.34C3803.33 54.9799 3798.91 34.7746 3793.53 22.4465C3787.03 7.58881 3773.88 0 3754.73 0C3736.16 0 3719.93 8.96581 3709.55 24.9443ZM1086.65 69.9337C1075.19 76.6902 1062.6 92.7648 1058.63 105.637C1054.66 118.542 1056.3 140.444 1062.25 154.341C1068.21 168.238 1081.91 182.103 1092.7 185.209C1103.49 188.283 1123.4 183.224 1136.88 173.97C1154.36 161.994 1161.44 147.425 1161.44 123.473C1161.44 101.016 1154.08 84.1405 1139.35 72.8477C1127.21 63.5617 1115.05 56.3249 1112.36 56.7732C1109.64 57.2535 1098.08 63.1453 1086.65 69.9337ZM896.276 80.8209C888.72 88.2178 883.278 107.174 884.174 122.896C885.071 138.651 893.683 160.233 903.32 170.896C912.957 181.527 930.79 190.365 942.925 190.525C955.123 190.685 971.676 179.477 979.84 165.548C987.972 151.651 994.76 132.727 994.888 123.473C995.016 114.187 987.236 97.9202 977.631 87.2572C967.994 76.6262 948.848 67.7884 935.081 67.6283C921.282 67.4682 903.832 73.3921 896.276 80.8209ZM243.167 172.881C221.556 180.694 186.209 197.377 164.598 209.93C142.987 222.482 104.087 259.946 78.185 293.184C49.3059 330.168 25.0052 375.35 15.5282 409.708C6.97976 440.577 0 493.603 0 527.578C0 561.52 8.16438 617.108 18.1216 651.051C29.6156 690.212 52.8598 733.312 81.6108 768.92C107.961 801.517 149.294 836.804 180.158 853.103C228.375 878.56 245.312 881.154 361.021 880.929C464.339 880.705 502.759 875.87 562.342 855.505C602.875 841.672 640.431 824.989 645.842 818.456C652.533 810.323 646.802 798.732 627.88 782.113C601.979 759.346 600.474 753.742 605.789 698.762C610.751 647.208 614.529 639.139 636.012 634.208C652.384 630.472 660.569 621.122 660.569 606.157C660.569 584.767 654.038 583.711 523.057 583.711C392.109 583.711 385.578 584.767 385.578 606.157C385.578 625.05 392.173 628.636 427.327 628.764C450.283 628.828 479.002 631.358 491.169 634.368C511.499 639.395 513.26 646.023 513.26 718.391C513.26 793.64 512.108 797.515 486.238 809.394C471.382 816.215 432.706 824.444 400.305 827.678C361.373 831.585 323.049 827.486 287.35 815.671C257.671 805.808 216.145 781.152 195.11 760.883C174.075 740.613 145.484 701.292 131.557 673.497C111.418 633.279 105.367 603.531 101.845 527.578C98.0034 443.619 100.405 424.566 122.016 369.074C139.209 324.885 158.099 297.091 185.057 276.437C206.22 260.17 241.214 239.549 262.825 230.583C284.405 221.585 329.708 214.028 363.486 213.772C401.298 213.452 445.609 221.873 478.874 235.706C510.891 249.027 541.051 270.737 552.865 289.021C563.879 306.024 572.715 331.257 572.523 345.154C572.267 364.719 577.71 370.419 596.728 370.419C620.452 370.419 621.285 367.857 621.733 294.657C621.989 246.433 617.539 214.028 609.439 205.543C602.459 198.21 568.009 184.377 532.886 174.835C497.316 165.164 427.776 157.735 375.748 158.056C324.426 158.376 264.778 165.036 243.167 172.881ZM1718.34 209.737C1705.66 213.388 1698.74 230.423 1693.78 270.321C1687.12 323.924 1685.78 325.877 1654.98 325.685C1627.63 325.557 1623.41 329.176 1625.49 350.79C1627.31 369.33 1635.13 376.791 1654.98 378.84C1675.66 380.986 1682 387.55 1682.03 406.891C1682.06 420.788 1677.07 518.036 1670.95 623C1662.63 764.885 1662.63 821.755 1670.89 844.682C1681.52 874.333 1684.82 875.582 1753.17 875.774C1820.6 875.966 1826.11 874.013 1856.52 839.27C1878.1 814.678 1891.04 786.82 1895.81 754.702C1901.06 719.511 1899.68 706.895 1890.68 707.023C1883.93 707.119 1869.55 729.918 1858.76 757.681C1846.21 789.958 1831.13 810.579 1817.01 814.774C1804.85 818.36 1786.41 819.641 1775.97 817.56C1764.76 815.35 1753.62 800.076 1748.66 780.159C1743.82 760.626 1745.01 670.904 1751.48 566.867C1757.62 468.083 1764.38 383.483 1766.49 378.84C1768.64 374.197 1792.46 370.419 1819.48 370.419C1862.03 370.419 1868.56 367.441 1868.56 347.972C1868.56 328.503 1862.03 325.525 1819.48 325.525H1770.37C1775.9 207.656 1774.34 202.149 1756.09 203.333C1745.04 204.07 1728.04 206.92 1718.34 209.737ZM3107.54 312.557C3093.23 330.104 3062.82 394.499 3040.02 455.659C2999.74 563.601 2998.53 565.458 2998.27 519.156C2998.14 492.931 3003.52 433.788 3010.28 387.742C3017.03 341.728 3020.36 301.029 3017.64 297.315C3014.95 293.632 2977.4 300.421 2934.17 312.429C2890.95 324.469 2854.48 339.903 2853.14 346.755C2851.67 354.248 2866.27 359.211 2889.99 359.211H2929.27C2928.95 450.535 2922.42 545.253 2914.51 628.604C2906.64 711.955 2900.11 794.024 2899.98 811.027C2899.82 838.373 2903.44 841.896 2931.71 842.056L2963.63 842.248C2991.58 698.41 3018.09 606.926 3040.56 546.15C3063.07 485.342 3089.23 426.007 3098.68 414.256C3108.12 402.504 3122.5 395.395 3130.6 398.469C3138.7 401.575 3150.86 406.794 3157.59 410.125C3165.33 413.935 3172.63 402.536 3177.37 379.256C3181.47 358.955 3184.8 328.471 3184.74 311.5C3184.64 285.787 3180.35 280.632 3159.12 280.632C3143.75 280.632 3123.26 293.312 3107.54 312.557ZM3356.03 301.317C3339.57 313.421 3315.49 340.223 3302.53 360.876C3289.53 381.562 3270.22 426.263 3259.59 460.238C3245.86 504.074 3240.03 552.874 3239.45 628.604C3238.78 715.701 3242.33 743.463 3258.95 780.159C3270.96 806.705 3293.02 833.058 3312.96 844.682C3331.5 855.473 3364.35 864.214 3385.93 864.118C3408.34 864.054 3442.09 853.071 3464.5 838.598C3490.14 822.043 3513.16 793.832 3530.77 757.392C3545.63 726.684 3556.67 691.877 3555.33 679.998C3553.99 668.118 3547.39 656.782 3540.63 654.733C3533.37 652.556 3524.34 669.367 3518.54 695.944C3512.68 722.746 3496.84 752.173 3479.26 768.92C3462.23 785.122 3437.35 796.97 3420.32 796.97C3404.11 796.97 3382.02 791.943 3371.2 785.763C3360.41 779.583 3345.3 760.627 3337.65 743.655C3330 726.684 3321 687.522 3317.64 656.654C3314.28 625.786 3315.01 594.95 3319.27 588.129C3323.53 581.277 3368.99 567.636 3420.32 557.773C3486.14 545.093 3517.29 533.886 3526.07 519.669C3533.17 508.141 3538.42 467.122 3538.33 423.734C3538.2 361.549 3534.23 342.689 3516.08 318.545C3498.47 295.105 3483.04 288.125 3439.97 284.25C3397.94 280.44 3379.3 284.25 3356.03 301.317ZM3381.86 342.368C3398.51 326.934 3417.31 314.222 3423.58 314.094C3429.89 313.998 3443.01 320.306 3452.72 328.151C3462.77 336.22 3472.47 361.741 3475.22 387.262C3477.98 413.071 3474.62 443.619 3467.35 459.149C3460.4 473.975 3443.66 495.076 3430.14 505.996C3416.63 516.947 3386.79 528.795 3363.84 532.349C3325.45 538.273 3322.09 536.768 3322.02 513.552C3321.96 499.655 3328.59 461.775 3336.75 429.369C3346.68 389.823 3361.53 361.165 3381.86 342.368ZM2595.92 313.165C2577.31 324.917 2551.67 351.462 2538.93 372.148C2526.18 392.801 2507.07 442.53 2496.41 482.684C2483.83 530.171 2477.23 587.009 2477.49 645.447C2477.81 710.546 2483.25 748.362 2497.34 782.945C2508.03 809.202 2526.73 838.309 2538.86 847.66C2551.03 857.042 2578.66 867.769 2600.24 871.547C2629.05 876.543 2652.01 871.996 2686.17 854.512C2715.72 839.398 2741.85 815.222 2757.38 788.581C2770.89 765.398 2785.26 727.421 2789.3 704.173C2795.57 668.118 2794.13 661.906 2779.5 662.066C2768.45 662.194 2760.64 673.337 2757.7 693.158C2755.2 710.129 2740.82 739.877 2725.78 759.282C2710.76 778.686 2687.42 797.931 2673.91 802.03C2660.4 806.128 2637.22 804.143 2622.36 797.643C2607.51 791.11 2587.85 771.866 2578.69 754.895C2569.53 737.924 2559.61 693.062 2556.6 655.245L2551.16 586.496C2596.81 576.762 2632.16 570.806 2659.18 566.995C2686.17 563.153 2721.55 555.404 2737.75 549.768C2759.94 542.019 2769.06 530.396 2774.7 502.665C2778.83 482.396 2782.13 449.414 2782.06 429.369C2782 409.292 2775.31 375.19 2767.21 353.576C2759.11 331.962 2743.64 309.259 2732.85 303.079C2722.03 296.898 2694.4 291.839 2671.44 291.807C2648.49 291.775 2614.49 301.382 2595.92 313.165ZM2627.26 342.272C2639.43 332.954 2657.1 325.397 2666.55 325.429C2675.99 325.493 2690.37 333.082 2698.47 342.368C2706.63 351.718 2713.19 379.16 2713.19 404.105C2713.19 428.793 2706.57 464.144 2698.47 482.684C2689.28 503.658 2671.7 520.661 2651.82 527.77C2634.24 534.046 2606.64 539.009 2590.44 538.817C2561.02 538.465 2560.99 538.401 2567.1 485.31C2570.5 456.075 2580.42 415.728 2589.19 395.683C2598 375.606 2615.09 351.59 2627.26 342.272ZM3728.7 306.153C3707.63 311.788 3673.76 321.17 3653.43 326.998C3633.07 332.826 3616.51 343.745 3616.64 351.206C3616.77 359.756 3629.58 363.758 3651.16 361.997L3685.48 359.211C3685.16 476.632 3678.69 571.35 3670.85 645.447C3663.03 719.543 3656.5 794.024 3656.34 811.027C3656.05 838.886 3659.38 841.896 3690.41 841.896C3709.3 841.896 3726.81 835.556 3729.28 827.839C3731.77 820.121 3743.94 698.442 3756.3 557.453C3768.66 416.433 3776.15 299.908 3772.88 298.468C3769.65 297.059 3749.77 300.517 3728.7 306.153ZM1323.44 330.04C1278.04 343.905 1244.36 360.492 1241.45 370.419C1237.32 384.444 1243.34 385.853 1277.53 378.84L1318.58 370.419C1310.51 470.452 1301.83 580.348 1294.05 679.133C1286.3 777.886 1280.89 860.372 1282.08 862.389C1283.26 864.406 1299.69 863.158 1318.58 859.635C1352.29 853.359 1353.22 851.758 1365.74 777.405C1372.78 735.682 1394.42 656.11 1413.86 600.554C1433.26 544.965 1459.58 480.571 1472.26 457.42C1484.97 434.269 1503.09 415.248 1512.57 415.12C1522.01 415.024 1535.2 421.332 1541.86 429.177C1548.52 436.99 1555.69 440.865 1557.81 437.759C1559.92 434.685 1564.43 403.112 1567.8 367.601L1573.94 303.079C1529.34 303.079 1508.72 311.916 1499.34 322.707C1489.96 333.531 1466.24 380.249 1446.61 426.551C1426.95 472.854 1405.63 528.41 1399.2 550.024C1392.76 571.639 1385.17 586.785 1382.32 583.711C1379.47 580.604 1384.15 518.228 1392.7 445.092C1401.24 371.956 1406.49 310.828 1404.35 309.291C1402.2 307.754 1365.8 317.072 1323.44 330.04ZM2302.93 313.838C2290.67 318.961 2259.74 350.438 2234.19 383.739C2208.64 417.073 2161.26 488.256 2128.82 541.955C2096.42 595.654 2069.4 638.37 2068.76 636.897C2068.12 635.424 2076 563.505 2086.27 477.049C2096.52 390.624 2102.44 317.392 2099.4 314.286C2096.39 311.212 2077.47 314.638 2057.36 321.907C2037.26 329.208 2002.01 340.575 1979.05 347.172C1953.18 354.632 1937.33 365.584 1937.33 376.022C1937.33 389.791 1943.16 390.88 1969.25 381.946C1986.8 375.958 2003.38 373.781 2006.07 377.143C2008.76 380.505 2005.3 457.388 1998.39 548.007C1991.44 638.658 1982.6 743.719 1978.73 781.536L1971.69 850.285L2044.88 858.739C2060.79 771.738 2075.55 721.209 2087.97 690.34C2100.36 659.472 2128.47 603.916 2150.4 566.867C2172.34 529.819 2208.64 476.792 2231.05 448.998L2271.81 398.469C2262.85 555.084 2253.85 661.169 2246.1 735.234C2238.32 809.33 2234.13 872.476 2236.82 875.55C2239.51 878.656 2277.09 866.008 2320.35 847.499C2363.6 828.991 2398.98 810.035 2398.95 805.392C2398.95 800.781 2383.45 796.97 2364.53 796.97H2330.18C2331.04 714.324 2337.13 606.99 2344.23 505.131C2351.37 403.24 2355.53 316.111 2353.52 311.5C2351.47 306.857 2344.3 303.399 2337.54 303.783C2330.79 304.167 2315.23 308.682 2302.93 313.838ZM968.986 350.79C953.33 364.655 930.534 388.671 918.304 404.105C906.105 419.539 875.209 470.036 849.692 516.338C824.175 562.641 793.375 628.316 781.272 662.29C769.17 696.232 759.149 744.232 759.053 768.92C758.925 794.473 767.313 829.536 778.455 850.317C794.559 880.257 804.228 886.789 832.435 886.789C857.248 886.789 876.874 876.639 903 850.317C922.882 830.24 960.822 775.933 987.268 729.63L1035.33 645.447L1023.96 886.789C1065.8 867.128 1097.47 853.231 1121.29 843.241C1145.11 833.25 1167.2 817.816 1170.4 808.978C1174.92 796.394 1168.96 793.928 1143.13 797.739L1110.05 802.606C1119.14 645.991 1123.05 538.657 1124.62 463.023L1127.47 325.525C1010.06 325.525 991.974 330.425 968.986 350.79ZM972.988 401.895C1000.75 372.948 1022.74 358.987 1036.83 361.293C1053.57 364.046 1058.95 373.493 1061.19 404.105C1062.76 425.719 1056.68 468.627 1047.68 499.527C1038.69 530.396 1013.11 595.59 990.822 644.39C968.538 693.222 935.945 747.53 918.368 765.077C900.823 782.625 882.029 796.97 876.65 796.97C871.239 796.97 860.193 789.413 852.093 780.159C843.993 770.873 837.301 749.419 837.269 732.448C837.205 715.445 844.249 673.785 852.926 639.843C861.602 605.869 882.637 548.359 899.67 512.048C916.703 475.736 949.712 426.135 972.988 401.895ZM4005.71 726.812C4002.83 743.815 3991.69 820.826 3980.96 897.996C3970.2 975.199 3958.74 1071.17 3955.51 1111.29C3952.24 1151.41 3943.66 1310.55 3936.42 1464.9C3926.56 1675.11 3926.08 1747.61 3934.5 1753.76C3940.68 1758.3 3955.7 1762.08 3967.83 1762.18C3986.47 1762.34 3990.82 1754.81 3995.53 1714.66C3998.6 1688.4 4008.05 1641.68 4016.53 1610.82C4025.01 1579.95 4042.91 1529.45 4056.33 1498.58C4069.71 1467.71 4100.03 1410.88 4123.69 1372.29C4147.41 1333.64 4176.65 1299.16 4188.81 1295.51C4202.32 1291.44 4213.72 1294.7 4218.14 1303.93C4222.11 1312.19 4225.34 1351.8 4225.31 1391.92C4225.31 1432.04 4218.3 1495.19 4209.75 1532.24C4201.2 1569.28 4183.08 1624.84 4169.47 1655.71C4155.87 1686.58 4125.87 1742.17 4102.78 1779.21C4079.7 1816.23 4049.19 1859.17 4034.94 1874.6C4020.72 1890.04 4009.2 1909 4009.33 1916.71C4009.49 1924.43 4015.12 1930.96 4021.88 1931.25C4028.6 1931.54 4071.7 1886.93 4117.61 1832.11C4168.67 1771.14 4215.26 1702.27 4237.51 1654.78C4257.55 1612.1 4283.01 1536.72 4294.12 1487.34C4305.19 1437.97 4314.16 1367.23 4314 1330.18C4313.87 1293.14 4308.2 1250.2 4301.38 1234.76C4292.39 1214.33 4279.77 1205.78 4254.9 1203.32C4223.81 1200.21 4214.59 1207.29 4151.99 1282.06C4114.18 1327.24 4066.41 1399.48 4045.83 1442.61L4008.4 1521.03C4017.88 1277.41 4027 1144.81 4034.75 1069.21C4042.53 993.579 4056.17 895.051 4065.07 850.317C4076.98 790.566 4088.73 760.723 4109.28 738.052C4124.65 721.081 4137.27 704.654 4137.27 701.58C4137.27 698.474 4108.83 695.944 4074.06 695.944C4012.94 695.944 4010.74 696.969 4005.71 726.812ZM2899.79 912.534C2879.26 924.414 2875.23 934.757 2875.23 975.711C2875.23 1006.77 2880.61 1028.74 2889.99 1035.81C2898.09 1041.96 2915.76 1044.11 2929.27 1040.59C2942.75 1037.1 2959.34 1021.25 2966.09 1005.39C2972.85 989.545 2978.36 969.019 2978.36 959.765C2978.36 950.479 2969.52 932.803 2958.73 920.475C2947.91 908.115 2935.77 898.093 2931.71 898.189C2927.67 898.253 2913.3 904.721 2899.79 912.534ZM1654.98 1055.89C1642.81 1061.66 1634.33 1072.7 1636.09 1080.42C1637.88 1088.2 1657.57 1095.69 1680.27 1097.26C1713.66 1099.54 1723.08 1105.27 1731.08 1128.13C1736.62 1144.01 1740.85 1267.07 1740.75 1411.58C1740.65 1552.03 1737.36 1673.55 1733.39 1681.58C1729.42 1689.62 1705.11 1699.74 1679.37 1704.03C1643.9 1709.95 1632.63 1716.58 1632.73 1731.5C1632.85 1749.34 1646.72 1751.13 1785.09 1751.13C1930.77 1751.13 1937.33 1750.17 1937.33 1728.69C1937.33 1710.69 1928.3 1704.57 1892 1697.82C1867.09 1693.17 1841.67 1682.29 1835.52 1673.61C1828.28 1663.33 1823.13 1575.14 1820.82 1421.03C1818.9 1290.8 1821.37 1166.59 1826.36 1144.97C1832.29 1119.33 1842.05 1104.56 1854.47 1102.45C1864.94 1100.66 1883.42 1096.88 1895.58 1094.03C1909.64 1090.73 1917.67 1080.64 1917.67 1066.39C1917.67 1045.13 1911.33 1043.98 1797.36 1044.65C1731.21 1045.04 1667.11 1050.1 1654.98 1055.89ZM1957.28 1066.04C1957.02 1083.33 1965.57 1090.89 1992.56 1097.26C2012.12 1101.91 2029.83 1109.46 2031.85 1114.11C2033.86 1118.72 2016.48 1151.57 1993.17 1187.05C1969.89 1222.56 1925.52 1284.46 1894.59 1324.58C1863.63 1364.7 1838.53 1400.05 1838.78 1403.16C1839.04 1406.23 1880.09 1461.57 1930.03 1526.12C1979.95 1590.67 2062.77 1685.33 2114.1 1736.47C2165.42 1787.64 2212.93 1829.52 2219.69 1829.58C2226.44 1829.65 2234.16 1822.15 2236.88 1812.87C2239.86 1802.62 2213.92 1761.79 2170.57 1708.42C2131.42 1660.22 2062.74 1565.54 2017.98 1497.94C1973.22 1430.38 1936.85 1370.05 1937.17 1363.87C1937.49 1357.69 1975.21 1300.85 2021.02 1237.58C2066.81 1174.31 2117.55 1114.94 2133.76 1105.68C2149.96 1096.43 2172.05 1088.84 2182.84 1088.84C2195.96 1088.86 2201.66 1082.32 2199.93 1069.21C2197.66 1051.92 2182.87 1049.17 2077.47 1046.41C1962.69 1043.37 1957.57 1044.24 1957.28 1066.04ZM3648.66 1095.98C3630.63 1099.31 3626.57 1107.32 3626.57 1139.37C3626.57 1160.95 3624.36 1186.22 3621.64 1195.47C3618.75 1205.46 3604.73 1212.31 3587.28 1212.31C3564.36 1212.31 3557.83 1217.31 3557.83 1234.76C3557.83 1251.09 3565.19 1257.98 3584.82 1260.03L3611.84 1262.84C3610.94 1428.14 3608.73 1535.89 3606.36 1608.93C3602.33 1731.98 3603.45 1742.93 3621.64 1757.86C3633.42 1767.49 3664.96 1774.06 3700.21 1774.15C3744.29 1774.31 3765.97 1768.62 3786.17 1751.52C3801.03 1738.96 3819.34 1714.79 3826.86 1697.82C3834.42 1680.85 3842.04 1654.33 3843.8 1638.9C3845.56 1623.46 3843.83 1609.57 3839.89 1608.03C3835.99 1606.46 3829.49 1605.08 3825.45 1604.96C3821.39 1604.8 3814.76 1619.97 3810.69 1638.61C3806.66 1657.28 3794.49 1682.67 3783.71 1695C3772.79 1707.49 3750.95 1717.48 3734.59 1717.48C3714.95 1717.48 3701.86 1709.98 3695.31 1695C3689.9 1682.67 3686.05 1618.24 3686.76 1551.9C3687.49 1485.52 3690.79 1393.33 3694.15 1347.03L3700.21 1262.84C3800.9 1268.32 3803.33 1267.1 3803.33 1240.4C3803.33 1214.2 3800.07 1212.31 3754.25 1212.31H3705.14C3711.41 1093.9 3710 1088.97 3691.21 1090.38C3679.97 1091.21 3660.82 1093.74 3648.66 1095.98ZM2342.44 1219.55C2303.28 1234.09 2271.3 1252.31 2271.36 1260.03C2271.43 1268.74 2282.6 1272.99 2300.82 1271.27C2328.93 1268.58 2330.18 1270.37 2330.18 1313.34C2330.18 1338.06 2325.79 1422.66 2320.41 1501.37C2315.03 1580.11 2308.41 1671.02 2305.68 1703.42L2300.69 1762.37C2367.35 1761.44 2380.54 1753.41 2406.73 1719.75C2424.53 1696.89 2464.3 1637.04 2495.13 1586.77C2525.93 1536.49 2560.89 1475.88 2572.8 1452.06L2594.48 1408.76C2594.83 1487.05 2588.78 1562.85 2581.25 1627.66C2573.76 1692.5 2569.5 1748.06 2571.78 1751.13C2574.08 1754.24 2610.13 1745.34 2651.95 1731.34C2693.73 1717.38 2732.12 1700.99 2737.27 1694.87C2743.35 1687.63 2732.24 1683.79 2705.35 1683.79H2664.08C2664.91 1575.05 2668.88 1470.21 2673.46 1380.71C2678.01 1291.18 2681.08 1217.41 2680.28 1216.73C2679.48 1216.09 2664.46 1212.28 2646.89 1208.31L2614.97 1201.11C2597.42 1301.14 2577.7 1363.04 2559.83 1403.16C2542 1443.28 2498.49 1517.79 2463.14 1568.74C2427.83 1619.65 2396.93 1660.06 2394.47 1658.53C2392.03 1656.99 2394.12 1585.01 2399.14 1498.58C2404.14 1412.13 2412.81 1313.63 2418.42 1279.69C2424.02 1245.71 2428.53 1211.61 2428.47 1203.89C2428.44 1196.18 2425.08 1190.6 2421.01 1191.47C2416.97 1192.37 2381.6 1205.01 2342.44 1219.55ZM2865.21 1228.1C2822.37 1240.78 2788.34 1256.31 2789.59 1262.62C2790.8 1268.9 2809.47 1272.8 2831.08 1271.27L2870.33 1268.45C2861.98 1507.68 2855.35 1637.78 2850.19 1711.84C2845.04 1785.94 2834.22 1873.07 2826.12 1905.47C2815.9 1946.43 2796.44 1983.25 2762.31 2026.16C2725.74 2072.11 2716.97 2089.34 2727.92 2093.5C2736.02 2096.61 2759.23 2084.92 2779.5 2067.53C2799.73 2050.14 2833.1 2013.51 2853.59 1986.13C2874.08 1958.76 2897.45 1911.11 2905.55 1880.24C2913.62 1849.37 2924.66 1738.23 2930.11 1633.26C2935.55 1528.33 2943.78 1391.92 2948.39 1330.18C2953 1268.45 2953.7 1215.04 2949.93 1211.51C2946.15 1207.96 2908.05 1215.42 2865.21 1228.1ZM3293.05 1215.77C3270.8 1224.55 3239.16 1256.31 3201.45 1307.74C3169.72 1350.97 3126.21 1426.73 3104.73 1476.1C3078.31 1536.72 3063.62 1587.82 3059.45 1633.26C3053.5 1698.04 3054.46 1702.04 3084.56 1737.11C3103.35 1759.01 3125.7 1773.58 3140.42 1773.58C3155.73 1773.58 3182.49 1755.17 3211.63 1724.52C3237.28 1697.56 3272.53 1645.78 3289.98 1609.47C3307.42 1573.16 3326.51 1535.89 3332.4 1526.63C3340.24 1514.3 3341.62 1543.51 3337.52 1636.08C3334.45 1705.53 3335.25 1762.27 3339.28 1762.18C3343.35 1762.08 3375.4 1749.95 3410.49 1735.25C3445.61 1720.52 3476.25 1701.66 3478.62 1693.33C3481.92 1681.65 3475.74 1680.11 3451.6 1686.58C3432.93 1691.6 3418.33 1690.48 3415.42 1683.79C3412.7 1677.61 3416.63 1570.28 3424.12 1445.24C3431.62 1320.23 3436.04 1214.14 3433.95 1209.53C3431.84 1204.89 3406.93 1201.4 3378.57 1201.72C3350.23 1202.07 3311.71 1208.41 3293.05 1215.77ZM3262.92 1287.44C3292.98 1256.12 3310.98 1245.58 3330.22 1248.15C3352.44 1251.06 3356.92 1257.66 3359.36 1290.89C3360.92 1312.51 3355.07 1357.98 3346.32 1391.92C3337.58 1425.89 3314.76 1486.51 3295.55 1526.63C3276.37 1566.75 3250.69 1614.75 3238.46 1633.26C3226.26 1651.8 3206.96 1670.73 3195.53 1675.37C3180.41 1681.52 3169.05 1676.94 3153.58 1658.53C3135.21 1636.66 3133.19 1625 3138.41 1571.53C3142.15 1533.58 3159.38 1475.17 3183.2 1420C3206.86 1365.09 3237.85 1313.56 3262.92 1287.44Z" fill="#F8FAFC"/>
</svg>
