<svg width="2687" height="783" viewBox="0 0 2687 783" fill="none" xmlns="http://www.w3.org/2000/svg">
<path d="M139.5 26.9023C145.55 26.8424 154.55 27.4224 159.5 28.1924C164.45 28.9724 171.65 30.2921 175.5 31.1221C179.35 31.9621 185.2 33.5922 188.5 34.7422C191.8 35.8923 198.77 39.1122 204 41.9121C209.23 44.7121 215.52 48.3716 218 50.0615C220.48 51.7415 225.679 56.3017 229.569 60.1816C233.459 64.0716 239.739 71.982 243.529 77.752C247.509 83.822 252.08 92.472 254.35 98.252C256.51 103.752 259.129 111.172 260.159 114.752C261.199 118.332 263.129 126.202 264.449 132.252C265.769 138.302 267.56 148.762 268.42 155.502C269.61 164.712 269.99 176.612 269.96 203.502C269.94 223.162 269.5 243.752 268.97 249.252C268.44 254.752 267.83 263.522 267.62 268.752C267.41 273.982 266.929 283.202 266.569 289.252C266.209 295.302 265.499 303.172 264.989 306.752C264.489 310.332 263.769 325.172 263.399 339.752C262.899 359.392 263.049 367.802 263.979 372.252C264.669 375.552 266.08 379.942 267.12 382.002C268.15 384.062 269.9 386.202 271 386.752C272.1 387.302 274.58 387.752 276.5 387.752C278.92 387.752 280.939 386.902 283.029 385.002C285.489 382.762 286.359 380.752 287.689 374.252C289.169 367.022 289.2 363.062 288.04 333.252C287.34 315.102 286.599 296.422 286.409 291.752C286.209 287.082 285.59 280.772 285.02 277.752C284.485 274.921 284.047 269.998 284.003 266.443L283.997 265.061C283.958 261.506 283.568 256.583 283.09 253.752C282.58 250.732 281.8 240.602 281.37 231.252C280.94 221.902 280.59 207.052 280.59 198.252C280.6 189.452 281.12 177.302 281.76 171.252C282.4 165.202 283.41 157.102 284 153.252C284.58 149.402 286.45 140.622 288.14 133.752C289.83 126.872 293.229 116.082 295.699 109.752C298.169 103.422 301.679 95.5521 303.489 92.252C305.309 88.952 309.47 82.6519 312.729 78.252C315.999 73.852 320.89 67.8216 323.59 64.8516C326.29 61.8815 331.94 56.7115 336.14 53.3516C340.34 50.0016 347.76 45.1415 352.64 42.5615C357.51 39.9815 365.33 36.5223 370 34.8623C374.67 33.2023 383 30.9721 388.5 29.9121C394 28.8521 402.55 27.6916 407.5 27.3516C413.19 26.9516 421.46 27.2822 430 28.2422C437.42 29.0822 445.75 30.2518 448.5 30.8418C451.25 31.4318 457.1 33.0717 461.5 34.4717C465.9 35.8817 473.55 38.9017 478.5 41.1816C483.45 43.4717 490.42 47.4122 494 49.9521C497.58 52.4822 503.009 57.1924 506.069 60.4023C509.129 63.6224 514.14 69.622 517.21 73.752C520.27 77.872 526.99 85.402 532.14 90.4619C537.29 95.5319 544.5 102.052 548.16 104.962C551.82 107.872 558.57 112.482 563.16 115.222C567.75 117.952 575.78 121.682 581 123.512C590.04 126.672 591.08 126.822 602.5 126.532C613.66 126.242 614.87 126.012 619.88 123.242C622.83 121.592 626.859 118.452 628.819 116.252C630.779 114.052 633.39 110.002 634.62 107.252C635.84 104.502 637.75 97.7519 638.85 92.252C639.95 86.752 641.15 77.082 641.51 70.752C641.94 63.172 642.769 57.892 643.939 55.252C644.909 53.052 647.01 49.9616 648.6 48.3916C650.2 46.8116 653.53 44.5122 656 43.2822C658.47 42.0422 662.75 40.5424 665.5 39.9424C668.25 39.3424 677.7 38.5819 686.5 38.252C695.3 37.922 709.47 38.1023 718 38.6523C726.53 39.1924 735.53 40.3321 738 41.1621C740.47 42.0022 744.53 44.4221 747 46.542C749.47 48.662 752.469 51.9323 753.649 53.8223C755.259 56.4023 756.06 60.092 756.89 68.752C757.54 75.452 757.959 99.862 757.899 127.252C757.849 153.102 757.51 179.872 757.14 186.752C756.78 193.622 756.77 201.502 757.12 204.252C757.62 208.142 758.39 209.752 760.63 211.502C762.21 212.732 764.63 213.762 766 213.782C767.38 213.802 769.8 212.792 771.39 211.532C772.98 210.282 779.53 200.922 785.96 190.752C792.38 180.582 799.55 169.102 801.88 165.252C804.21 161.402 808.939 153.752 812.399 148.252C815.849 142.752 822.13 132.742 826.34 126.002C830.55 119.262 837.3 108.462 841.33 102.002C845.37 95.5419 853.73 82.1519 859.92 72.252C866.11 62.352 872.82 52.5623 874.84 50.4922C876.85 48.4222 881.2 45.4621 884.5 43.9121C888.92 41.8422 893.53 40.7519 902 39.752C909.14 38.912 924.49 38.4023 942.5 38.4023C960.65 38.4023 973.74 38.842 977.5 39.582C980.83 40.2321 985.25 41.982 987.43 43.502C989.79 45.152 992.35 48.252 993.83 51.252C995.19 54.0019 996.49 57.832 996.72 59.752C997.08 62.6919 996.05 65.1021 990.29 74.752C986.52 81.0819 978.33 94.132 972.08 103.752C965.84 113.372 950.82 136.102 938.71 154.252C926.59 172.402 908.049 199.852 897.489 215.252C886.939 230.652 874.189 249.442 869.149 257.002C863.409 265.632 859.77 272.152 859.38 274.502C859.04 276.562 859.26 279.942 859.88 282.002C860.5 284.062 864.92 291.492 869.71 298.502C874.49 305.512 881.66 315.982 885.64 321.752C889.61 327.532 903.15 347.552 915.729 366.252C928.299 384.952 946.909 412.632 957.069 427.752C967.229 442.872 978.949 460.652 983.109 467.252C987.269 473.852 992.62 482.402 995 486.252C997.39 490.102 1000.61 495.952 1002.17 499.252C1003.72 502.552 1006 509.9 1006 511C1005.99 512.1 1005.93 515.25 1004.63 518C1003.33 520.75 1000.97 524.25 999.39 525.78C997.8 527.31 994.04 529.29 991.01 530.18C986.83 531.41 979.4 531.91 960.01 532.27C945.16 532.55 927.2 532.25 917.01 531.55C906.3 530.82 896.99 529.63 893.01 528.49C889.43 527.46 884.6 525.24 882.26 523.56C879.92 521.88 876.11 517.69 873.8 514.25C871.48 510.81 859.51 491.422 849.66 475.752C839.81 460.082 820.939 429.922 807.729 408.752C794.51 387.582 781.89 367.332 779.67 363.752C777.45 360.172 774.259 355.782 772.569 353.982C770.523 351.809 768.583 350.726 766.75 350.732C765.24 350.742 763.1 351.202 762 351.752C760.9 352.302 759.36 353.992 758.59 355.502C757.81 357.012 757.12 361.172 757.05 364.752C756.98 368.332 757.179 396.452 757.489 427.252C757.799 458.052 757.649 491.689 757.149 498.02C756.649 504.349 755.959 510.649 755.609 512.02C755.269 513.4 753.859 516.21 752.489 518.27C751.119 520.329 748.09 523.29 745.75 524.84C743.41 526.39 740.15 528.16 738.5 528.76C736.85 529.37 732.01 530.349 727.75 530.939C723.49 531.539 710.44 532.01 698.75 532C685.71 531.99 674.22 531.46 669 530.62C664.33 529.87 658.92 528.48 657 527.52C655.08 526.57 651.95 524.599 650.05 523.149C648.16 521.699 645.57 518.269 644.3 515.52C642.24 511.03 641.95 508.579 641.47 491.52C641.17 481.069 640.529 440.902 640.029 406.252C639.539 371.606 639.389 342.808 639.699 342.252C640.019 341.702 639.749 333.382 639.109 323.752C638.469 314.132 637.49 302.422 636.93 297.752C636.37 293.082 635.25 285.422 634.43 280.752C633.61 276.082 632.45 270.452 631.85 268.252C631.25 266.052 629.18 259.302 627.25 253.252C625.33 247.202 621.86 237.752 619.54 232.252C617.23 226.752 612.949 218.202 610.029 213.252C607.109 208.302 602.309 200.992 599.359 197.002C596.409 193.012 589.16 184.752 583.25 178.632C577.34 172.512 568.67 164.642 564 161.142C559.33 157.632 552.8 153.422 549.5 151.782C546.2 150.132 540.8 148.282 537.5 147.652C533.06 146.812 530.4 146.802 527.25 147.632C524.91 148.252 521.31 150.262 519.25 152.102C517.19 153.941 514.97 156.752 514.31 158.352C513.66 159.942 512.629 163.732 512.029 166.752C511.359 170.072 511.2 175.622 511.62 180.752C512.26 188.692 512.54 189.482 515.77 192.752C518.979 196.002 519.53 196.202 523.359 195.512C525.639 195.102 529.06 193.532 530.97 192.012C532.88 190.492 536.26 186.832 538.47 183.882C540.69 180.932 543.46 177.332 546.77 173.252L551.04 176.252C553.4 177.902 559.37 183.082 573.3 196.252L570.06 204.752C568.493 208.838 565.458 216.24 562.881 222.267L560.738 227.237C558.157 233.264 555.104 240.666 553.529 244.752C551.729 249.422 546.82 261.462 542.62 271.502C538.43 281.542 534.579 290.542 534.069 291.502C533.559 292.462 531.58 297.082 529.68 301.752C527.77 306.422 518.25 328.702 508.51 351.252C498.78 373.802 488.2 398.332 485.01 405.752C481.82 413.172 473.5 432.302 466.52 448.252C459.53 464.202 453.21 478.602 452.47 480.252C451.73 481.902 447.53 491.582 443.14 501.752C438.75 511.922 431.47 528.582 426.96 538.752C422.46 548.922 417.859 559.282 416.729 561.752C415.61 564.222 414.57 566.702 414.43 567.252C414.28 567.802 411.699 573.872 408.689 580.752C405.689 587.622 398.85 603.152 393.5 615.252C388.15 627.352 382.969 639.282 381.989 641.752C380.999 644.222 379.07 648.722 377.68 651.752C376.3 654.782 374.27 659.502 373.18 662.252C372.09 665.002 369.63 670.622 367.71 674.752C365.8 678.872 360.839 690.122 356.699 699.752C352.559 709.372 346.75 722.652 343.8 729.252C340.84 735.852 334.16 750.592 328.96 762.012C323.761 773.43 318.941 782.769 318.25 782.762C317.56 782.762 317 782.532 317 782.252C317 781.972 318.14 776.462 319.54 770.002C320.93 763.542 322.709 755.552 323.489 752.252C324.259 748.952 326.97 737.252 329.5 726.252C332.03 715.252 335.18 701.752 336.5 696.252C337.82 690.752 339.839 682.202 340.989 677.252C342.139 672.302 343.359 667.582 343.699 666.752C344.039 665.922 344.269 665.032 344.199 664.752C344.142 664.461 356.641 614.075 371.989 552.752C387.329 491.423 400.819 437.883 401.949 433.752C403.079 429.632 404.179 425.352 404.399 424.252C404.609 423.152 406.24 416.402 408 409.252C409.77 402.102 412.99 389.722 415.17 381.752C417.34 373.782 419.32 366.352 419.55 365.252C419.79 364.152 422.94 352.002 426.54 338.252C430.15 324.502 435.31 304.702 438.02 294.252C440.73 283.802 444.279 269.632 445.909 262.752C447.539 255.882 449.599 246.202 450.479 241.252C451.369 236.302 452.51 229.772 453.04 226.752C453.56 223.732 453.989 212.142 453.989 201.002C453.999 181.922 453.85 180.272 451.38 172.502C449.94 167.962 447.73 162.232 446.47 159.752C445.21 157.272 442.64 153.452 440.76 151.252C438.88 149.052 434.68 145.902 431.42 144.252C426.07 141.542 424.59 141.252 416 141.262C407.74 141.282 405.85 141.622 401.5 143.872C398.75 145.302 394.779 148.442 392.689 150.862C390.589 153.272 387.48 158.172 385.79 161.752C384.1 165.332 381.619 172.522 380.279 177.752C378.429 184.952 377.62 191.732 376.92 205.752C376.41 215.922 375.539 262.952 374.989 310.252C374.429 357.552 373.57 400.082 373.08 404.752C372.59 409.422 371.9 414.382 371.55 415.752C371.2 417.132 370.759 420.052 370.569 422.252C370.379 424.452 369.73 429.852 369.13 434.252C368.52 438.652 367.16 446.082 366.1 450.752C365.03 455.422 362.53 464.202 360.54 470.252C358.54 476.302 355.23 487.489 353 491.609C350.76 495.739 346.989 501.579 344.609 504.609C342.239 507.639 337.45 512.54 333.97 515.5C330.5 518.47 324.949 522.12 321.649 523.6C318.349 525.09 313.169 527.02 310.149 527.89C307.129 528.76 300.379 529.93 295.149 530.49C289.919 531.06 280.249 531.51 273.649 531.5C267.049 531.5 258.949 531.07 255.649 530.56C252.349 530.06 248.529 529.459 247.149 529.229C245.779 529.009 241.049 527.169 236.649 525.149C230.19 522.179 227.209 519.99 221.149 513.75C217.029 509.51 211.509 502.459 208.899 498.069C206.289 493.689 202.63 483.882 200.96 479.752C199.28 475.632 197.789 471.132 197.649 469.752C197.509 468.382 197.13 466.802 196.79 466.252C196.46 465.702 195.49 461.882 194.63 457.752C193.77 453.632 192.57 447.102 191.96 443.252C191.35 439.402 190.399 431.752 189.859 426.252C189.329 420.752 188.689 413.102 188.449 409.252C188.219 405.402 187.58 399.332 187.04 395.752C186.44 391.852 186.07 355.892 186.1 305.752C186.14 246.822 185.81 219.752 184.97 213.752C184.32 209.082 182.92 200.082 181.85 193.752C180.78 187.422 179.29 180.452 178.55 178.252C177.8 176.052 176.389 172.232 175.409 169.752C174.429 167.272 171.8 162.842 169.56 159.892C167.33 156.942 164.15 153.522 162.5 152.282C160.85 151.052 157.02 148.732 154 147.142C148.82 144.422 147.8 144.252 136.5 144.252C125 144.252 124.25 144.382 118.5 147.382C115.2 149.102 110.14 152.932 107.25 155.882C104.36 158.832 100.46 164.172 98.5898 167.752C96.7099 171.332 94.42 176.952 93.5 180.252C92.58 183.552 91.2197 190.982 90.4697 196.752C89.7297 202.522 89.0993 212.202 89.0693 218.252C89.0393 224.302 89.4397 233.082 89.9697 237.752C90.4897 242.422 91.4095 250.982 92.0195 256.752C92.6295 262.522 93.7498 270.852 94.5098 275.252C95.2798 279.652 96.5699 286.632 97.3799 290.752C98.1899 294.882 100.48 305.232 102.47 313.752C104.45 322.282 107.66 334.652 109.59 341.252C111.52 347.852 115.29 360.002 117.96 368.252C120.63 376.502 124.02 387.752 125.5 393.252C126.97 398.752 129.239 406.852 130.529 411.252C131.829 415.652 135.22 427.582 138.06 437.752C140.91 447.922 144.54 459.962 146.12 464.502C148.55 471.462 149 474.312 149 482.752C149 490.422 148.53 493.972 146.96 498.002C145.85 500.892 142.58 506.372 139.71 510.192C136.61 514.332 132.48 518.402 129.5 520.272C126.75 521.992 122.7 524.122 120.5 524.992C118.3 525.862 111.77 527.512 106 528.672C100.23 529.832 91.7901 530.772 87.25 530.762C81.0801 530.752 77.0499 530.102 71.25 528.172C66.99 526.752 60.3796 523.482 56.5596 520.922C52.5196 518.212 47.4199 513.532 44.3799 509.752C41.4999 506.172 37.9397 500.552 36.4697 497.252C34.9997 493.952 33.1596 488.332 32.3896 484.752C31.6196 481.172 29.8996 472.632 28.5596 465.752C27.2296 458.882 25.7896 451.222 25.3496 448.752C24.9196 446.282 24.52 443.802 24.46 443.252C24.4 442.702 23.8495 439.782 23.2295 436.752C22.6095 433.722 20.9994 425.402 19.6494 418.252C18.2894 411.102 16.4498 400.972 15.5498 395.752C14.6498 390.532 13.4895 383.782 12.9795 380.752C12.4595 377.722 11.8093 373.222 11.5293 370.752C11.2493 368.282 10.56 363.332 10 359.752C9.44 356.172 8.49941 349.652 7.89941 345.252C7.29942 340.852 6.64996 335.002 6.45996 332.252C6.26996 329.502 5.67941 324.332 5.14941 320.752C4.61942 317.172 4.16965 312.902 4.13965 311.252C4.10965 309.602 3.61004 304.202 3.04004 299.252C2.47004 294.302 1.55 283.952 1 276.252C0.45 268.552 3.0705e-07 253.702 0 243.252C-0.00999999 232.802 0.449532 218.402 1.01953 211.252C1.58953 204.102 2.50004 193.752 3.04004 188.252C3.58004 182.752 4.93957 173.302 6.05957 167.252C7.18956 161.202 9.25918 151.082 10.6592 144.752C12.0592 138.422 14.78 128.302 16.71 122.252C18.63 116.202 22.68 106.082 25.71 99.752C28.75 93.422 33.9796 84.2019 37.3496 79.252C40.7095 74.302 47.2995 66.3824 51.9795 61.6523C56.6695 56.9223 64.33 50.562 69 47.502C73.67 44.452 80.6501 40.3618 84.5 38.4219C88.3501 36.4919 95.5501 33.7014 100.5 32.2314C105.45 30.7615 113.77 28.9822 119 28.2822C124.23 27.5822 133.45 26.9623 139.5 26.9023ZM1904.42 43.21C1916.05 43.21 1923.32 49.0232 1926.95 59.9229L2062.11 502.452C2066.47 516.985 2059.93 525.705 2045.39 525.705H1968.37C1956.02 525.705 1948.75 519.892 1945.84 508.266L1935.87 471.544C1932.32 458.477 1920.46 449.407 1906.92 449.407H1810.37C1796.83 449.407 1784.97 458.477 1781.42 471.544L1771.45 508.266C1768.54 519.892 1761.27 525.705 1748.92 525.705H1674.8C1660.27 525.705 1653.73 516.985 1658.09 502.452L1793.25 59.9229C1796.88 49.0234 1804.15 43.21 1815.77 43.21H1904.42ZM2214.22 43.2256C2227.26 43.2257 2234.5 50.4848 2234.5 63.5508V504.9C2234.5 517.967 2227.26 525.225 2214.22 525.226H2141.78C2128.74 525.225 2121.5 517.967 2121.5 504.9V63.5508C2121.5 50.4848 2128.74 43.2257 2141.78 43.2256H2214.22ZM1226.47 42.8994C1238.09 42.8995 1246.08 48.7072 1248.99 59.5957L1327.79 320.527C1330.65 329.998 1344.06 330.008 1346.93 320.542L1426.19 59.5957C1429.1 48.7072 1437.09 42.8994 1448.71 42.8994H1572.17C1585.24 42.8994 1592.5 50.1585 1592.5 63.2246V504.574C1592.5 517.64 1585.24 524.899 1572.17 524.899H1499.54C1486.47 524.899 1479.21 517.64 1479.21 504.574V264.999C1479.21 253.533 1463.05 251.086 1459.66 262.038L1383.34 508.204C1379.71 519.093 1372.45 524.899 1360.83 524.899H1309.99C1298.37 524.899 1291.11 519.093 1287.48 508.204L1210.44 259.825C1207.04 248.875 1190.89 251.323 1190.89 262.788V504.574C1190.89 517.64 1183.63 524.899 1170.55 524.899H1100.83C1087.76 524.899 1080.5 517.64 1080.5 504.574V63.2246C1080.5 50.1585 1087.76 42.8994 1100.83 42.8994H1226.47ZM2433.67 42.8994C2445.29 42.8995 2453.28 47.981 2457.64 58.1436L2556.45 270.721C2560.96 280.417 2575.49 277.226 2575.52 266.533L2576.07 63.2246C2576.07 50.1585 2583.33 42.8994 2596.41 42.8994H2666.16C2679.24 42.8994 2686.5 50.1585 2686.5 63.2246V504.574C2686.5 517.64 2679.24 524.899 2666.16 524.899H2592.05C2580.43 524.899 2572.44 519.819 2568.08 509.656L2459.99 278.251C2455.47 268.558 2440.93 271.785 2440.93 282.482V504.574C2440.93 517.64 2433.67 524.899 2420.59 524.899H2350.84C2337.77 524.899 2330.5 517.64 2330.5 504.574V63.2246C2330.5 50.1585 2337.77 42.8994 2350.84 42.8994H2433.67ZM1868.44 213.117C1865.85 203.108 1851.63 203.131 1849.07 213.148L1816.05 342.469C1814.44 348.792 1819.21 354.942 1825.74 354.942H1892.23C1898.77 354.942 1903.55 348.769 1901.91 342.438L1868.44 213.117ZM567 1.13184C569.06 0.341907 573.59 -0.108509 578 0.0214844C584.07 0.211494 586.62 0.822012 591.39 3.25195C594.63 4.90192 598.91 7.8618 600.89 9.8418C602.98 11.9118 605.87 16.6618 607.75 21.0918C610.53 27.6518 611.09 30.372 611.62 40.002C611.97 46.292 611.74 56.102 611.1 62.252C610.48 68.302 608.839 78.882 607.449 85.752C606.069 92.6319 604.17 100.452 601.5 108.042L597 107.502C594.53 107.202 588.94 105.452 584.59 103.602C580.23 101.762 576.49 99.802 576.27 99.252C576.04 98.7017 576.54 94.8818 577.37 90.752C578.2 86.6319 579.189 77.8519 579.569 71.252C580.049 62.882 579.869 57.432 578.979 53.252C578.179 49.492 576.82 46.4119 575.35 45.002C574.06 43.762 571.76 42.7423 570.25 42.7422C568.74 42.7322 565.47 44.0023 563 45.5723C560.53 47.1322 556.81 50.292 554.75 52.582C552.69 54.872 548.97 59.902 546.5 63.752C544.03 67.602 542 71.202 542 71.752C542 72.3019 541.21 72.6321 540.25 72.4922C539.29 72.3422 534.8 66.8322 530.27 60.2422C525.75 53.6422 522.03 47.912 522.02 47.502C522.01 47.092 524.319 43.0419 527.149 38.502C529.979 33.962 534.91 26.882 538.1 22.752C541.29 18.632 546.289 13.4016 549.199 11.1416C552.119 8.8816 556.53 6.01195 559 4.75195C561.47 3.49197 565.08 1.86181 567 1.13184Z" fill="#F8FAFC"/>
</svg>
