<svg width="2645" height="783" viewBox="0 0 2645 783" fill="none" xmlns="http://www.w3.org/2000/svg">
<path d="M567 1.13219C565.08 1.86219 561.47 3.49218 559 4.75218C556.53 6.01218 552.12 8.8822 549.2 11.1422C546.29 13.4022 541.29 18.6322 538.1 22.7522C534.91 26.8822 529.98 33.9622 527.15 38.5022C524.32 43.0422 522.01 47.0922 522.02 47.5022C522.03 47.9122 525.75 53.6422 530.27 60.2422C534.8 66.8322 539.29 72.3422 540.25 72.4922C541.21 72.6322 542 72.3022 542 71.7522C542 71.2022 544.03 67.6022 546.5 63.7522C548.97 59.9022 552.69 54.8722 554.75 52.5822C556.81 50.2922 560.53 47.1322 563 45.5722C565.47 44.0022 568.74 42.7322 570.25 42.7422C571.76 42.7422 574.06 43.7622 575.35 45.0022C576.82 46.4122 578.18 49.4922 578.98 53.2522C579.87 57.4322 580.05 62.8822 579.57 71.2522C579.19 77.8522 578.2 86.6322 577.37 90.7522C576.54 94.8822 576.04 98.7022 576.27 99.2522C576.49 99.8022 580.23 101.762 584.59 103.602C588.94 105.452 594.53 107.202 597 107.502L601.5 108.042C604.17 100.452 606.07 92.6322 607.45 85.7522C608.84 78.8822 610.48 68.3022 611.1 62.2522C611.74 56.1022 611.97 46.2922 611.62 40.0022C611.09 30.3722 610.53 27.6522 607.75 21.0922C605.87 16.6622 602.98 11.9122 600.89 9.84221C598.91 7.86221 594.63 4.90218 591.39 3.25218C586.62 0.822185 584.07 0.212204 578 0.0222041C573.59 -0.107796 569.06 0.342189 567 1.13219ZM119 28.2822C113.77 28.9822 105.45 30.7622 100.5 32.2322C95.5502 33.7022 88.3502 36.4922 84.5002 38.4222C80.6502 40.3622 73.6702 44.4522 69.0002 47.5022C64.3302 50.5622 56.6701 56.9222 51.9801 61.6522C47.3001 66.3822 40.7101 74.3022 37.3501 79.2522C33.9801 84.2022 28.7502 93.4222 25.7102 99.7522C22.6802 106.082 18.6302 116.202 16.7102 122.252C14.7802 128.302 12.0601 138.422 10.6601 144.752C9.26013 151.082 7.19016 161.202 6.06016 167.252C4.94016 173.302 3.58014 182.752 3.04014 188.252C2.50014 193.752 1.59018 204.102 1.02018 211.252C0.45018 218.402 -0.00984 232.802 0.000160004 243.252C0.000160004 253.702 0.45016 268.552 1.00016 276.252C1.55016 283.952 2.47014 294.302 3.04014 299.252C3.61014 304.202 4.11017 309.602 4.14017 311.252C4.17017 312.902 4.62018 317.172 5.15018 320.752C5.68018 324.332 6.27018 329.502 6.46018 332.252C6.65018 335.002 7.30018 340.852 7.90018 345.252C8.50018 349.652 9.44016 356.172 10.0002 359.752C10.5602 363.332 11.2502 368.282 11.5302 370.752C11.8102 373.222 12.4601 377.722 12.9801 380.752C13.4901 383.782 14.6501 390.532 15.5501 395.752C16.4501 400.972 18.2902 411.102 19.6502 418.252C21.0002 425.402 22.6101 433.722 23.2301 436.752C23.8501 439.782 24.4002 442.702 24.4602 443.252C24.5202 443.802 24.9201 446.282 25.3501 448.752C25.7901 451.222 27.2302 458.882 28.5602 465.752C29.9002 472.632 31.6202 481.172 32.3902 484.752C33.1602 488.332 35.0001 493.952 36.4701 497.252C37.9401 500.552 41.5002 506.172 44.3802 509.752C47.4202 513.532 52.5202 518.212 56.5602 520.922C60.3802 523.482 66.9902 526.752 71.2502 528.172C77.0502 530.102 81.0802 530.752 87.2502 530.762C91.7902 530.772 100.23 529.832 106 528.672C111.77 527.512 118.3 525.862 120.5 524.992C122.7 524.122 126.75 521.992 129.5 520.272C132.48 518.402 136.61 514.332 139.71 510.192C142.58 506.372 145.85 500.892 146.96 498.002C148.53 493.972 149 490.422 149 482.752C149 474.312 148.55 471.462 146.12 464.502C144.54 459.962 140.91 447.922 138.06 437.752C135.22 427.582 131.83 415.652 130.53 411.252C129.24 406.852 126.97 398.752 125.5 393.252C124.02 387.752 120.63 376.502 117.96 368.252C115.29 360.002 111.52 347.852 109.59 341.252C107.66 334.652 104.45 322.282 102.47 313.752C100.48 305.232 98.1902 294.882 97.3802 290.752C96.5702 286.632 95.2802 279.652 94.5102 275.252C93.7502 270.852 92.6302 262.522 92.0202 256.752C91.4102 250.982 90.4901 242.422 89.9701 237.752C89.4401 233.082 89.0402 224.302 89.0702 218.252C89.1002 212.202 89.7301 202.522 90.4701 196.752C91.2201 190.982 92.5802 183.552 93.5002 180.252C94.4202 176.952 96.7102 171.332 98.5902 167.752C100.46 164.172 104.36 158.832 107.25 155.882C110.14 152.932 115.2 149.102 118.5 147.382C124.25 144.382 125 144.252 136.5 144.252C147.8 144.252 148.82 144.422 154 147.142C157.02 148.732 160.85 151.052 162.5 152.282C164.15 153.522 167.33 156.942 169.56 159.892C171.8 162.842 174.43 167.272 175.41 169.752C176.39 172.232 177.8 176.052 178.55 178.252C179.29 180.452 180.78 187.422 181.85 193.752C182.92 200.082 184.32 209.082 184.97 213.752C185.81 219.752 186.14 246.822 186.1 305.752C186.07 355.892 186.44 391.852 187.04 395.752C187.58 399.332 188.22 405.402 188.45 409.252C188.69 413.102 189.33 420.752 189.86 426.252C190.4 431.752 191.35 439.402 191.96 443.252C192.57 447.102 193.77 453.632 194.63 457.752C195.49 461.882 196.46 465.702 196.79 466.252C197.13 466.802 197.51 468.382 197.65 469.752C197.79 471.132 199.28 475.632 200.96 479.752C202.63 483.882 206.29 493.69 208.9 498.07C211.51 502.46 217.03 509.51 221.15 513.75C227.21 519.99 230.19 522.18 236.65 525.15C241.05 527.17 245.78 529.01 247.15 529.23C248.53 529.46 252.35 530.06 255.65 530.56C258.95 531.07 267.05 531.5 273.65 531.5C280.25 531.51 289.92 531.06 295.15 530.49C300.38 529.93 307.13 528.76 310.15 527.89C313.17 527.02 318.35 525.09 321.65 523.6C324.95 522.12 330.5 518.47 333.97 515.5C337.45 512.54 342.24 507.64 344.61 504.61C346.99 501.58 350.76 495.74 353 491.61C355.23 487.49 358.54 476.302 360.54 470.252C362.53 464.202 365.03 455.422 366.1 450.752C367.16 446.082 368.52 438.652 369.13 434.252C369.73 429.852 370.38 424.452 370.57 422.252C370.76 420.052 371.2 417.132 371.55 415.752C371.9 414.382 372.59 409.422 373.08 404.752C373.57 400.082 374.43 357.552 374.99 310.252C375.54 262.952 376.41 215.922 376.92 205.752C377.62 191.732 378.43 184.952 380.28 177.752C381.62 172.522 384.1 165.332 385.79 161.752C387.48 158.172 390.59 153.272 392.69 150.862C394.78 148.442 398.75 145.302 401.5 143.872C405.85 141.622 407.74 141.282 416 141.262C424.59 141.252 426.07 141.542 431.42 144.252C434.68 145.902 438.88 149.052 440.76 151.252C442.64 153.452 445.21 157.272 446.47 159.752C447.73 162.232 449.94 167.962 451.38 172.502C453.85 180.272 454 181.922 453.99 201.002C453.99 212.142 453.56 223.732 453.04 226.752C452.51 229.772 451.37 236.302 450.48 241.252C449.6 246.202 447.54 255.882 445.91 262.752C444.28 269.632 440.73 283.802 438.02 294.252C435.31 304.702 430.15 324.502 426.54 338.252C422.94 352.002 419.79 364.152 419.55 365.252C419.32 366.352 417.34 373.782 415.17 381.752C412.99 389.722 409.77 402.102 408 409.252C406.24 416.402 404.61 423.152 404.4 424.252C404.18 425.352 403.08 429.632 401.95 433.752C400.82 437.882 387.33 491.422 371.99 552.752C356.64 614.082 344.14 664.472 344.2 664.752C344.27 665.032 344.04 665.922 343.7 666.752C343.36 667.582 342.14 672.302 340.99 677.252C339.84 682.202 337.82 690.752 336.5 696.252C335.18 701.752 332.03 715.252 329.5 726.252C326.97 737.252 324.26 748.952 323.49 752.252C322.71 755.552 320.93 763.542 319.54 770.002C318.14 776.462 317 781.972 317 782.252C317 782.532 317.56 782.762 318.25 782.762C318.94 782.772 323.76 773.432 328.96 762.012C334.16 750.592 340.84 735.852 343.8 729.252C346.75 722.652 352.56 709.372 356.7 699.752C360.84 690.122 365.8 678.872 367.71 674.752C369.63 670.622 372.09 665.002 373.18 662.252C374.27 659.502 376.3 654.782 377.68 651.752C379.07 648.722 381 644.222 381.99 641.752C382.97 639.282 388.15 627.352 393.5 615.252C398.85 603.152 405.69 587.622 408.69 580.752C411.7 573.872 414.28 567.802 414.43 567.252C414.57 566.702 415.61 564.222 416.73 561.752C417.86 559.282 422.46 548.922 426.96 538.752C431.47 528.582 438.75 511.922 443.14 501.752C447.53 491.582 451.73 481.902 452.47 480.252C453.21 478.602 459.53 464.202 466.52 448.252C473.5 432.302 481.82 413.172 485.01 405.752C488.2 398.332 498.78 373.802 508.51 351.252C518.25 328.702 527.77 306.422 529.68 301.752C531.58 297.082 533.56 292.462 534.07 291.502C534.58 290.542 538.43 281.542 542.62 271.502C546.82 261.462 551.73 249.422 553.53 244.752C555.33 240.082 559.06 231.082 561.81 224.752C564.56 218.422 568.27 209.422 570.06 204.752L573.3 196.252C559.37 183.082 553.4 177.902 551.04 176.252L546.77 173.252C543.46 177.332 540.69 180.932 538.47 183.882C536.26 186.832 532.88 190.492 530.97 192.012C529.06 193.532 525.64 195.102 523.36 195.512C519.53 196.202 518.98 196.002 515.77 192.752C512.54 189.482 512.26 188.692 511.62 180.752C511.2 175.622 511.36 170.072 512.03 166.752C512.63 163.732 513.66 159.942 514.31 158.352C514.97 156.752 517.19 153.942 519.25 152.102C521.31 150.262 524.91 148.252 527.25 147.632C530.4 146.802 533.06 146.812 537.5 147.652C540.8 148.282 546.2 150.132 549.5 151.782C552.8 153.422 559.33 157.632 564 161.142C568.67 164.642 577.34 172.512 583.25 178.632C589.16 184.752 596.41 193.012 599.36 197.002C602.31 200.992 607.11 208.302 610.03 213.252C612.95 218.202 617.23 226.752 619.54 232.252C621.86 237.752 625.33 247.202 627.25 253.252C629.18 259.302 631.25 266.052 631.85 268.252C632.45 270.452 633.61 276.082 634.43 280.752C635.25 285.422 636.37 293.082 636.93 297.752C637.49 302.422 638.47 314.132 639.11 323.752C639.75 333.382 640.02 341.702 639.7 342.252C639.39 342.802 639.54 371.602 640.03 406.252C640.53 440.902 641.17 481.07 641.47 491.52C641.95 508.58 642.24 511.03 644.3 515.52C645.57 518.27 648.16 521.7 650.05 523.15C651.95 524.6 655.08 526.57 657 527.52C658.92 528.48 664.33 529.87 669 530.62C674.22 531.46 685.71 531.99 698.75 532C710.44 532.01 723.49 531.54 727.75 530.94C732.01 530.35 736.85 529.37 738.5 528.76C740.15 528.16 743.41 526.39 745.75 524.84C748.09 523.29 751.12 520.33 752.49 518.27C753.86 516.21 755.27 513.4 755.61 512.02C755.96 510.65 756.65 504.35 757.15 498.02C757.65 491.69 757.8 458.052 757.49 427.252C757.18 396.452 756.98 368.332 757.05 364.752C757.12 361.172 757.81 357.012 758.59 355.502C759.36 353.992 760.9 352.302 762 351.752C763.1 351.202 765.24 350.742 766.75 350.732C768.584 350.726 770.523 351.809 772.57 353.982C774.26 355.782 777.45 360.172 779.67 363.752C781.89 367.332 794.51 387.582 807.73 408.752C820.94 429.922 839.81 460.082 849.66 475.752C859.51 491.422 871.48 510.81 873.8 514.25C876.11 517.69 879.92 521.88 882.26 523.56C884.6 525.24 889.43 527.46 893.01 528.49C896.99 529.63 906.3 530.82 917.01 531.55C927.2 532.25 945.16 532.55 960.01 532.27C979.4 531.91 986.83 531.41 991.01 530.18C994.04 529.29 997.8 527.31 999.39 525.78C1000.97 524.25 1003.33 520.75 1004.63 518C1005.93 515.25 1005.99 512.1 1006 511C1006 509.9 1003.72 502.552 1002.17 499.252C1000.61 495.952 997.39 490.102 995 486.252C992.62 482.402 987.27 473.852 983.11 467.252C978.95 460.652 967.23 442.872 957.07 427.752C946.91 412.632 928.3 384.952 915.73 366.252C903.15 347.552 889.61 327.532 885.64 321.752C881.66 315.982 874.49 305.512 869.71 298.502C864.92 291.492 860.5 284.062 859.88 282.002C859.26 279.942 859.04 276.562 859.38 274.502C859.77 272.152 863.41 265.632 869.15 257.002C874.19 249.442 886.94 230.652 897.49 215.252C908.05 199.852 926.59 172.402 938.71 154.252C950.82 136.102 965.84 113.372 972.08 103.752C978.33 94.1322 986.52 81.0822 990.29 74.7522C996.05 65.1022 997.08 62.6922 996.72 59.7522C996.49 57.8322 995.19 54.0022 993.83 51.2522C992.35 48.2522 989.79 45.1522 987.43 43.5022C985.25 41.9822 980.83 40.2322 977.5 39.5822C973.74 38.8422 960.65 38.4022 942.5 38.4022C924.49 38.4022 909.14 38.9122 902 39.7522C893.53 40.7522 888.92 41.8422 884.5 43.9122C881.2 45.4622 876.85 48.4222 874.84 50.4922C872.82 52.5622 866.11 62.3522 859.92 72.2522C853.73 82.1522 845.37 95.5422 841.33 102.002C837.3 108.462 830.55 119.262 826.34 126.002C822.13 132.742 815.85 142.752 812.4 148.252C808.94 153.752 804.21 161.402 801.88 165.252C799.55 169.102 792.38 180.582 785.96 190.752C779.53 200.922 772.98 210.282 771.39 211.532C769.8 212.792 767.38 213.802 766 213.782C764.63 213.762 762.21 212.732 760.63 211.502C758.39 209.752 757.62 208.142 757.12 204.252C756.77 201.502 756.78 193.622 757.14 186.752C757.51 179.872 757.85 153.102 757.9 127.252C757.96 99.8622 757.54 75.4522 756.89 68.7522C756.06 60.0922 755.26 56.4022 753.65 53.8222C752.47 51.9322 749.47 48.6622 747 46.5422C744.53 44.4222 740.47 42.0022 738 41.1622C735.53 40.3322 726.53 39.1922 718 38.6522C709.47 38.1022 695.3 37.9222 686.5 38.2522C677.7 38.5822 668.25 39.3422 665.5 39.9422C662.75 40.5422 658.47 42.0422 656 43.2822C653.53 44.5122 650.2 46.8122 648.6 48.3922C647.01 49.9622 644.91 53.0522 643.94 55.2522C642.77 57.8922 641.94 63.1722 641.51 70.7522C641.15 77.0822 639.95 86.7522 638.85 92.2522C637.75 97.7522 635.84 104.502 634.62 107.252C633.39 110.002 630.78 114.052 628.82 116.252C626.86 118.452 622.83 121.592 619.88 123.242C614.87 126.012 613.66 126.242 602.5 126.532C591.08 126.822 590.04 126.672 581 123.512C575.78 121.682 567.75 117.952 563.16 115.222C558.57 112.482 551.82 107.872 548.16 104.962C544.5 102.052 537.29 95.5322 532.14 90.4622C526.99 85.4022 520.27 77.8722 517.21 73.7522C514.14 69.6222 509.13 63.6222 506.07 60.4022C503.01 57.1922 497.58 52.4822 494 49.9522C490.42 47.4122 483.45 43.4722 478.5 41.1822C473.55 38.9022 465.9 35.8822 461.5 34.4722C457.1 33.0722 451.25 31.4322 448.5 30.8422C445.75 30.2522 437.42 29.0822 430 28.2422C421.46 27.2822 413.19 26.9522 407.5 27.3522C402.55 27.6922 394 28.8522 388.5 29.9122C383 30.9722 374.67 33.2022 370 34.8622C365.33 36.5222 357.51 39.9822 352.64 42.5622C347.76 45.1422 340.34 50.0022 336.14 53.3522C331.94 56.7122 326.29 61.8822 323.59 64.8522C320.89 67.8222 316 73.8522 312.73 78.2522C309.47 82.6522 305.31 88.9522 303.49 92.2522C301.68 95.5522 298.17 103.422 295.7 109.752C293.23 116.082 289.83 126.872 288.14 133.752C286.45 140.622 284.58 149.402 284 153.252C283.41 157.102 282.4 165.202 281.76 171.252C281.12 177.302 280.6 189.452 280.59 198.252C280.59 207.052 280.94 221.902 281.37 231.252C281.8 240.602 282.58 250.732 283.09 253.752C283.6 256.772 284.01 262.172 284 265.752C283.99 269.332 284.45 274.732 285.02 277.752C285.59 280.772 286.21 287.082 286.41 291.752C286.6 296.422 287.34 315.102 288.04 333.252C289.2 363.062 289.17 367.022 287.69 374.252C286.36 380.752 285.49 382.762 283.03 385.002C280.94 386.902 278.92 387.752 276.5 387.752C274.58 387.752 272.1 387.302 271 386.752C269.9 386.202 268.15 384.062 267.12 382.002C266.08 379.942 264.67 375.552 263.98 372.252C263.05 367.802 262.9 359.392 263.4 339.752C263.77 325.172 264.49 310.332 264.99 306.752C265.5 303.172 266.21 295.302 266.57 289.252C266.93 283.202 267.41 273.982 267.62 268.752C267.83 263.522 268.44 254.752 268.97 249.252C269.5 243.752 269.94 223.162 269.96 203.502C269.99 176.612 269.61 164.712 268.42 155.502C267.56 148.762 265.77 138.302 264.45 132.252C263.13 126.202 261.2 118.332 260.16 114.752C259.13 111.172 256.51 103.752 254.35 98.2522C252.08 92.4722 247.51 83.8222 243.53 77.7522C239.74 71.9822 233.46 64.0722 229.57 60.1822C225.68 56.3022 220.48 51.7422 218 50.0622C215.52 48.3722 209.23 44.7122 204 41.9122C198.77 39.1122 191.8 35.8922 188.5 34.7422C185.2 33.5922 179.35 31.9622 175.5 31.1222C171.65 30.2922 164.45 28.9722 159.5 28.1922C154.55 27.4222 145.55 26.8422 139.5 26.9022C133.45 26.9622 124.23 27.5822 119 28.2822Z" fill="#F8FAFC"/>
<g filter="url(#filter0_d_22_1422)">
<path d="M2546.55 532.021H2620.66C2633.73 532.021 2641 524.762 2641 511.696V70.3468C2641 57.2805 2633.73 50.0215 2620.66 50.0215H2550.91C2537.83 50.0215 2530.57 57.2805 2530.57 70.3468L2530.02 273.654C2529.99 284.348 2515.46 287.54 2510.95 277.843L2412.14 65.2655C2407.78 55.1028 2399.79 50.0215 2388.17 50.0215H2305.34C2292.27 50.0215 2285 57.2805 2285 70.3468V511.696C2285 524.762 2292.27 532.021 2305.34 532.021H2375.09C2388.17 532.021 2395.43 524.762 2395.43 511.696V289.604C2395.43 278.906 2409.97 275.68 2414.49 285.372L2522.58 516.778C2526.93 526.94 2534.93 532.021 2546.55 532.021Z" fill="#F8FAFC"/>
<path d="M2189 70.673V512.022C2189 525.089 2181.76 532.348 2168.72 532.348H2096.28C2083.24 532.348 2076 525.089 2076 512.022V70.673C2076 57.6067 2083.24 50.3477 2096.28 50.3477H2168.72C2181.76 50.3477 2189 57.6067 2189 70.673Z" fill="#F8FAFC"/>
<path d="M1858.92 50.332C1870.55 50.3322 1877.82 56.1453 1881.45 67.0449L2016.61 509.574C2020.97 524.107 2014.43 532.826 1999.89 532.826H1922.87C1910.52 532.826 1903.25 527.013 1900.34 515.387L1890.37 478.665C1886.82 465.598 1874.96 456.528 1861.42 456.528H1764.87C1751.33 456.528 1739.47 465.598 1735.92 478.665L1725.95 515.387C1723.04 527.013 1715.77 532.826 1703.42 532.826H1629.3C1614.77 532.826 1608.23 524.107 1612.59 509.574L1747.75 67.0449C1751.38 56.1452 1758.65 50.332 1770.27 50.332H1858.92ZM1822.94 220.239C1820.35 210.23 1806.13 210.254 1803.57 220.271L1770.55 349.591C1768.94 355.914 1773.71 362.064 1780.24 362.064H1846.73C1853.27 362.064 1858.05 355.891 1856.41 349.56L1822.94 220.239Z" fill="#F8FAFC"/>
<path d="M1526.67 50.0215H1403.2C1391.58 50.0215 1383.6 55.8287 1380.69 66.7173L1301.43 327.664C1298.56 337.13 1285.15 337.12 1282.29 327.649L1203.49 66.7173C1200.58 55.8287 1192.59 50.0215 1180.97 50.0215H1055.33C1042.26 50.0215 1035 57.2805 1035 70.3468V511.696C1035 524.762 1042.26 532.021 1055.33 532.021H1125.05C1138.13 532.021 1145.39 524.762 1145.39 511.696V269.91C1145.39 258.444 1161.54 255.997 1164.94 266.947L1241.98 515.326C1245.61 526.214 1252.87 532.021 1264.49 532.021H1315.33C1326.95 532.021 1334.21 526.214 1337.84 515.326L1414.15 269.16C1417.55 258.208 1433.71 260.655 1433.71 272.121V511.696C1433.71 524.762 1440.97 532.021 1454.04 532.021H1526.67C1539.74 532.021 1547 524.762 1547 511.696V70.3468C1547 57.2805 1539.74 50.0215 1526.67 50.0215Z" fill="#F8FAFC"/>
</g>
<defs>
<filter id="filter0_d_22_1422" x="1031" y="50.0215" width="1614" height="490.805" filterUnits="userSpaceOnUse" color-interpolation-filters="sRGB">
<feFlood flood-opacity="0" result="BackgroundImageFix"/>
<feColorMatrix in="SourceAlpha" type="matrix" values="0 0 0 0 0 0 0 0 0 0 0 0 0 0 0 0 0 0 127 0" result="hardAlpha"/>
<feOffset dy="4"/>
<feGaussianBlur stdDeviation="2"/>
<feComposite in2="hardAlpha" operator="out"/>
<feColorMatrix type="matrix" values="0 0 0 0 0 0 0 0 0 0 0 0 0 0 0 0 0 0 0.25 0"/>
<feBlend mode="normal" in2="BackgroundImageFix" result="effect1_dropShadow_22_1422"/>
<feBlend mode="normal" in="SourceGraphic" in2="effect1_dropShadow_22_1422" result="shape"/>
</filter>
</defs>
</svg>
