<svg width="539" height="158" viewBox="0 0 539 158" fill="none" xmlns="http://www.w3.org/2000/svg">
<path d="M110.423 4.05C108.393 6.28 106.673 8.64 106.593 9.3C106.513 9.97 107.323 11.64 108.403 13.01C109.483 14.39 110.363 15.06 110.363 14.51C110.363 13.96 111.273 12.5 112.383 11.26C113.493 10.02 115.083 9.01 115.903 9.01C117.073 9.01 117.403 10.34 117.403 15.01C117.403 20.39 117.633 21.07 119.653 21.6C121.033 21.96 122.183 21.67 122.613 20.85C123.003 20.11 123.613 17.26 123.973 14.51C124.333 11.76 124.343 8.05 124.013 6.26C123.673 4.47 122.393 2.33 121.153 1.5C119.913 0.67 117.823 0 116.503 0C114.973 0.01 112.753 1.48 110.423 4.05ZM16.9027 7.87C14.7027 8.87 11.4427 11.33 9.65268 13.35C7.86268 15.36 5.77268 18.25 5.00268 19.76C4.23268 21.27 2.78268 25.43 1.77268 29.01C0.362677 34.06 -0.037324 38.96 0.00267597 51.01C0.032676 63.3 0.622676 69.82 2.82268 82.51C4.35268 91.31 6.34268 100.03 7.25268 101.9C8.16268 103.76 10.1427 105.9 11.6527 106.65C13.1627 107.4 16.4227 108.01 18.9027 108.01C22.2327 108.01 24.1827 107.36 26.4027 105.51C28.7627 103.54 29.4027 102.22 29.3827 99.26C29.3727 97.2 27.4027 88.76 25.0027 80.51C22.6127 72.26 20.0627 63.04 19.3427 60.01C18.6227 56.98 18.0227 50.68 18.0027 46.01C17.9727 40.13 18.4527 36.59 19.5427 34.51C20.4227 32.86 22.4327 30.89 24.0127 30.14C26.4627 28.98 27.4227 28.98 30.3327 30.14C32.6427 31.07 34.2427 32.65 35.2627 35.01C36.4027 37.66 36.9427 44.94 37.5027 65.01C37.9027 79.58 38.6527 92.86 39.1727 94.51C39.6827 96.16 40.8527 98.97 41.7527 100.76C42.6627 102.55 44.6427 104.91 46.1527 106.02C47.6627 107.12 50.7027 108.28 52.9027 108.6C55.1027 108.92 58.9227 108.7 61.4027 108.12C64.4227 107.41 66.9727 105.9 69.1527 103.54C71.6427 100.83 72.7527 98.32 73.9027 92.76C74.8427 88.26 75.6927 75.97 76.1527 60.33C76.8527 36.97 77.0527 34.95 79.0027 32.33C80.2227 30.68 82.2027 29.41 83.7527 29.26C85.2127 29.12 87.3027 29.46 88.4027 30.01C89.5027 30.56 90.8527 32.7 91.3927 34.76C91.9427 36.82 92.3927 40.2 92.3927 42.26C92.4027 44.32 89.4327 57.6 85.8127 71.76C82.1827 85.92 76.1027 110.33 72.2927 126.01C68.4827 141.69 65.1627 155.64 64.9327 157.01C64.6927 158.38 66.2427 155.91 68.3727 151.51C70.5027 147.11 79.9827 125.73 89.4327 104.01C98.8827 82.29 108.823 59.11 111.533 52.51L116.453 40.51L111.453 35.51C107.923 38.96 106.343 39.98 105.653 39.99C104.963 40 104.163 39.22 103.873 38.26C103.583 37.3 103.813 35.27 104.373 33.76C104.943 32.25 106.193 30.73 107.153 30.4C108.113 30.06 110.203 30.4 111.793 31.15C113.383 31.9 116.653 34.65 119.043 37.26C121.443 39.87 124.363 44.15 125.523 46.76C126.693 49.37 128.273 54.77 129.023 58.76C129.903 63.36 130.393 73.03 130.383 85.26C130.373 100.42 130.673 104.94 131.803 106.51C133.053 108.25 134.383 108.51 141.913 108.51C149.973 108.51 150.713 108.33 152.533 106.01C154.293 103.76 154.483 101.91 154.443 87.76C154.413 75.83 154.703 72 155.653 71.97C156.343 71.94 161.363 79.03 166.813 87.72C172.273 96.4 177.793 104.63 179.093 106.01C181.213 108.25 182.403 108.55 190.683 108.89C196.343 109.13 200.773 108.84 202.153 108.14C203.673 107.38 204.393 106.12 204.383 104.26C204.373 102.4 199.713 94.53 190.023 80.01C182.133 68.18 175.413 58.06 175.093 57.51C174.763 56.96 180.783 47.06 188.453 35.51C196.123 23.96 202.413 13.61 202.423 12.51C202.433 11.41 201.863 9.94 201.173 9.24C200.343 8.41 196.813 7.97 190.903 7.96C183.583 7.94 181.433 8.3 179.403 9.84C178.023 10.89 172.623 18.6 167.403 26.98C162.173 35.37 157.343 42.63 156.653 43.12C155.863 43.68 155.233 43.55 154.943 42.76C154.683 42.07 154.343 34.61 154.193 26.18C153.923 12.17 153.733 10.72 151.903 9.41C150.569 8.45667 147.319 7.98333 142.153 7.99C135.753 8.01 134.053 8.36 132.403 10.01C131.293 11.12 130.403 13.34 130.403 15.01C130.403 16.66 129.723 19.58 128.903 21.51C127.863 23.93 126.553 25.2 124.653 25.64C123.143 25.98 120.103 25.71 117.903 25.03C115.213 24.19 111.443 21.36 106.403 16.39C101.153 11.22 97.5527 8.54 94.4027 7.49C91.9227 6.66 87.2027 5.99 83.9027 5.98C79.3327 5.98 76.5927 6.64 72.4127 8.74C68.8927 10.52 65.7127 13.13 63.5827 16.01C61.7427 18.48 59.4927 22.98 58.5827 26.01C57.2827 30.34 57.0127 34.49 57.3127 45.51C57.5327 53.21 57.7527 63.79 57.8027 69.01C57.8927 77.88 57.7727 78.51 55.9027 78.51C53.9527 78.51 53.9127 77.95 54.2327 54.51C54.5427 32.45 54.4027 29.96 52.4827 23.76C51.3427 20.05 49.1627 15.6 47.6527 13.87C46.1427 12.15 42.7627 9.67 40.1527 8.37C36.4527 6.53 33.7927 6.01 28.1527 6.03C23.3193 6.04333 19.5693 6.65667 16.9027 7.87ZM212.403 10.99C211.113 11.81 210.873 18.44 210.653 58.97C210.433 99.68 210.603 106.21 211.903 107.51C212.993 108.6 215.673 109.01 221.653 109.03C226.753 109.04 230.563 108.56 231.643 107.78C233.213 106.64 233.413 103.87 233.643 80.01C233.863 57.24 234.113 53.51 235.403 53.51C236.273 53.51 237.453 55.2 238.213 57.51C238.933 59.71 242.633 71.64 246.433 84.01C250.863 98.44 253.983 106.96 255.123 107.78C256.103 108.47 259.603 109.04 262.903 109.04C266.203 109.04 269.673 108.47 270.623 107.78C271.683 107 275.433 96.54 280.393 80.51C284.833 66.21 288.663 54.29 288.923 54.01C289.173 53.73 290.063 53.85 290.893 54.26C292.183 54.9 292.403 58.82 292.403 81.01C292.403 106.01 292.483 107.05 294.403 108.01C295.503 108.56 299.773 109.01 303.903 109.01C308.023 109.01 312.303 108.56 313.403 108.01C315.363 107.03 315.403 106.01 315.403 60.01C315.403 19.57 315.193 12.8 313.903 11.51C312.713 10.32 309.523 10.01 298.653 9.99C289.053 9.98 284.413 10.36 283.273 11.24C282.333 11.98 278.433 23.23 274.003 38.01C269.803 52.04 265.923 64.52 265.383 65.76C264.843 67 263.723 68.01 262.903 68.01C261.893 68.01 260.613 65.34 258.963 59.76C257.623 55.22 253.783 42.51 250.443 31.51C247.103 20.51 243.813 11.18 243.133 10.78C242.453 10.37 235.603 10.04 227.903 10.04C220.203 10.04 213.223 10.47 212.403 10.99ZM424.983 11.09C423.123 12.08 423.063 13.7 423.213 59.31C423.333 95.9 423.653 106.79 424.633 107.78C425.473 108.62 428.963 109.04 434.953 109.03C440.853 109.02 444.423 108.58 445.223 107.76C446.143 106.81 446.433 95.07 446.433 59.51C446.433 22.91 446.153 12.23 445.173 11.24C444.333 10.41 440.983 9.99 435.403 10.02C430.723 10.05 426.043 10.53 424.983 11.09ZM467.983 11.09C466.123 12.08 466.063 13.7 466.213 59.31C466.333 95.9 466.653 106.79 467.633 107.78C468.453 108.6 471.913 109.05 477.403 109.07C483.103 109.09 486.303 108.67 487.113 107.8C487.963 106.89 488.403 99.4 488.613 82.01C488.863 61.24 489.123 57.51 490.373 57.51C491.313 57.51 495.893 66.14 503.103 81.51C509.513 95.16 515.343 106.28 516.633 107.3C518.423 108.72 520.703 109.09 527.453 109.05C532.923 109.03 536.443 108.56 537.223 107.76C538.143 106.81 538.433 95.07 538.433 59.51C538.433 22.91 538.153 12.23 537.173 11.24C536.363 10.44 533.093 9.98 528.153 9.99C523.893 10 519.503 10.46 518.403 11.01C516.493 11.96 516.403 13.01 516.403 33.51C516.403 45.34 516.173 55.69 515.903 56.51C515.633 57.34 514.843 58.03 514.153 58.05C513.463 58.07 508.213 48.05 502.483 35.8C496.753 23.54 491.123 12.7 489.983 11.72C488.303 10.27 486.183 9.94 478.903 10C473.953 10.04 469.043 10.53 467.983 11.09Z" fill="#0A192F"/>
<path d="M370.401 10.0604C376.631 10.0005 380.481 10.4102 381.581 11.2401C382.631 12.0401 388.611 29.9506 397.581 59.1806C410.421 101.02 411.741 106.02 410.401 107.48C409.231 108.75 406.951 109.09 399.901 109.07C394.161 109.05 390.331 108.58 389.331 107.78C388.471 107.08 387.011 103.92 386.081 100.761C384.811 96.4009 383.801 94.7707 381.901 94.0106C380.521 93.4606 374.791 93.0099 369.151 92.9999C361.672 92.9999 358.291 93.4001 356.651 94.4999C355.321 95.3899 353.772 98.1606 352.852 101.261C352.002 104.151 350.771 107.091 350.102 107.801C349.291 108.681 345.981 109.1 339.901 109.1C332.862 109.1 330.571 108.74 329.401 107.471C328.061 106.011 328.461 104.04 333.211 88.6698C336.141 79.2297 342.661 58.0598 347.711 41.62C355.071 17.6701 357.301 11.5706 358.901 10.9306C360.002 10.5006 365.171 10.1004 370.401 10.0604ZM369.881 44.0097C369.041 44.01 367.991 45.0199 367.531 46.2597C367.071 47.4999 365.421 53.4598 363.861 59.5097C362.301 65.5596 361.331 71.2996 361.711 72.2597C362.281 73.7097 363.691 74.0097 369.901 74.0097C374.941 74.0097 377.581 73.5995 377.961 72.7597C378.261 72.0697 377.391 67.2296 376.021 62.0097C374.641 56.7897 373.041 50.5997 372.461 48.2597C371.791 45.5897 370.841 44.0097 369.881 44.0097Z" fill="#0A192F"/>
</svg>
