<svg width="2833" height="2272" viewBox="0 0 2833 2272" fill="none" xmlns="http://www.w3.org/2000/svg">
<path fill-rule="evenodd" clip-rule="evenodd" d="M1449.59 0.259666C1447.27 0.524986 1437.49 1.56214 1427.88 2.55106C1418.27 3.53998 1401.99 5.72284 1391.7 7.39918C1381.41 9.07552 1364.6 12.392 1354.32 14.7678C1344.03 17.1437 1325.85 21.9556 1313.91 25.4651C1301.98 28.9866 1282.44 35.511 1270.5 39.9732C1258.56 44.4354 1232.78 54.4814 1213.21 62.2963C1193.65 70.1112 1165.7 81.6285 1151.1 87.8876C1136.51 94.1347 1114.53 103.795 1102.26 109.354C1090 114.902 1062.86 127.987 1041.96 138.419C1021.06 148.851 995.555 162.081 985.28 167.809C975.005 173.538 958.989 182.752 949.703 188.275C940.417 193.811 922.773 204.966 910.508 213.058C898.243 221.163 880.864 233.271 871.916 239.964C862.967 246.645 849.122 257.548 841.163 264.181C833.203 270.814 818.261 284.659 807.962 294.958C797.662 305.257 784.674 319.391 779.09 326.35C773.518 333.309 764.69 345.525 759.493 353.485C754.283 361.445 747.65 372.564 744.743 378.208C741.837 383.84 737.206 394.163 734.432 401.122C731.658 408.081 727.847 418.669 725.954 424.639C724.06 430.609 721.359 440.112 719.948 445.744C718.525 451.376 716.595 461.145 715.654 467.452C714.714 473.759 713.93 486.772 713.93 496.396C713.918 506.864 714.653 518.237 715.787 524.737C716.812 530.707 718.525 538.582 719.574 542.224C720.623 545.866 723.457 553.476 725.881 559.108C728.305 564.74 734.396 576.137 739.425 584.434C744.454 592.719 750.472 603.308 752.799 607.951C755.127 612.594 758.974 621.277 761.35 627.247C763.738 633.217 767.042 643.805 768.718 650.764C770.383 657.723 772.541 669.662 773.506 677.296C774.483 684.93 775.641 696.869 776.087 703.828C776.618 712.125 777.715 718.36 779.247 721.918C780.537 724.909 783.588 729.431 786.049 731.988C788.497 734.533 793.502 738.669 797.144 741.166C800.786 743.662 807.576 747.618 812.219 749.945C816.862 752.273 825.81 756.108 832.118 758.46C838.425 760.823 850.907 764.683 859.856 767.034C868.804 769.398 882.649 772.642 890.609 774.258C898.568 775.874 912.944 778.31 922.568 779.685C932.192 781.06 947.918 782.978 957.542 783.955C967.166 784.931 986.691 786.367 1000.96 787.15C1017.47 788.055 1044.4 788.32 1075.13 787.886C1101.66 787.5 1133.96 786.342 1146.88 785.305C1159.81 784.268 1178.54 782.58 1188.49 781.543C1198.44 780.517 1216.35 778.371 1228.29 776.791C1240.23 775.211 1257.33 772.787 1266.28 771.4C1275.23 770.013 1293.41 766.95 1306.68 764.598C1319.94 762.247 1345.17 757.423 1362.76 753.889C1380.34 750.343 1407.2 744.639 1422.45 741.202C1437.71 737.765 1464.03 731.518 1480.95 727.321C1497.87 723.112 1523.92 716.358 1538.83 712.306C1553.76 708.242 1577.09 701.645 1590.69 697.641C1604.3 693.637 1631.15 685.183 1650.39 678.852C1669.62 672.52 1694.59 663.945 1705.86 659.797C1717.14 655.636 1734.77 648.858 1745.06 644.746C1755.35 640.621 1771.63 633.735 1781.24 629.442C1790.85 625.148 1806.6 617.575 1816.21 612.606C1825.83 607.649 1839.3 600.233 1846.13 596.12C1852.97 592.02 1864.1 584.542 1870.86 579.526C1877.62 574.496 1887.49 565.813 1892.81 560.23C1898.85 553.874 1903.94 547.12 1906.39 542.224C1908.55 537.906 1910.91 531.394 1911.66 527.752C1912.5 523.567 1912.75 514.004 1912.33 501.823C1911.96 491.21 1910.8 477.377 1909.75 471.07C1908.69 464.763 1906.45 453.378 1904.76 445.744C1903.07 438.11 1899.49 424.012 1896.8 414.388C1894.1 404.764 1887.67 384.419 1882.5 369.163C1877.33 353.907 1868.52 329.486 1862.9 314.893C1857.29 300.3 1846.42 273.165 1838.75 254.593C1831.08 236.021 1819.31 207.535 1812.6 191.278C1805.88 175.021 1797.48 153.868 1793.95 144.244C1790.42 134.62 1786.38 123.501 1784.97 119.521C1783.57 115.541 1780.15 108.751 1777.39 104.446C1774.64 100.129 1766.91 91.1438 1760.23 84.4746C1751.87 76.1291 1743.36 69.2067 1733 62.3325C1724.71 56.8331 1709.24 48.0896 1698.63 42.8918C1688.02 37.706 1672.41 30.9765 1663.96 27.9494C1655.5 24.9103 1640.85 20.2793 1631.39 17.6502C1621.94 15.0211 1606.07 11.2463 1596.12 9.26849C1586.17 7.30271 1569.08 4.49272 1558.13 3.04552C1541.5 0.838543 1531.3 0.356146 1496.02 0.0908264C1472.81 -0.0780136 1451.91 -0.00565435 1449.59 0.259666ZM1726.76 92.0604C1727.8 90.8785 1729.06 90.3358 1729.54 90.8544C1730.02 91.3609 1730.94 96.9326 1731.56 103.24C1732.19 109.547 1732.46 120.667 1732.17 127.963C1731.88 135.259 1730.61 147.199 1729.37 154.495C1728.12 161.791 1725.67 172.645 1723.93 178.615C1722.19 184.585 1719.4 192.991 1717.7 197.308C1716.01 201.613 1711.57 211.382 1707.83 219.016C1704.09 226.638 1696.88 239.12 1691.8 246.754C1686.71 254.376 1678.87 265.23 1674.39 270.874C1669.89 276.506 1658.59 288.747 1649.26 298.045C1639.93 307.355 1625.51 320.392 1617.22 327.025C1608.93 333.646 1596.18 343.174 1588.88 348.203C1581.59 353.22 1569.1 361.3 1561.14 366.16C1553.19 371.008 1522.25 387.723 1492.4 403.293C1462.55 418.874 1426.47 437.374 1412.2 444.417C1397.94 451.46 1380.04 459.878 1372.41 463.134C1364.77 466.379 1351.48 471.709 1342.86 474.965C1334.24 478.222 1319.04 483.238 1309.09 486.133C1299.14 489.015 1283.13 493.007 1273.51 494.997C1263.9 496.987 1250.06 499.483 1242.76 500.545C1235.46 501.606 1218.91 503.56 1205.98 504.898C1193.05 506.237 1170.52 507.648 1155.93 508.046C1136.31 508.564 1123.9 508.251 1108.29 506.816C1096.68 505.767 1074.7 504.331 1059.45 503.656C1044.19 502.981 1016.52 501.895 997.943 501.256C979.37 500.605 949.076 499.664 930.612 499.146C900.992 498.314 896.82 497.952 895.035 496.094C893.166 494.129 893.166 493.839 895.011 491.873C896.096 490.716 899.087 489.1 901.644 488.28C904.2 487.472 911.714 486 918.347 485.023C924.98 484.047 938.825 482.708 949.1 482.033C959.375 481.357 977.019 480.465 988.295 480.043C999.571 479.608 1056.55 478.812 1114.92 478.27C1202.6 477.438 1223.04 476.931 1232.51 475.351C1238.81 474.302 1251.84 471.528 1261.45 469.177C1271.07 466.837 1286.54 462.435 1295.82 459.408C1305.11 456.381 1320.04 451.038 1328.99 447.553C1337.94 444.056 1352.87 437.833 1362.15 433.708C1371.44 429.584 1393.69 418.874 1411.6 409.914C1429.51 400.953 1446.33 392.378 1448.99 390.871C1451.64 389.363 1468.19 380.656 1485.77 371.527C1503.35 362.397 1525.6 350.325 1535.22 344.693C1544.83 339.061 1561.39 328.581 1572 321.417C1582.61 314.266 1597.07 303.894 1604.13 298.383C1611.18 292.871 1623.34 282.657 1631.14 275.698C1638.94 268.739 1649.74 258.151 1655.12 252.181C1660.5 246.211 1667.95 237.528 1671.67 232.885C1675.4 228.242 1682 219.016 1686.33 212.383C1690.66 205.75 1696.93 194.896 1700.27 188.263C1703.61 181.63 1708.2 170.499 1710.5 163.54C1712.78 156.581 1715.56 145.45 1716.68 138.817C1717.82 132.051 1718.58 121.993 1718.41 115.903C1718.13 105.845 1718.35 104.651 1721.48 99.622C1723.34 96.6311 1725.72 93.2302 1726.76 92.0604Z" fill="#F8FAFC"/>
<path fill-rule="evenodd" clip-rule="evenodd" d="M2660.41 1616.64C2658.75 1617.12 2655.77 1618.62 2653.78 1619.97C2651.79 1621.32 2648.94 1624.81 2647.46 1627.73C2645.95 1630.72 2644.76 1635.29 2644.75 1638.18C2644.74 1641.77 2655.49 1674.84 2680.61 1748.53L2716.49 1853.75C2717.53 1987.53 2718.1 2010 2719.1 2011.74C2719.87 2013.06 2722.22 2015.78 2724.31 2017.77C2727.71 2021 2729.03 2021.42 2736.78 2021.73C2744.01 2022.02 2746.22 2021.62 2750.19 2019.32C2752.8 2017.8 2756.06 2014.65 2757.42 2012.34C2759.84 2008.23 2759.91 2006.21 2760.32 1931.54L2760.74 1854.96C2816.64 1690.46 2832.87 1640.94 2832.87 1638.78C2832.87 1636.62 2832.03 1632.82 2831 1630.34C2829.98 1627.85 2827.4 1624.03 2825.27 1621.85C2823.15 1619.67 2819.24 1617.31 2816.59 1616.63C2813.94 1615.93 2809.87 1615.72 2807.54 1616.17C2805.22 1616.61 2801.45 1618.15 2799.18 1619.58C2796.9 1621.03 2793.86 1624.09 2792.42 1626.42C2790.99 1628.73 2778.47 1667.66 2764.61 1712.93C2750.74 1758.19 2739.14 1795.23 2738.8 1795.26C2738.47 1795.28 2726.86 1758.52 2713.02 1713.58C2699.16 1668.63 2687.16 1630.48 2686.34 1628.83C2685.51 1627.17 2682.87 1624.05 2680.47 1621.9C2678.06 1619.74 2674.05 1617.43 2671.57 1616.78C2669.08 1616.12 2666.23 1615.62 2665.24 1615.67C2664.25 1615.73 2662.07 1616.17 2660.41 1616.64ZM12.6403 1621.72C10.6504 1622.32 7.73187 1624.04 6.15201 1625.53C4.57215 1627.01 2.54607 1629.99 1.62951 1632.15C0.254667 1635.42 -0.0227201 1667.18 0.00139988 1822.09L0.0134625 2008.12C4.23446 2015.62 7.30976 2018.73 9.6494 2019.94C12.7971 2021.56 15.9568 2022.02 22.2883 2021.75C28.463 2021.47 31.6951 2020.7 34.3483 2018.84C36.3382 2017.45 38.919 2014.33 40.0768 2011.92C42.0184 2007.86 42.1873 2001.22 42.1752 1927.01L42.1632 1846.51C46.3842 1838.22 49.1459 1834.68 51.0152 1833.32C54.3076 1830.92 56.2975 1830.81 109.506 1830.23L164.596 1829.63C171.012 1824.95 173.593 1821.84 174.461 1819.68C175.342 1817.52 176.053 1814 176.041 1811.84C176.041 1809.68 175.088 1806.45 173.931 1804.67C172.773 1802.87 170.469 1800.42 168.817 1799.24C166.056 1797.25 161.232 1797.02 110.929 1796.46C58.6371 1795.89 55.8633 1795.74 51.8353 1793.43C49.3268 1791.98 46.4927 1788.78 44.8646 1785.59L42.1149 1780.18C42.7782 1668.06 42.8506 1666.72 45.3591 1662.6C46.7821 1660.27 49.8936 1657.42 52.2936 1656.27C56.2613 1654.35 61.7365 1654.16 111.532 1654.16C154.478 1654.16 167.262 1653.81 170.325 1652.55C172.484 1651.66 175.74 1649.22 177.561 1647.13C180.045 1644.27 180.889 1642.01 180.913 1638.18C180.938 1634.81 179.997 1631.6 178.176 1628.83C176.644 1626.5 173.509 1623.66 171.205 1622.5C167.334 1620.56 161.111 1620.4 91.6333 1620.5C49.2906 1620.55 14.6784 1621.09 12.6403 1621.72ZM1063.07 2173.94C1059.75 2175.2 1054.4 2178.56 1051.17 2181.42C1047.53 2184.64 1044.01 2189.36 1041.86 2193.84C1039.96 2197.85 1037.75 2205.38 1036.93 2210.73C1035.75 2218.36 1035.75 2222.51 1036.92 2230.62C1037.74 2236.26 1039.74 2243.85 1041.39 2247.51C1043.03 2251.16 1046.95 2256.7 1050.1 2259.81C1053.25 2262.93 1058.54 2266.7 1061.86 2268.17C1065.89 2269.96 1071.09 2271.01 1077.54 2271.35C1085.26 2271.76 1088.51 2271.36 1093.82 2269.36C1097.47 2267.99 1102.57 2265.08 1105.16 2262.91C1107.75 2260.74 1111.41 2256.25 1113.3 2252.94C1115.18 2249.62 1116.72 2245.41 1116.72 2243.59C1116.73 2241.47 1115.86 2239.84 1114.32 2239.07C1112.99 2238.4 1110.7 2237.99 1109.22 2238.16C1107.27 2238.38 1105.66 2240.28 1103.37 2245.1C1101.65 2248.75 1098.51 2253.23 1096.42 2255.05C1094.33 2256.87 1090.57 2258.91 1088.09 2259.56C1085.61 2260.22 1081.66 2260.77 1079.35 2260.79C1077.03 2260.8 1072.69 2260 1069.7 2259.03C1066.36 2257.93 1062.39 2255.26 1059.36 2252.08C1056.63 2249.18 1053.3 2243.85 1051.83 2239.97C1049.82 2234.68 1049.2 2230.41 1049.19 2221.88C1049.17 2215.74 1049.96 2208.01 1050.91 2204.7C1051.86 2201.38 1054.44 2196.25 1056.65 2193.31C1059.03 2190.14 1063.1 2186.71 1066.68 2184.91C1071.25 2182.59 1074.46 2181.88 1079.95 2181.95C1084.77 2182.02 1088.89 2182.92 1092.31 2184.63C1096.15 2186.56 1098.34 2188.87 1101.06 2193.84C1103.08 2197.57 1105.73 2200.74 1107.09 2201.08C1108.41 2201.42 1110.86 2200.86 1112.51 2199.87C1114.18 2198.87 1115.53 2197.24 1115.53 2196.25C1115.53 2195.25 1114.66 2192.68 1113.59 2190.53C1112.52 2188.37 1109.4 2184.28 1106.65 2181.44C1103.64 2178.32 1099.15 2175.34 1095.33 2173.91C1090.82 2172.22 1086.12 2171.55 1079.05 2171.59C1072.33 2171.64 1067.13 2172.4 1063.07 2173.94Z" fill="#F8FAFC"/>
<path fill-rule="evenodd" clip-rule="evenodd" d="M1967.02 524.868C1965.93 525.29 1965.36 526.966 1965.5 529.354C1965.64 531.465 1967.08 537.796 1968.72 543.428C1970.35 549.06 1972.85 559.106 1974.25 565.739C1975.8 573.084 1976.84 582.515 1976.89 589.859C1976.96 599.387 1976.42 603.572 1974.28 609.758C1972.8 614.076 1970.44 619.503 1969.04 621.818C1967.64 624.134 1964.67 628.475 1962.43 631.466C1960.2 634.457 1952.54 643.406 1945.41 651.365C1937.95 659.699 1928.32 668.913 1922.72 673.073C1917.36 677.053 1907.18 683.831 1900.09 688.148C1893 692.466 1879.5 701.752 1870.1 708.795C1860.69 715.838 1847.03 726.752 1839.73 733.036C1831.05 740.513 1825.11 746.712 1822.54 750.981C1820.37 754.563 1817.01 762.112 1815.06 767.744C1813.1 773.376 1810.15 784.773 1808.49 793.07C1806.84 801.355 1804.62 816.828 1803.57 827.441C1802.53 838.054 1801.15 858.134 1800.54 872.063C1799.92 885.993 1799.64 915.298 1799.92 937.187C1800.21 959.076 1800.74 1007.92 1801.11 1045.73C1801.48 1083.54 1801.99 1119.09 1802.26 1124.72C1802.53 1130.39 1803.76 1137.94 1805.02 1141.6C1806.28 1145.26 1808.89 1150.32 1810.85 1152.87C1812.92 1155.56 1817.18 1158.84 1821.04 1160.71C1826.96 1163.58 1828.96 1163.9 1839.73 1163.77C1847.87 1163.66 1856.4 1162.59 1865.96 1160.45C1877.74 1157.81 1883.12 1155.77 1897.92 1148.32C1907.7 1143.39 1921.96 1135.38 1929.58 1130.51C1937.21 1125.65 1948.87 1117.52 1955.51 1112.44C1962.14 1107.37 1975.71 1096.29 1985.66 1087.85C1995.61 1079.41 2007.82 1069.4 2012.79 1065.61C2017.77 1061.83 2024.21 1056.34 2027.12 1053.43C2030.02 1050.53 2034.05 1045.69 2036.09 1042.71C2038.12 1039.73 2041.58 1033.49 2043.76 1028.84C2045.96 1024.2 2049.15 1014.97 2050.86 1008.34C2053.22 999.212 2054.17 991.735 2054.78 977.588C2055.24 967.313 2055.19 951.563 2054.69 942.614C2054.18 933.666 2051.62 908.689 2049.01 887.138C2046.38 865.575 2043.59 840.888 2042.83 832.265C2041.95 822.424 2041.72 807.603 2042.21 792.467C2042.64 779.201 2043.79 753.417 2044.76 735.182C2045.74 716.936 2046.56 687.907 2046.58 670.661C2046.61 649.4 2046.04 634.843 2044.81 625.436C2043.81 617.802 2041.96 607.491 2040.7 602.522C2039.43 597.542 2036.73 589.401 2034.68 584.432C2032.63 579.452 2028.19 570.768 2024.8 565.136C2021.43 559.504 2016.66 552.268 2014.21 549.06C2011.78 545.864 2006.25 540.884 2001.94 538.001C1997.63 535.119 1990.3 530.994 1985.66 528.848C1981.01 526.701 1975.32 524.771 1972.99 524.566C1970.68 524.361 1967.99 524.506 1967.02 524.868ZM1640.14 763.74C1637.82 764.066 1623.71 766.43 1608.78 768.974C1582.66 773.437 1581.19 773.835 1569.59 779.66C1561.46 783.736 1554.82 788.174 1549.22 793.299C1544.66 797.484 1538.04 805.251 1534.52 810.557C1531.01 815.864 1526.4 824.004 1524.29 828.647C1522.18 833.29 1518.87 841.974 1516.96 847.943C1515.04 853.913 1512.13 865.31 1510.52 873.269C1508.89 881.229 1506.74 894.519 1505.74 902.816C1504.74 911.101 1503.7 923.861 1503.45 931.157C1503.18 938.454 1503.45 951.201 1504.04 959.498C1504.62 967.783 1507.01 989.491 1509.35 1007.74C1511.96 1028.19 1513.62 1046.45 1513.68 1055.38C1513.72 1063.33 1513.18 1072.83 1512.47 1076.48C1511.75 1080.13 1509.39 1085.8 1507.21 1089.11C1505.03 1092.41 1501.36 1096.37 1499.04 1097.91C1496.72 1099.45 1492.64 1101.29 1489.99 1101.99C1487.34 1102.69 1479.74 1103.05 1473.11 1102.77C1463.96 1102.41 1459.59 1101.63 1455.02 1099.58C1451.7 1098.08 1447.18 1095.12 1444.96 1093C1442.75 1090.88 1439.89 1087.11 1438.63 1084.62C1437.36 1082.14 1435.68 1075.89 1434.9 1070.75C1433.79 1063.55 1433.79 1058.64 1434.9 1049.35C1435.68 1042.71 1437.93 1030.77 1439.87 1022.81C1441.82 1014.85 1447.82 993.966 1453.2 976.382C1458.57 958.799 1464.54 938.188 1466.46 930.554C1468.38 922.92 1470.83 911.536 1471.91 905.228C1473 898.921 1474.4 887.536 1475.01 879.902C1475.77 870.676 1475.71 861.788 1474.85 853.37C1474.12 846.134 1472.3 837.089 1470.61 832.265C1468.97 827.622 1465.88 821.146 1463.74 817.866C1461.59 814.585 1457.39 809.954 1454.41 807.566C1451.43 805.179 1445.73 801.959 1441.75 800.403C1436.65 798.425 1431.14 797.436 1423.06 797.038C1413.55 796.58 1404.7 797.52 1371.2 802.537C1348.98 805.854 1320.49 809.954 1307.88 811.643C1295.28 813.331 1277.37 815.55 1268.09 816.563C1258.8 817.588 1245.23 818.987 1237.94 819.687C1230.64 820.386 1204.87 821.267 1180.65 821.64C1153.07 822.063 1128.97 821.797 1116.13 820.941C1104.85 820.181 1080.98 818.252 1063.07 816.623C1045.16 815.007 1021.01 812.849 1009.4 811.824C996.664 810.714 983.277 808.724 975.631 806.843C968.347 805.034 961.437 803.985 959.35 804.37C957.36 804.744 954.755 806.011 953.561 807.205C952.187 808.555 951.379 811.136 951.379 814.175C951.379 816.828 953.923 827.417 957.035 837.692C961.027 850.862 962.86 859.231 963.258 866.033C963.728 874.198 963.354 876.887 960.858 883.52C959.23 887.838 951.656 902.491 944.01 916.082C936.364 929.674 927.09 946.51 923.387 953.468C919.685 960.427 913.86 972.644 910.435 980.603C907.01 988.563 902.97 998.874 901.438 1003.52C899.919 1008.16 897.832 1015.22 896.807 1019.2C895.782 1023.18 894.359 1031.32 893.635 1037.29C892.707 1044.98 892.695 1050.77 893.599 1057.18C894.407 1062.95 896.433 1069.51 899.171 1075.27C901.523 1080.24 905.792 1087.58 908.638 1091.56C911.484 1095.54 918.901 1103.68 925.124 1109.66C931.347 1115.63 941.863 1124.12 948.496 1128.53C955.129 1132.93 965.175 1139.08 970.807 1142.18C976.451 1145.28 987.571 1150.71 995.53 1154.23C1003.49 1157.75 1016.79 1163.1 1025.08 1166.1C1033.37 1169.1 1047.75 1173.76 1057.04 1176.45C1066.32 1179.13 1081.8 1183.21 1091.41 1185.51C1101.02 1187.83 1118.94 1191.63 1131.21 1193.99C1143.48 1196.34 1162.48 1199.61 1173.42 1201.25C1184.37 1202.89 1205.53 1205.59 1220.45 1207.25C1235.38 1208.91 1258.44 1211.11 1271.7 1212.12C1284.97 1213.13 1304.51 1214.49 1315.12 1215.15C1325.73 1215.8 1359.92 1216.99 1391.1 1217.8C1435.32 1218.93 1460.37 1218.93 1505.07 1217.81C1536.58 1217.02 1575.11 1215.54 1590.69 1214.54C1606.28 1213.54 1622.29 1212.25 1626.27 1211.67C1630.25 1211.11 1637.85 1208.81 1643.15 1206.61C1648.46 1204.39 1656.88 1199.91 1661.85 1196.65C1666.83 1193.39 1675.12 1186.59 1680.3 1181.53C1685.47 1176.49 1692.06 1168.84 1694.93 1164.52C1697.8 1160.2 1701.78 1153.42 1703.77 1149.44C1705.76 1145.46 1708.81 1137.73 1710.54 1132.26C1712.28 1126.78 1715.86 1109.96 1718.5 1094.87C1721.14 1079.78 1724.4 1059.03 1725.73 1048.74C1727.05 1038.46 1728.95 1021.64 1729.94 1011.36C1730.92 1001.08 1732.34 982.352 1733.07 969.749C1733.82 957.147 1734.4 923.499 1734.36 894.977C1734.33 866.455 1733.76 836.607 1733.08 828.647C1732.37 820.109 1730.84 811.209 1729.36 806.939C1727.97 802.959 1725.38 797.05 1723.59 793.806C1721.8 790.562 1717.36 785.207 1713.7 781.891C1710.05 778.586 1703.81 774.257 1699.83 772.267C1695.85 770.277 1688.53 767.624 1683.55 766.345C1677.87 764.898 1668.91 763.873 1659.43 763.584C1651.15 763.342 1642.46 763.403 1640.14 763.74Z" fill="#F8FAFC"/>
<path fill-rule="evenodd" clip-rule="evenodd" d="M1138.44 1616.64C1136.78 1617.12 1133.8 1618.61 1131.81 1619.97C1129.82 1621.32 1126.97 1624.81 1125.49 1627.73C1123.98 1630.72 1122.79 1635.29 1122.78 1638.18C1122.76 1641.77 1133.52 1674.84 1158.64 1748.53L1194.52 1853.75L1195.73 2009.5C1200.41 2016.37 1203.66 2019.25 1205.98 2020.32C1208.98 2021.72 1212.53 2022.17 1218.24 2021.84C1223.92 2021.52 1227.3 2020.65 1229.7 2018.9C1231.58 2017.54 1234.34 2014 1235.84 2011.06L1238.56 2005.7L1238.53 1856.16C1309.37 1647.79 1311.07 1642.39 1310.42 1636.07C1309.97 1631.82 1308.66 1627.91 1306.75 1625.21C1305.11 1622.88 1302.25 1620.07 1300.4 1618.96C1298.55 1617.84 1294.86 1616.56 1292.21 1616.12C1288.5 1615.49 1285.86 1615.96 1280.81 1618.14C1275.97 1620.24 1273.43 1622.28 1271.16 1625.89C1269.28 1628.88 1258.28 1662.61 1242.76 1713.01C1228.83 1758.25 1217.17 1795.26 1216.83 1795.26C1216.49 1795.27 1204.57 1757.43 1190.31 1711.15C1165.78 1631.57 1164.15 1626.79 1160.16 1622.79C1157.83 1620.46 1153.76 1617.89 1151.1 1617.08C1148.45 1616.26 1145.2 1615.64 1143.87 1615.68C1142.54 1615.73 1140.11 1616.17 1138.44 1616.64ZM438.949 1620.69C436.706 1622.18 433.764 1625.3 432.401 1627.62C429.928 1631.82 429.916 1632.63 429.916 1781.99C429.916 1893.8 430.29 1934.91 431.4 1942.99C432.208 1948.96 434.27 1958.73 435.995 1964.7C437.707 1970.67 440.975 1979.49 443.255 1984.3C446.258 1990.63 449.815 1995.47 456.147 2001.81C461.924 2007.6 467.544 2011.88 472.729 2014.44C477.047 2016.56 485.995 2019.68 492.628 2021.38C500.214 2023.31 509.838 2024.74 518.557 2025.19C526.879 2025.63 536.768 2025.35 543.28 2024.49C549.25 2023.7 559.839 2021.17 566.797 2018.85C573.756 2016.53 582.379 2012.9 585.937 2010.78C589.494 2008.65 595.066 2003.92 598.31 2000.28C601.566 1996.62 606.041 1989.85 608.272 1985.2C610.491 1980.56 613.445 1973.23 614.82 1968.92C616.195 1964.6 617.896 1957.83 618.595 1953.85C619.295 1949.87 620.476 1937.38 621.236 1926.11C622.249 1911.09 622.334 1868.8 621.538 1768.12C620.537 1640.77 620.308 1630.35 618.354 1626.72C617.196 1624.56 614.483 1621.71 612.324 1620.39C609.514 1618.66 606.282 1617.99 600.867 1617.98C596.151 1617.98 591.677 1618.77 588.94 1620.09C586.359 1621.33 583.38 1624.19 581.728 1627.02L578.906 1631.84C578.869 1857.78 578.387 1915.45 577.603 1923.7C576.916 1930.99 575.251 1942.39 573.901 1949.02C572.562 1955.66 570.379 1963.52 569.065 1966.51C567.75 1969.49 564.94 1973.75 562.818 1975.96C560.695 1978.18 556.522 1981.23 553.531 1982.74C550.541 1984.26 545.258 1986.12 541.773 1986.87C538.288 1987.6 530.822 1988.22 525.19 1988.22C519.558 1988.22 512.093 1987.6 508.608 1986.87C505.123 1986.12 499.84 1984.29 496.849 1982.79C493.859 1981.3 489.493 1977.97 487.129 1975.4C484.488 1972.53 481.847 1967.72 480.267 1962.89C478.856 1958.57 477.143 1952.06 476.444 1948.42C475.744 1944.77 474.623 1935.82 473.947 1928.52C473.212 1920.49 472.717 1859.57 472.705 1774.15C472.681 1636.14 472.621 1632.94 470.293 1627.93C468.955 1625.07 466.169 1621.74 463.986 1620.39C461.043 1618.58 457.944 1617.99 451.54 1617.98C444.702 1617.98 442.206 1618.52 438.949 1620.69ZM1960.92 1620.69C1958.68 1622.18 1955.74 1625.3 1954.37 1627.62C1951.9 1631.82 1951.89 1632.63 1951.89 1782.59C1951.89 1902.22 1952.23 1935.59 1953.5 1944.2C1954.38 1950.17 1956.46 1959.66 1958.1 1965.3C1959.74 1970.94 1963.04 1979.62 1965.43 1984.6C1968.58 1991.12 1972.17 1996.02 1978.32 2002.17C1984.34 2008.18 1989.36 2011.88 1995.3 2014.7C1999.95 2016.91 2008.91 2020.01 2015.2 2021.58C2021.7 2023.2 2032.4 2024.76 2039.93 2025.17C2047.36 2025.58 2058.1 2025.3 2064.35 2024.54C2070.49 2023.79 2079.98 2021.77 2085.45 2020.04C2090.93 2018.31 2098.66 2015.41 2102.64 2013.6C2106.62 2011.81 2112.85 2007.62 2116.51 2004.31C2121.21 2000.04 2124.78 1995.15 2128.78 1987.52C2131.88 1981.61 2135.83 1971.88 2137.55 1965.91C2139.78 1958.18 2141.23 1948.62 2142.58 1932.74C2144.23 1913.17 2144.34 1893.28 2143.44 1770.53C2142.48 1641.07 2142.26 1630.35 2140.31 1626.72C2139.16 1624.56 2136.45 1621.71 2134.3 1620.39C2131.44 1618.64 2128.24 1617.99 2122.54 1617.98C2117.21 1617.98 2113.35 1618.69 2110.48 1620.21C2108.16 1621.44 2105.04 1624.56 2103.57 1627.14L2100.87 1631.84C2100.82 1854.73 2100.32 1914.68 2099.58 1923.09C2098.9 1930.72 2097.24 1942.39 2095.87 1949.02C2094.51 1955.66 2092.13 1963.8 2090.58 1967.11C2089.03 1970.43 2085.68 1975.07 2083.14 1977.44C2080.59 1979.8 2075.26 1982.98 2071.28 1984.53C2066.16 1986.51 2060.52 1987.51 2051.99 1987.95C2044.62 1988.34 2036.88 1987.99 2032.09 1987.06C2027.77 1986.24 2021.8 1984.32 2018.82 1982.81C2015.84 1981.31 2011.46 1977.97 2009.1 1975.4C2006.54 1972.62 2003.72 1967.56 2002.14 1962.89C2000.67 1958.57 1998.58 1950.43 1997.51 1944.8C1995.77 1935.79 1995.45 1916.21 1994.82 1782.59C1994.15 1640.99 1993.95 1630.37 1991.99 1626.72C1990.83 1624.56 1988.12 1621.71 1985.96 1620.39C1983.02 1618.58 1979.92 1617.99 1973.51 1617.98C1966.67 1617.98 1964.18 1618.52 1960.92 1620.69ZM230.408 1622.03C228.141 1622.87 225.596 1624.61 224.752 1625.9C223.92 1627.18 222.388 1630.26 221.351 1632.75C219.674 1636.78 219.469 1657.32 219.457 1821.49L219.445 2005.7C223.666 2014 226.428 2017.54 228.297 2018.9C231.638 2021.33 233.121 2021.38 309.702 2021.7C382.159 2021.99 387.996 2021.85 391.843 2019.89C394.11 2018.72 396.993 2016.4 398.223 2014.75C399.453 2013.09 400.743 2009.56 401.093 2006.91C401.527 2003.53 401.033 2000.82 399.441 1997.87C398.042 1995.26 395.135 1992.61 391.843 1990.92C386.525 1988.21 386.283 1988.19 330.12 1988.21L273.739 1988.22C267.878 1983.08 265.442 1980.09 264.538 1978.27C263.163 1975.51 262.885 1946.38 262.897 1805.81L262.91 1636.67C258.17 1627.24 256.035 1625.1 252.031 1623.09C248.474 1621.3 244.518 1620.39 240.574 1620.42C237.258 1620.46 232.687 1621.17 230.408 1622.03ZM701.869 1621.74C700.217 1622.4 697.576 1624.14 696.02 1625.59C694.477 1627.03 692.439 1629.72 691.498 1631.54C690.075 1634.35 689.809 1663.66 689.809 1822.09C689.821 2007.09 689.846 2009.37 692.221 2013.24C693.548 2015.4 696.394 2018.27 698.553 2019.63C701.749 2021.66 704.064 2022.05 711.119 2021.74C717.463 2021.48 720.647 2020.74 723.035 2018.97C724.832 2017.64 727.449 2015.03 728.86 2013.16C731.392 2009.78 731.416 2009.01 732.019 1926.11C732.61 1843.61 732.659 1842.42 735.143 1839.06C736.53 1837.19 739.521 1834.42 741.776 1832.91L745.888 1830.16C840.885 1830.22 852.077 1829.91 854.73 1828.58C856.551 1827.67 859.542 1825.24 861.363 1823.15C863.184 1821.08 865.005 1817.34 865.391 1814.86C865.789 1812.37 865.524 1808.97 864.8 1807.32C864.088 1805.65 861.833 1802.67 859.795 1800.68L856.081 1797.07C748.65 1795.9 745.683 1795.74 741.788 1793.45C739.545 1792.12 736.554 1789.51 735.155 1787.64C732.671 1784.3 732.61 1783.03 732.273 1726.73L731.935 1669.23C736.349 1660.76 739.123 1657.79 741.667 1656.41C745.623 1654.29 749.374 1654.14 801.364 1654.14C851.775 1654.16 857.226 1653.96 861.037 1652.05C863.341 1650.89 866.476 1648.03 868.008 1645.71C869.564 1643.34 870.782 1639.65 870.782 1637.27C870.782 1634.9 869.564 1631.21 868.008 1628.83C866.476 1626.5 863.341 1623.66 861.037 1622.5C857.166 1620.56 850.883 1620.4 780.862 1620.46C733.37 1620.51 703.751 1620.99 701.869 1621.74ZM921.964 1621.71C919.975 1622.32 917.056 1624.04 915.476 1625.53C913.896 1627.01 911.87 1629.99 910.954 1632.15C909.579 1635.41 909.301 1667.18 909.326 1822.09L909.338 2008.12C913.595 2015.68 916.574 2018.67 918.974 2019.88C921.506 2021.15 925.908 2021.99 930.105 2021.99C934.229 2021.99 938.836 2021.13 941.465 2019.88C943.889 2018.72 947.146 2015.86 948.701 2013.54L951.524 2009.32L951.487 1846.51C955.708 1838.22 958.47 1834.68 960.339 1833.32C963.632 1830.92 965.634 1830.81 1018.23 1830.23C1069.95 1829.66 1072.92 1829.51 1076.8 1827.22C1079.05 1825.89 1081.89 1822.9 1083.13 1820.58C1084.38 1818.26 1085.38 1814.46 1085.38 1812.14C1085.37 1809.81 1084.41 1806.45 1083.25 1804.66C1082.1 1802.87 1079.81 1800.42 1078.14 1799.24C1075.38 1797.25 1070.56 1797.02 1020.25 1796.46C967.961 1795.88 965.187 1795.74 961.159 1793.42C958.651 1791.98 955.817 1788.78 954.189 1785.59L951.439 1780.18C952.102 1668.06 952.175 1666.72 954.683 1662.6C956.106 1660.27 959.218 1657.42 961.618 1656.27C965.585 1654.35 971.061 1654.16 1020.86 1654.16C1063.8 1654.16 1076.59 1653.81 1079.65 1652.55C1081.81 1651.66 1085.12 1649.09 1087.03 1646.82C1090.04 1643.22 1090.43 1641.91 1090.04 1636.48C1089.72 1631.94 1088.79 1629.37 1086.58 1626.97C1084.93 1625.18 1081.81 1622.96 1079.65 1622.04C1076.47 1620.7 1061.72 1620.41 1000.66 1620.5C958.506 1620.54 923.991 1621.09 921.964 1621.71ZM1534.61 1621.71C1532.62 1622.32 1529.72 1624.04 1528.16 1625.53C1526.62 1627.01 1524.58 1629.72 1523.64 1631.54C1522.21 1634.35 1521.95 1663.59 1521.95 1821.49C1521.94 2000.95 1522.02 2008.27 1524.18 2012.34C1525.41 2014.65 1528.26 2017.8 1530.51 2019.31C1533.67 2021.43 1536.26 2022.05 1541.85 2022C1546.59 2021.97 1550.75 2021.12 1553.91 2019.54C1556.56 2018.21 1559.82 2015.64 1561.14 2013.83C1563.48 2010.63 1563.57 2008.13 1564.16 1926.62L1564.76 1842.7C1570.37 1835.49 1573.76 1832.68 1575.92 1831.81C1578.94 1830.59 1591.78 1830.23 1632 1830.21C1683.75 1830.2 1684.19 1830.17 1688.86 1827.49C1691.44 1826.02 1694.59 1822.9 1695.87 1820.58C1697.54 1817.51 1698 1814.89 1697.57 1810.94C1697.1 1806.75 1695.98 1804.54 1692.65 1801.29L1688.34 1797.07C1580.61 1795.88 1577.84 1795.75 1573.81 1793.42C1571.29 1791.97 1568.49 1788.81 1566.86 1785.59C1564.16 1780.21 1564.14 1779.88 1564.12 1724.71C1564.11 1669.36 1564.11 1669.22 1566.85 1663.96C1568.51 1660.75 1571.25 1657.79 1573.81 1656.41C1577.76 1654.29 1581.5 1654.14 1633.2 1654.16C1676.41 1654.16 1689.22 1653.81 1692.3 1652.55C1694.46 1651.66 1697.71 1649.22 1699.53 1647.12C1702.02 1644.27 1702.86 1642.01 1702.89 1638.18C1702.91 1634.81 1701.97 1631.6 1700.15 1628.83C1698.62 1626.5 1695.48 1623.66 1693.18 1622.5C1689.31 1620.56 1683.08 1620.4 1613.61 1620.5C1571.26 1620.54 1536.65 1621.09 1534.61 1621.71ZM1752.54 1622.1C1750.34 1622.99 1747.46 1625.28 1746.13 1627.18C1744.81 1629.08 1743.18 1632.53 1742.53 1634.86C1741.76 1637.59 1741.45 1704.7 1741.68 1824.3L1742.04 2009.52C1747.65 2016.73 1751.04 2019.54 1753.2 2020.41C1756.29 2021.65 1773.17 2021.99 1833.1 2021.99C1902.97 2021.99 1909.43 2021.82 1913.48 2019.88C1915.89 2018.72 1918.98 2016.14 1920.32 2014.15C1921.67 2012.16 1922.97 2008.62 1923.22 2006.31C1923.51 2003.7 1922.82 2000.47 1921.41 1997.87C1920.01 1995.26 1917.11 1992.61 1913.82 1990.92C1908.5 1988.21 1908.26 1988.19 1852.09 1988.21L1795.71 1988.22C1789.85 1983.08 1787.41 1980.09 1786.51 1978.27C1785.13 1975.51 1784.86 1946.38 1784.87 1805.81L1784.88 1636.67C1780.14 1627.24 1778.01 1625.1 1774 1623.09C1770.45 1621.3 1766.49 1620.39 1762.55 1620.42C1759.23 1620.46 1754.72 1621.21 1752.54 1622.1ZM2222.66 1621.99C2220.36 1622.81 2217.1 1625.27 2215.42 1627.44L2212.38 1631.4C2211.78 2007.54 2211.81 2009.36 2214.19 2013.24C2215.52 2015.4 2218.37 2018.27 2220.52 2019.63C2223.72 2021.66 2226.04 2022.05 2233.09 2021.74C2239.44 2021.48 2242.62 2020.74 2245.01 2018.97C2246.8 2017.64 2249.42 2015.03 2250.83 2013.16C2253.36 2009.78 2253.39 2009.01 2253.99 1926.11C2254.58 1843.61 2254.63 1842.42 2257.11 1839.06C2258.5 1837.19 2261.49 1834.42 2263.75 1832.91L2267.86 1830.16C2362.86 1830.22 2374.05 1829.91 2376.7 1828.58C2378.52 1827.67 2381.41 1825.37 2383.11 1823.45C2384.81 1821.55 2386.62 1818.35 2387.13 1816.36C2387.68 1814.3 2387.52 1810.92 2386.8 1808.52C2386.08 1806.2 2383.83 1802.67 2381.78 1800.68L2378.05 1797.07C2270.62 1795.9 2267.66 1795.74 2263.76 1793.45C2261.52 1792.12 2258.53 1789.51 2257.13 1787.64C2254.64 1784.3 2254.58 1783.07 2254.29 1726.43C2254 1670.71 2254.08 1668.46 2256.4 1663.8C2257.73 1661.15 2260.58 1657.89 2262.73 1656.57C2266.5 1654.25 2268.8 1654.17 2322.43 1654.16C2366.97 1654.16 2379.01 1653.82 2382.13 1652.5C2384.29 1651.59 2387.41 1649.37 2389.06 1647.56C2391.16 1645.27 2392.2 1642.57 2392.49 1638.66C2392.8 1634.3 2392.26 1632.1 2390.05 1628.83C2388.48 1626.5 2385.31 1623.66 2383.01 1622.5C2379.14 1620.56 2372.82 1620.4 2302.83 1620.44C2245.25 1620.47 2225.84 1620.85 2222.66 1621.99ZM2443.94 1621.71C2441.95 1622.32 2439.03 1624.04 2437.45 1625.53C2435.87 1627.01 2433.84 1629.99 2432.93 1632.15C2431.55 1635.41 2431.27 1667.23 2431.27 1822.09C2431.26 2000.97 2431.35 2008.27 2433.5 2012.34C2434.73 2014.65 2437.58 2017.82 2439.84 2019.37C2443.42 2021.83 2445.09 2022.14 2452.98 2021.78C2459.76 2021.48 2462.93 2020.74 2465.64 2018.85C2467.63 2017.45 2470.22 2014.33 2471.37 2011.92C2473.31 2007.86 2473.48 2001.22 2473.47 1927.01L2473.46 1846.51C2477.68 1838.22 2480.44 1834.68 2482.31 1833.32C2485.6 1830.92 2487.59 1830.81 2540.8 1830.23L2595.89 1829.63C2602.31 1824.95 2604.89 1821.84 2605.76 1819.68C2606.64 1817.52 2607.35 1813.85 2607.35 1811.54C2607.35 1808.31 2606.24 1806.12 2602.61 1802.19L2597.88 1797.07C2489.93 1795.88 2487.16 1795.75 2483.13 1793.42C2480.61 1791.97 2477.81 1788.81 2476.18 1785.59C2473.48 1780.21 2473.46 1779.88 2473.45 1724.71C2473.44 1669.36 2473.44 1669.22 2476.17 1663.96C2477.84 1660.75 2480.57 1657.79 2483.13 1656.41C2487.09 1654.29 2490.83 1654.14 2542.53 1654.16C2585.74 1654.16 2598.55 1653.81 2601.62 1652.55C2603.78 1651.66 2607.04 1649.22 2608.86 1647.12C2611.34 1644.27 2612.19 1642.01 2612.21 1638.18C2612.23 1634.81 2611.29 1631.6 2609.47 1628.83C2607.94 1626.5 2604.8 1623.66 2602.5 1622.5C2598.63 1620.56 2592.41 1620.4 2522.93 1620.5C2480.59 1620.54 2445.97 1621.09 2443.94 1621.71ZM1308.21 2174.85C1307.2 2176 1298.71 2196.22 1289.35 2219.77C1279.99 2243.31 1272.32 2263.8 1272.32 2265.3C1272.31 2266.91 1273.4 2268.56 1275.02 2269.37C1276.52 2270.12 1278.69 2270.39 1279.84 2269.98C1281 2269.55 1282.97 2266.91 1284.22 2264.09C1285.46 2261.27 1287.9 2255.03 1289.65 2250.22L1292.81 2241.48H1336.23C1343.86 2261.57 1346.71 2268.11 1347.48 2268.96C1348.25 2269.83 1349.97 2270.52 1351.3 2270.52C1352.63 2270.51 1354.8 2269.4 1356.12 2268.03L1358.54 2265.57C1332.91 2201.57 1325.09 2181.9 1324.64 2180.57C1324.18 2179.25 1322.67 2176.93 1321.27 2175.41C1319.52 2173.52 1317.4 2172.69 1314.4 2172.7C1311.79 2172.72 1309.31 2173.58 1308.21 2174.85ZM1313.83 2186.6C1314.48 2184.77 1315.95 2187.56 1319.9 2198.06C1322.75 2205.68 1326.78 2216.14 1332.61 2230.62H1315.12C1305.51 2230.62 1297.63 2230.21 1297.65 2229.72C1297.65 2229.22 1301.11 2219.85 1305.32 2208.92C1309.52 2197.97 1313.36 2187.93 1313.83 2186.6ZM1516.29 2175.64L1512.9 2178.55C1512.35 2260.57 1512.55 2267.06 1514.11 2268.61C1515.11 2269.6 1516.97 2270.42 1518.25 2270.42C1519.53 2270.42 1521.42 2269.6 1522.47 2268.61C1524.05 2267.11 1524.36 2263.32 1524.36 2245.7V2224.59C1568.98 2224.59 1570.25 2224.46 1571.4 2222.18C1572.06 2220.86 1572.6 2219.23 1572.6 2218.56C1572.6 2217.9 1571.79 2216.54 1570.79 2215.55C1569.31 2214.07 1564.9 2213.74 1546.67 2213.74H1524.36L1524.96 2184.19C1572.82 2183.1 1577.73 2182.66 1578.66 2181.18C1579.28 2180.18 1579.81 2178.55 1579.84 2177.56C1579.86 2176.56 1579.19 2175.06 1578.35 2174.22C1577.2 2173.07 1569.72 2172.7 1548.25 2172.71C1519.8 2172.74 1519.67 2172.75 1516.29 2175.64ZM1740.6 2174.28C1739.15 2175.11 1737.12 2177.15 1736.1 2178.79C1734.53 2181.32 1734.24 2187.85 1734.22 2221.28C1734.21 2254 1734.52 2261.39 1736.01 2264.39C1737.02 2266.38 1739.04 2268.3 1740.54 2268.65C1742.03 2269 1755.73 2269.14 1770.99 2268.95L1798.73 2268.61V2260.17C1758.54 2259.11 1746.74 2258.7 1746.57 2258.58C1746.4 2258.46 1746.27 2250.76 1746.27 2241.48V2224.59C1785.46 2224.59 1789.86 2224.26 1791.41 2222.78C1792.44 2221.78 1793.3 2220.43 1793.3 2219.77C1793.3 2219.11 1792.76 2217.48 1792.09 2216.15C1790.95 2213.87 1789.68 2213.74 1768.58 2213.74H1746.27L1746.87 2184.19C1795.55 2183.6 1796.98 2183.46 1798.12 2181.18C1798.79 2179.85 1798.97 2177.81 1798.51 2176.66C1798.06 2175.5 1797.11 2174.15 1796.4 2173.66C1795.69 2173.17 1783.45 2172.77 1769.18 2172.77C1750.59 2172.77 1742.5 2173.19 1740.6 2174.28Z" fill="#F8FAFC"/>
</svg>
