<svg width="2586" height="2271" viewBox="0 0 2586 2271" fill="none" xmlns="http://www.w3.org/2000/svg">
<path fill-rule="evenodd" clip-rule="evenodd" d="M2373.94 0.991435C2372.6 1.49144 2371.59 2.36144 2371.69 2.93144C2371.79 3.50144 2375.44 30.4014 2379.81 62.7114L2387.75 121.461C2388.86 226.121 2388.71 252.481 2387.95 264.961C2387.33 275.141 2386.14 289.531 2385.29 296.961C2384.45 304.391 2382.39 317.441 2380.73 325.961C2379.07 334.481 2375.23 350.011 2372.22 360.461C2369.2 370.911 2364.34 385.981 2361.43 393.961C2358.52 401.941 2353.96 413.641 2351.31 419.961C2348.66 426.281 2343.53 437.311 2339.93 444.461C2336.32 451.611 2329.77 463.451 2325.37 470.771C2320.97 478.091 2312.57 490.471 2306.71 498.271C2300.85 506.081 2291.85 517.051 2286.71 522.651C2281.57 528.261 2273.09 536.751 2267.87 541.521C2262.64 546.291 2254.32 553.351 2249.37 557.211C2244.42 561.071 2235.87 567.241 2230.37 570.931C2224.87 574.621 2215.87 580.271 2210.37 583.501C2204.87 586.721 2194.07 592.381 2186.37 596.071C2178.67 599.761 2166.07 605.331 2158.37 608.441C2150.67 611.551 2137.17 616.521 2128.37 619.481C2119.57 622.441 2103.59 627.321 2092.87 630.311C2082.14 633.301 2063.47 638.031 2051.37 640.811C2039.27 643.601 2020.37 647.691 2009.37 649.911C1998.37 652.121 1967.09 657.991 1939.87 662.961C1912.64 667.921 1885.19 672.461 1878.87 673.041C1872.54 673.621 1865.46 674.511 1863.12 675.031C1860.78 675.541 1856.96 676.841 1854.62 677.911C1852.28 678.981 1848.55 681.791 1846.32 684.161C1844.09 686.521 1841.06 690.481 1839.59 692.961C1838.12 695.441 1835.38 701.731 1833.5 706.961C1831.62 712.191 1829.17 720.731 1828.04 725.961C1826.92 731.191 1825.47 740.191 1824.81 745.961C1824.02 752.851 1823.8 764.191 1824.18 778.961C1824.5 791.341 1825.46 806.411 1826.32 812.461C1827.17 818.511 1828.78 828.631 1829.9 834.961C1831.02 841.291 1833.75 853.881 1835.97 862.961C1838.19 872.041 1843.07 888.691 1846.83 899.961C1850.59 911.231 1856.02 925.861 1858.89 932.461C1861.77 939.061 1866.82 949.861 1870.12 956.461C1873.42 963.061 1878.16 971.611 1880.65 975.461C1883.15 979.311 1887.48 984.861 1890.28 987.791C1893.08 990.721 1897.39 994.401 1899.87 995.971C1902.34 997.541 1907.29 999.621 1910.87 1000.6C1916.61 1002.16 1918.45 1002.22 1926.62 1001.16C1931.71 1000.5 1940.71 998.821 1946.62 997.431C1952.53 996.041 1969.07 991.561 1983.37 987.481C1997.67 983.411 2029.39 975.141 2053.87 969.121C2078.34 963.091 2107.82 955.611 2119.37 952.501C2130.92 949.381 2151.84 943.521 2165.87 939.471C2179.89 935.411 2202.62 928.421 2216.37 923.911C2230.12 919.411 2249.02 912.901 2258.37 909.451C2267.72 906.001 2282.34 900.391 2290.87 896.971C2299.39 893.561 2311.99 888.281 2318.87 885.251C2325.74 882.221 2340.14 875.361 2350.87 870.011C2361.59 864.661 2375.77 857.231 2382.37 853.501C2388.97 849.771 2402.02 841.671 2411.37 835.501C2420.72 829.341 2433.32 820.411 2439.37 815.681C2445.42 810.941 2455.18 802.651 2461.05 797.261C2466.92 791.871 2474.84 784.091 2478.65 779.961C2482.47 775.841 2489.73 767.291 2494.8 760.961C2499.86 754.631 2507.06 744.961 2510.79 739.461C2514.52 733.961 2520.28 724.961 2523.59 719.461C2526.9 713.961 2532.77 703.161 2536.63 695.461C2540.49 687.761 2546.01 675.841 2548.9 668.961C2551.79 662.091 2556.77 648.591 2559.98 638.961C2563.18 629.341 2567.6 614.261 2569.8 605.461C2572 596.661 2574.91 583.381 2576.27 575.961C2577.62 568.541 2579.65 555.481 2580.76 546.961C2581.87 538.441 2583.24 525.611 2583.79 518.461C2584.34 511.311 2585.09 497.141 2585.44 486.961C2585.81 476.601 2585.59 458.561 2584.95 445.961C2584.32 433.591 2583.13 416.941 2582.31 408.961C2581.49 400.981 2579.71 386.811 2578.37 377.461C2577.02 368.111 2574.31 352.361 2572.33 342.461C2570.36 332.561 2566.54 315.911 2563.86 305.461C2561.17 295.011 2556.7 279.151 2553.92 270.211C2551.14 261.271 2545.89 245.971 2542.26 236.211C2538.62 226.451 2532.97 212.161 2529.69 204.461C2526.42 196.761 2519.51 181.911 2514.35 171.461C2509.19 161.011 2500.61 145.031 2495.28 135.961C2489.95 126.891 2481.77 113.611 2477.11 106.461C2472.44 99.3114 2464.26 87.6114 2458.94 80.4614C2453.62 73.3114 2444.58 61.8414 2438.87 54.9614C2433.15 48.0914 2420.35 34.3614 2410.42 24.4614C2400.48 14.5614 2390.11 4.99144 2387.36 3.19144C2384.34 1.21144 2381.19 -0.0485646 2379.37 0.00143543C2377.72 0.0514354 2375.28 0.491435 2373.94 0.991435ZM174.95 44.7314C173.06 45.6814 168.89 49.3914 165.68 52.9614C162.47 56.5414 155.24 66.5614 149.61 75.2414C143.98 83.9214 132.02 101.471 123.03 114.241C114.04 127.011 101.17 145.781 94.4404 155.961C87.7004 166.141 78.8104 180.091 74.6704 186.961C70.5304 193.841 63.9704 205.311 60.0904 212.461C56.2104 219.611 50.4704 231.091 47.3204 237.961C44.1804 244.841 39.1504 256.761 36.1504 264.461C33.1404 272.161 28.5204 285.661 25.8704 294.461C23.2204 303.261 19.4504 317.661 17.4904 326.461C15.5304 335.261 12.8304 348.761 11.4804 356.461C10.1304 364.161 7.87038 379.691 6.46038 390.961C5.05038 402.231 3.18038 419.341 2.30038 428.961C1.42038 438.591 0.460382 461.761 0.160382 480.461C-0.189618 501.941 0.0403824 520.721 0.780382 531.461C1.42038 540.811 2.63038 554.541 3.47038 561.961C4.31038 569.381 6.32038 583.341 7.94038 592.961C9.56038 602.591 12.7104 617.881 14.9404 626.961C17.1804 636.041 21.6304 651.341 24.8304 660.961C28.0404 670.591 33.4104 684.871 36.7704 692.711C40.1204 700.551 45.1804 711.571 48.0004 717.211C50.8204 722.851 56.5004 733.091 60.6304 739.961C64.7504 746.841 72.3304 758.541 77.4704 765.961C82.6104 773.381 91.8904 785.521 98.0904 792.931C104.29 800.341 115.46 812.491 122.9 819.931C130.35 827.371 142.05 838.161 148.9 843.901C155.76 849.651 166.32 858.031 172.37 862.521C178.42 867.021 189.89 874.981 197.87 880.211C205.84 885.441 218.44 893.171 225.87 897.401C233.29 901.631 247.92 909.281 258.37 914.411C268.82 919.531 284.34 926.671 292.87 930.281C301.39 933.891 316.24 939.741 325.87 943.291C335.49 946.841 351.24 952.251 360.87 955.311C370.49 958.381 387.14 963.351 397.87 966.371C408.59 969.381 429.07 974.751 443.37 978.291C457.67 981.831 477.47 986.561 487.37 988.791C497.27 991.031 514.14 994.661 524.87 996.871C535.59 999.081 556.97 1003.35 572.37 1006.35C587.77 1009.35 614.32 1014.31 631.37 1017.37C648.42 1020.43 672.04 1025 683.87 1027.53C695.69 1030.06 710.32 1033.02 716.37 1034.13C722.74 1035.28 734.1 1036.35 743.37 1036.67C753.57 1037.01 761.18 1036.8 764.37 1036.08C767.12 1035.46 770.94 1033.66 772.87 1032.09C774.79 1030.51 778.91 1025.67 782.01 1021.34C785.12 1017.01 789.75 1009.63 792.31 1004.96C794.87 1000.29 798.77 991.511 800.98 985.461C803.18 979.411 806.3 969.511 807.91 963.461C809.52 957.411 811.95 947.061 813.3 940.461C814.66 933.861 816.27 925.311 816.88 921.461C817.49 917.611 818.64 908.161 819.45 900.461C820.25 892.761 821.18 876.791 821.52 864.961C821.89 852.061 821.67 837.061 820.98 827.461C820.34 818.661 819.14 806.061 818.3 799.461C817.46 792.861 815.66 781.831 814.3 774.961C812.93 768.091 810.28 757.061 808.41 750.461C806.54 743.861 803.2 733.731 801 727.961C798.72 721.991 795.1 714.871 792.63 711.461L788.27 705.461C768.2 702.721 755.39 701.511 746.87 701.001C738.34 700.491 725.74 699.811 718.87 699.481C711.99 699.161 701.42 698.441 695.37 697.891C689.32 697.351 678.52 696.231 671.37 695.401C664.22 694.581 649.37 692.771 638.37 691.381C627.37 689.991 609.14 687.321 597.87 685.441C586.59 683.571 569.49 680.421 559.87 678.441C550.24 676.461 536.97 673.481 530.37 671.821C523.77 670.161 511.39 666.771 502.87 664.301C494.34 661.831 479.49 656.951 469.87 653.461C460.24 649.961 445.62 644.211 437.37 640.681C429.12 637.151 413.82 629.981 403.37 624.751C392.92 619.511 378.29 611.761 370.87 607.511C363.44 603.261 351.07 595.591 343.37 590.471C335.67 585.341 324.42 577.191 318.37 572.361C312.32 567.531 300.39 556.571 291.87 548.021C283.34 539.461 272.36 527.291 267.45 520.961C262.55 514.631 255.3 504.511 251.34 498.461C247.39 492.411 240.94 481.611 237.02 474.461C233.09 467.311 226.78 454.261 222.98 445.461C219.18 436.661 213.58 422.031 210.54 412.961C207.5 403.891 202.96 388.141 200.45 377.961C197.94 367.781 194.75 353.161 193.35 345.461C191.95 337.761 189.73 323.361 188.4 313.461C187.07 303.561 185.29 287.361 184.45 277.461C183.6 267.561 182.39 248.211 181.76 234.461C181.01 218.061 180.82 186.061 181.2 141.461C181.68 84.0814 182.03 72.0514 183.44 64.4614C184.4 59.2614 184.84 53.6614 184.49 51.2114C184.15 48.8714 182.97 46.0614 181.87 44.9614C180.77 43.8614 179.53 42.9714 179.12 42.9814C178.71 43.0014 176.83 43.7814 174.95 44.7314ZM1572.87 2187.44C1565.44 2188.18 1552.17 2189.74 1543.37 2190.91C1534.57 2192.08 1511.62 2195.47 1492.37 2198.46C1473.12 2201.44 1449.04 2205 1438.87 2206.35C1428.69 2207.71 1414.29 2209.41 1406.87 2210.14C1398.74 2210.93 1380.64 2211.45 1361.37 2211.43C1335.91 2211.41 1326.92 2211.04 1317.37 2209.62C1310.77 2208.64 1296.14 2206.1 1284.87 2203.98C1273.59 2201.86 1259.64 2199.37 1253.87 2198.45C1248.09 2197.54 1234.82 2196.55 1224.37 2196.27C1212.94 2195.96 1202.38 2196.19 1197.87 2196.84C1193.74 2197.44 1188.37 2198.95 1185.94 2200.2C1183.5 2201.44 1180.35 2204 1178.94 2205.88C1177.02 2208.43 1176.37 2210.51 1176.37 2214.04C1176.37 2217.84 1176.98 2219.54 1179.46 2222.62C1181.16 2224.73 1185.66 2228.38 1189.46 2230.73C1193.26 2233.07 1201.77 2237.28 1208.37 2240.07C1214.97 2242.86 1227.57 2247.6 1236.37 2250.59C1245.17 2253.59 1257.32 2257.34 1263.37 2258.91C1269.42 2260.48 1279.99 2262.7 1286.87 2263.84C1293.74 2264.97 1305.44 2266.58 1312.87 2267.41C1320.29 2268.25 1335.14 2269.44 1345.87 2270.07C1357.55 2270.75 1377 2270.98 1394.37 2270.63C1410.32 2270.31 1430.68 2269.35 1439.62 2268.5C1448.56 2267.65 1462.51 2266.03 1470.62 2264.89C1478.73 2263.74 1490.77 2261.71 1497.37 2260.37C1503.97 2259.03 1514.54 2256.55 1520.87 2254.87C1527.19 2253.19 1535.97 2250.65 1540.37 2249.23C1544.77 2247.81 1552.64 2244.88 1557.87 2242.72C1563.09 2240.56 1570.97 2236.84 1575.37 2234.45C1579.77 2232.06 1586.63 2227.83 1590.62 2225.04C1594.61 2222.24 1601.37 2216.47 1605.66 2212.21C1609.94 2207.95 1614.68 2202.44 1616.19 2199.96C1617.7 2197.49 1618.81 2194.38 1618.66 2193.06C1618.5 2191.74 1617.1 2189.72 1615.54 2188.56C1613.05 2186.7 1611.2 2186.44 1599.54 2186.28C1592.3 2186.18 1580.29 2186.7 1572.87 2187.44ZM896.37 81.4914C893.07 82.2114 886.99 84.0314 882.87 85.5114C878.74 87.0014 871.77 90.0214 867.37 92.2314C862.97 94.4414 855.54 98.6214 850.87 101.531C846.19 104.441 837.42 110.771 831.37 115.601C825.32 120.421 814.58 130.011 807.5 136.911C800.43 143.811 789.33 155.531 782.84 162.961C776.35 170.391 765.27 183.701 758.21 192.551C751.15 201.401 738.84 217.001 730.87 227.231C722.89 237.451 715.47 246.251 714.37 246.781C713.27 247.311 709.44 248.261 705.87 248.911C702.29 249.551 696.35 251.061 692.66 252.271C688.98 253.471 685.6 254.091 685.16 253.641C684.73 253.191 685.43 249.821 686.72 246.141C688.01 242.471 693.35 229.781 698.59 217.961C703.83 206.141 710.54 191.401 713.49 185.211C716.45 179.021 721.85 169.571 725.5 164.211C729.15 158.851 736.89 148.391 742.7 140.961C748.51 133.531 756.33 122.961 760.09 117.461C763.84 111.961 766.91 106.561 766.9 105.461C766.89 104.361 766.21 102.451 765.38 101.211C764.22 99.4714 762.9 98.9514 759.62 98.9414C757.28 98.9214 753.79 99.5514 751.87 100.341C749.94 101.121 745.44 103.901 741.87 106.521C738.29 109.131 728.13 118.511 719.29 127.361C710.45 136.221 694.45 153.141 683.75 164.961C673.05 176.781 660 191.411 654.75 197.461C649.5 203.511 641.65 212.961 637.29 218.471C632.93 223.981 627.28 231.631 624.72 235.471C622.16 239.311 617.21 247.391 613.72 253.411C610.23 259.441 605.34 266.521 602.87 269.141C599.2 273.041 597.73 273.921 594.87 273.961C592.94 273.981 586.19 272.691 579.87 271.101C573.54 269.511 564.54 266.711 559.87 264.901C554.66 262.871 549.82 260.171 547.37 257.911C545.17 255.891 542.16 251.591 540.67 248.351C539.19 245.111 537.45 239.091 536.81 234.961C536.18 230.841 535.95 224.761 536.31 221.461C536.67 218.161 537.87 211.641 538.97 206.961C540.08 202.281 542.78 194.641 544.99 189.961C547.2 185.281 550.94 178.761 553.3 175.461C555.66 172.161 560.02 166.811 562.98 163.581C565.94 160.341 571.97 155.001 576.37 151.701C580.77 148.411 587.52 143.891 591.37 141.651C595.22 139.421 602.19 135.931 606.87 133.901C611.54 131.871 619.42 128.771 624.37 127.011C629.32 125.251 643.49 120.911 655.87 117.371C668.24 113.841 679.61 110.951 681.12 110.951C682.85 110.961 684.81 109.941 686.4 108.211C687.8 106.701 688.94 105.011 688.94 104.461C688.94 103.911 688.13 102.691 687.15 101.751C685.89 100.541 680.39 99.3014 668.37 97.5114C659.02 96.1114 647.09 94.6814 641.87 94.3214C634.91 93.8514 629.57 94.1414 621.87 95.4314C616.09 96.3914 607.54 98.5214 602.87 100.161C598.19 101.801 590.09 105.381 584.87 108.111C579.64 110.851 571.77 115.651 567.37 118.781C562.97 121.901 554.17 129.641 547.82 135.961C539.63 144.111 534.03 150.811 528.62 158.961C524.42 165.281 519.18 174.281 516.98 178.961C514.79 183.641 512.06 190.391 510.92 193.961C509.79 197.531 508.18 204.281 507.35 208.961C506.53 213.641 505.86 220.391 505.88 223.961C505.89 227.531 506.57 233.611 507.37 237.461C508.18 241.311 510.5 247.841 512.51 251.961C515.24 257.531 518.26 261.551 524.28 267.581C531.16 274.481 533.94 276.461 542.87 280.801C548.64 283.611 557.64 287.001 562.87 288.351C568.09 289.701 575.52 291.111 579.37 291.481C583.22 291.861 586.71 292.341 587.12 292.561C587.53 292.781 585.11 298.471 581.74 305.211C578.38 311.951 573.57 321.061 571.07 325.461C568.56 329.861 563.93 337.281 560.77 341.961C557.61 346.641 551.92 354.061 548.13 358.461C544.35 362.861 537.45 369.511 532.81 373.241C528.17 376.971 520.32 382.011 515.37 384.451C510.42 386.881 502.99 389.741 498.87 390.801C494.74 391.871 487.54 393.051 482.87 393.441C476.78 393.951 471.75 393.701 465.12 392.561C460.03 391.681 452.38 389.631 448.12 388.011C443.21 386.141 438.58 383.491 435.49 380.761C432.8 378.401 429.99 375.221 429.24 373.711C428.48 372.201 427.87 370.061 427.87 368.961C427.87 367.861 428.92 365.721 430.2 364.211C431.49 362.701 434.53 360.631 436.95 359.621C439.38 358.611 447.11 356.251 454.12 354.371C461.13 352.501 468.56 350.121 470.62 349.091C472.68 348.061 475.83 345.581 477.62 343.591C479.41 341.591 481.32 338.271 481.86 336.211C482.41 334.151 482.87 329.531 482.88 325.961C482.89 322.391 482.22 317.441 481.4 314.961C480.58 312.481 478.41 308.661 476.58 306.461C474.67 304.171 470.49 301.061 466.81 299.201C463.27 297.411 457.89 295.441 454.87 294.831C451.81 294.211 445.82 293.961 441.37 294.281C434.8 294.751 432.03 295.521 425.87 298.611C420.83 301.141 416.46 304.351 412.52 308.411C409.31 311.741 405.22 317.391 403.43 320.961C401.64 324.531 399.37 331.061 398.38 335.461C397.06 341.331 396.74 345.591 397.18 351.461C397.5 355.861 398.71 362.161 399.86 365.461C401.01 368.761 403.14 373.481 404.6 375.961C406.05 378.441 409.52 382.861 412.3 385.801C415.09 388.731 420.18 392.891 423.62 395.051C427.06 397.201 433.13 400.261 437.12 401.841C441.11 403.431 448.19 405.661 452.87 406.811C457.54 407.961 465.19 409.361 469.87 409.931C474.54 410.501 485.01 410.961 493.12 410.961C501.23 410.961 512.93 410.301 519.12 409.481C525.31 408.671 534.64 406.931 539.87 405.621C545.09 404.311 554.32 401.151 560.37 398.611C566.42 396.061 576.32 391.031 582.37 387.431C588.42 383.831 597.64 377.651 602.87 373.711C608.09 369.761 617.79 361.121 624.41 354.501C631.46 347.441 638.97 338.731 642.54 333.461C645.89 328.511 651.78 318.841 655.63 311.961C659.47 305.091 665.6 293.501 669.24 286.211C675.47 273.761 676.1 272.891 679.62 271.801C681.68 271.161 688 269.701 693.65 268.551L703.93 266.461C702.98 270.341 700.09 278.661 696.9 287.461C693.7 296.261 689.69 309.091 687.98 315.961C686.27 322.841 684 333.641 682.93 339.961C681.87 346.281 680.52 357.761 679.94 365.461C679.25 374.661 679.2 383.751 679.82 391.961C680.33 398.841 681.46 407.611 682.33 411.461C683.2 415.311 685.12 422.061 686.58 426.461C688.07 430.921 691.35 437.561 693.99 441.461C696.6 445.311 702.25 452.381 706.55 457.161C710.85 461.951 717.97 469.121 722.37 473.111C726.77 477.101 733.97 483.041 738.37 486.311C742.77 489.591 749.74 493.831 753.87 495.751C757.99 497.661 765.42 500.251 770.37 501.501C775.32 502.751 784.09 504.331 789.87 505.011C796.58 505.791 805.97 506.021 815.87 505.621C824.39 505.291 837.22 504.091 844.37 502.971C851.52 501.841 864.12 499.401 872.37 497.541C880.62 495.681 902.22 490.111 920.37 485.171C938.52 480.221 961.69 474.351 971.87 472.121C982.04 469.891 995.09 467.371 1000.87 466.521C1006.64 465.671 1013.06 464.971 1015.12 464.971C1017.18 464.961 1018.88 465.301 1018.9 465.711C1018.92 466.121 1016.61 470.061 1013.76 474.461C1010.92 478.861 1007.08 485.271 1005.23 488.711C1003.02 492.821 1001.87 496.331 1001.87 498.961C1001.87 501.961 1002.37 503.211 1003.87 503.961C1004.97 504.511 1008.12 504.961 1010.87 504.961C1013.62 504.961 1022.06 504.041 1029.62 502.921C1037.18 501.801 1044.68 500.341 1046.29 499.671C1047.9 499.011 1050.6 496.811 1052.29 494.801C1053.98 492.791 1057.62 487.011 1060.37 481.951C1063.12 476.891 1065.98 472.231 1066.73 471.601C1067.75 470.741 1069.24 470.771 1072.73 471.731C1075.28 472.421 1081.19 474.871 1085.87 477.181C1090.54 479.481 1097.74 483.921 1101.87 487.051C1105.99 490.171 1112.07 495.691 1115.37 499.311C1120.69 505.151 1121.79 505.901 1125.12 505.931C1128.28 505.951 1130.49 504.731 1139.12 498.201C1144.76 493.931 1151.17 489.601 1153.37 488.571C1155.57 487.541 1160.29 486.071 1163.87 485.301C1167.44 484.541 1176.89 483.641 1184.87 483.311C1193.6 482.941 1203.74 483.171 1210.37 483.891C1216.42 484.541 1224.52 485.721 1228.37 486.521C1232.22 487.321 1240.09 489.841 1245.87 492.121C1251.64 494.401 1258.39 496.481 1260.87 496.741C1264.15 497.091 1265.84 496.781 1267.12 495.591C1268.08 494.691 1268.87 493.061 1268.87 491.961C1268.87 490.861 1267.58 488.501 1266.01 486.711C1264.44 484.921 1258.71 480.031 1253.26 475.851C1247.82 471.661 1239.99 466.031 1235.87 463.331C1231.74 460.631 1223.87 456.101 1218.37 453.261C1212.87 450.421 1203.19 446.101 1196.87 443.651C1190.54 441.211 1180.42 437.811 1174.37 436.111C1168.32 434.411 1159.99 432.301 1155.87 431.441C1151.74 430.571 1143.64 429.161 1137.87 428.291C1132.05 427.431 1119.94 426.671 1110.7 426.591C1101.54 426.521 1093.76 426.231 1093.42 425.961C1093.08 425.691 1095.18 421.741 1098.09 417.201C1102.89 409.701 1103.6 409.001 1105.87 409.601C1107.24 409.971 1111.74 411.631 1115.87 413.291C1120.23 415.051 1125.88 416.491 1129.37 416.741C1133.08 416.991 1137.86 416.511 1141.87 415.471C1145.44 414.541 1151.74 412.221 1155.87 410.301C1159.99 408.391 1166.29 404.731 1169.87 402.171C1173.44 399.611 1180.36 393.681 1185.24 388.991C1190.12 384.301 1197.73 375.961 1202.16 370.461C1206.58 364.961 1211.81 358.091 1213.78 355.201C1215.76 352.311 1217.5 350.061 1217.66 350.201C1217.83 350.341 1215.82 355.641 1213.21 361.961C1208.92 372.331 1208.45 374.251 1208.41 381.461C1208.38 388.341 1208.8 390.371 1211.42 395.961C1213.09 399.531 1216.47 404.651 1218.92 407.331C1221.37 410.001 1225.17 413.121 1227.37 414.241C1229.96 415.571 1234.01 416.451 1238.87 416.731C1243.98 417.031 1248.44 416.621 1252.87 415.461C1256.44 414.531 1261.17 412.831 1263.37 411.701C1265.57 410.571 1269.62 407.561 1272.37 405.021C1275.12 402.471 1278.16 399.851 1279.12 399.181C1280.67 398.101 1281.21 398.691 1283.87 404.461C1286.05 409.181 1287.9 411.621 1290.62 413.361C1292.68 414.671 1296.17 416.311 1298.37 416.991C1300.78 417.741 1305.35 418.041 1309.87 417.761C1315.09 417.431 1319.49 416.391 1324.37 414.341C1328.22 412.731 1334.52 409.321 1338.37 406.781C1342.22 404.241 1349.61 398.181 1354.8 393.311C1359.98 388.441 1368.09 379.961 1372.83 374.461C1377.56 368.961 1383.27 361.761 1385.51 358.461C1387.75 355.161 1390.62 350.441 1391.87 347.961C1393.22 345.301 1394.32 341.011 1394.56 337.461C1394.82 333.661 1394.48 330.541 1393.65 328.961C1392.76 327.295 1391.33 326.371 1389.35 326.191C1387.71 326.031 1385.74 326.481 1384.97 327.191C1384.2 327.891 1378.12 335.171 1371.47 343.371C1364.81 351.581 1357.34 360.081 1354.87 362.271C1352.39 364.461 1348.34 367.541 1345.87 369.121C1343.39 370.701 1340.81 371.981 1340.12 371.971C1339.28 371.971 1339.06 371.051 1339.47 369.211C1339.79 367.701 1344.15 359.711 1349.15 351.461C1354.15 343.211 1364.98 326.111 1373.2 313.461C1381.43 300.811 1391.47 285.171 1395.52 278.711C1399.56 272.251 1404.89 263.141 1407.37 258.461C1410.09 253.331 1411.67 249.171 1411.37 247.961C1411.07 246.761 1409.57 245.601 1407.62 245.071C1405.5 244.481 1400.88 244.651 1394.37 245.551C1388.87 246.301 1380.77 246.951 1376.37 246.981C1371.97 247.021 1366.34 247.441 1363.87 247.921C1360.98 248.481 1358.83 249.601 1357.87 251.041C1357.04 252.281 1351.05 263.001 1344.54 274.881C1338.04 286.751 1329.76 301.411 1326.14 307.461C1322.52 313.511 1315.29 324.981 1310.08 332.961C1304.87 340.941 1298.54 350.161 1296.02 353.461C1293.51 356.761 1288.95 362.091 1285.91 365.291C1282.86 368.501 1278.79 372.051 1276.87 373.171C1274.66 374.461 1272.54 374.981 1271.12 374.591C1269.54 374.151 1268.51 372.701 1267.67 369.711C1266.74 366.381 1266.75 363.611 1267.73 356.961C1268.41 352.281 1270.47 343.961 1272.3 338.461C1274.13 332.961 1277.99 323.731 1280.88 317.961C1283.78 312.191 1288.71 302.961 1291.85 297.461C1294.99 291.961 1303.04 279.141 1309.72 268.961C1316.41 258.781 1321.88 249.671 1321.87 248.711C1321.87 247.751 1320.63 246.201 1319.12 245.261C1316.74 243.801 1314.81 243.671 1304.87 244.331C1298.54 244.751 1287.87 245.401 1281.16 245.771C1272.3 246.271 1268.56 246.871 1267.52 247.961C1266.74 248.781 1259.19 263.741 1250.74 281.201C1242.29 298.661 1235.24 312.841 1235.08 312.701C1234.92 312.571 1235.54 307.511 1236.46 301.461C1237.52 294.431 1237.9 287.931 1237.51 283.461C1237.13 279.091 1235.96 274.491 1234.39 271.211C1232.68 267.651 1230.34 264.851 1227.12 262.511C1224.51 260.611 1219.67 258.311 1216.37 257.401C1210.91 255.881 1209.79 255.871 1203.87 257.251C1200.29 258.091 1195.68 259.041 1193.62 259.361C1190.19 259.911 1189.79 259.721 1188.95 257.211C1188.45 255.701 1187.1 251.201 1185.95 247.211C1184.49 242.121 1183.05 239.281 1181.12 237.681C1179.61 236.421 1175.44 234.561 1171.87 233.551C1167.09 232.191 1163.72 231.871 1159.12 232.331C1155.68 232.681 1150.51 233.841 1147.62 234.911C1144.73 235.991 1138.99 239.061 1134.87 241.731C1130.74 244.411 1123.21 250.061 1118.12 254.281L1108.87 261.961C1102.67 253.441 1099.41 249.881 1097.62 248.551C1095.83 247.231 1092.34 245.621 1089.87 244.991C1086.51 244.121 1084.1 244.111 1080.37 244.951C1077.62 245.561 1071.99 247.441 1067.87 249.111C1063.74 250.781 1054.97 255.551 1048.37 259.701C1041.77 263.851 1034.92 267.971 1033.14 268.851C1031.37 269.741 1029.67 270.231 1029.36 269.961C1029.05 269.691 1028.35 265.411 1027.81 260.461C1027.27 255.511 1025.97 249.661 1024.92 247.461C1023.87 245.261 1021.18 241.771 1018.94 239.711C1016.4 237.371 1013.46 235.721 1011.12 235.331C1008.77 234.931 1005.41 235.311 1002.12 236.331C999.07 237.281 993.63 240.421 989.12 243.831C984.86 247.061 976.76 254.371 971.12 260.081C965.49 265.791 957.27 274.961 952.87 280.461C948.46 285.961 944.58 291.591 944.23 292.961C943.88 294.341 943.99 296.571 944.48 297.921C944.97 299.271 946.49 301.031 947.87 301.831C950.21 303.191 950.7 303.071 955.37 299.891C958.12 298.021 963.97 293.231 968.37 289.241C972.77 285.251 976.75 282.311 977.2 282.721C977.66 283.131 964.31 310.691 947.53 343.961C930.75 377.231 916.72 406.031 916.37 407.961C915.87 410.651 916.14 411.841 917.54 413.091C919.05 414.441 923 414.851 939.87 415.421C953.77 415.891 961.26 415.771 963.12 415.041C965.24 414.211 966.87 411.841 970.25 404.711C972.66 399.621 979.03 386.011 984.4 374.461C989.77 362.911 996.62 348.961 999.61 343.461C1002.61 337.961 1007.61 329.641 1010.72 324.961C1013.83 320.291 1020.42 312.251 1025.37 307.081C1030.32 301.921 1037.74 294.901 1041.87 291.481C1045.99 288.061 1053.64 282.321 1058.87 278.731C1064.09 275.141 1070.84 270.981 1073.87 269.491C1078.37 267.271 1079.78 266.971 1081.62 267.871C1082.86 268.471 1084.88 268.991 1086.12 269.031C1087.36 269.061 1086.32 269.631 1083.82 270.281C1081.31 270.931 1077.32 272.811 1074.94 274.461C1072.56 276.111 1069.01 279.261 1067.05 281.461C1065.1 283.661 1062.69 287.261 1061.71 289.461C1060.72 291.661 1059.91 295.711 1059.91 298.461C1059.91 301.341 1060.75 305.261 1061.89 307.711C1063.08 310.271 1065.06 312.561 1066.87 313.461C1068.52 314.281 1070.99 314.961 1072.37 314.961C1074.37 314.961 1075.07 315.661 1075.87 318.461C1076.42 320.391 1077.77 322.411 1078.87 322.961C1080.27 323.661 1081.61 323.591 1083.33 322.711C1084.68 322.021 1090.57 315.611 1096.41 308.461C1102.26 301.311 1109.59 292.851 1112.71 289.661C1115.82 286.481 1120.51 282.541 1123.12 280.911C1125.73 279.291 1128.33 278.071 1128.88 278.211C1129.44 278.351 1123.57 289.481 1115.83 302.961C1108.09 316.441 1087.5 351.371 1070.06 380.601L1038.37 433.741C1012.02 439.451 985.02 445.101 961.37 449.981C937.72 454.871 909.37 460.911 898.37 463.401C887.37 465.901 872.07 468.941 864.37 470.151C854.27 471.731 845.91 472.351 834.37 472.351C822.6 472.361 816.58 471.911 811.62 470.661C807.91 469.731 802.06 467.551 798.62 465.831C795.18 464.111 789.67 460.561 786.37 457.951C783.07 455.331 778.32 451.001 775.81 448.331C773.3 445.651 769.09 440.531 766.45 436.961C763.81 433.391 760.07 427.311 758.14 423.461C756.21 419.611 754.05 413.531 753.35 409.961C752.64 406.391 751.8 400.201 751.47 396.211C751.09 391.651 751.24 388.961 751.87 388.961C752.42 388.961 753.73 390.651 754.78 392.711C755.83 394.771 758.2 397.891 760.03 399.641C761.87 401.391 765.84 404.091 768.87 405.641C773.96 408.251 775.22 408.461 785.87 408.461C796.37 408.461 797.89 408.221 803.37 405.661C806.67 404.121 811.12 401.651 813.26 400.161C815.39 398.681 818.43 395.551 820.01 393.211C821.58 390.871 823.32 388.961 823.87 388.961C824.42 388.961 825.56 391.101 826.41 393.711C827.26 396.321 829.06 399.921 830.41 401.711C831.76 403.501 835.23 406.151 838.12 407.601C841.31 409.201 845.73 410.431 849.37 410.741C853.83 411.111 857.04 410.701 861.87 409.121C865.44 407.961 872.19 404.731 876.87 401.931C881.54 399.141 888.74 394.291 892.85 391.161C896.97 388.021 905.46 380.511 911.72 374.461C917.98 368.411 925.66 360.091 928.78 355.961C931.9 351.841 935.99 345.311 937.87 341.461C940.53 336.001 941.29 333.171 941.33 328.621C941.36 323.481 941.04 322.501 938.62 320.371C936.87 318.841 935.23 318.191 934.12 318.601C933.16 318.961 930.86 320.651 929 322.351C927.15 324.061 922.14 329.961 917.88 335.461C913.61 340.961 908.11 347.711 905.66 350.461C903.21 353.211 898.77 357.101 895.79 359.121C892.81 361.131 889.13 363.041 887.62 363.371C886.11 363.691 884.87 363.731 884.87 363.461C884.87 363.191 899.56 339.001 917.52 309.711C935.47 280.421 950.79 254.661 951.57 252.461C952.34 250.261 953.07 246.341 953.17 243.741C953.31 240.351 952.87 238.521 951.58 237.241C950.01 235.681 947.8 235.461 933.58 235.461C921.49 235.461 916.73 235.821 914.87 236.871C913.49 237.641 911.81 239.111 911.12 240.121C910.43 241.131 908.74 241.961 907.37 241.961C905.99 241.961 901.16 240.351 896.62 238.381C892.08 236.401 886.12 234.561 883.37 234.281C880.4 233.971 875.53 234.441 871.37 235.421C867.52 236.321 860.99 238.531 856.87 240.311C852.74 242.091 845.32 246.181 840.37 249.381C835.42 252.591 827.54 258.191 822.87 261.831C818.19 265.471 809.41 273.401 803.34 279.451C797.28 285.511 788.72 294.961 784.32 300.461C779.92 305.961 773.64 314.491 770.35 319.421C767.06 324.351 762.01 333.131 759.13 338.921C756.25 344.721 753.88 348.561 753.88 347.461C753.88 346.361 755.26 339.611 756.95 332.461C758.63 325.311 761.52 313.161 763.37 305.461C765.21 297.761 768.15 286.961 769.91 281.461C771.67 275.961 774.97 267.191 777.25 261.961C779.53 256.731 782.78 250.661 784.48 248.461C786.36 246.031 790.28 243.021 794.47 240.791C798.27 238.771 811.27 233.001 823.37 227.971C835.47 222.941 849.87 216.781 855.37 214.271C860.87 211.761 870.99 206.561 877.87 202.711C884.74 198.871 895.54 192.201 901.87 187.891C908.19 183.591 916.74 177.071 920.87 173.411C924.99 169.751 930.57 164.211 933.26 161.111C935.96 158.001 939.53 153.441 941.21 150.961C942.88 148.491 945.5 143.761 947.03 140.461C948.55 137.161 950.54 131.531 951.45 127.961C952.59 123.471 952.97 118.841 952.67 112.961C952.4 107.721 951.59 103.211 950.55 101.211C949.63 99.4214 946.51 95.7114 943.62 92.9614C940.73 90.2114 936.34 86.8714 933.87 85.5214C931.39 84.1814 926.67 82.3814 923.37 81.5214C920.07 80.6614 913.99 80.0014 909.87 80.0614C905.74 80.1114 899.67 80.7614 896.37 81.4914ZM897.12 95.4714C900.01 94.6414 904.84 94.1214 907.87 94.3114C911.26 94.5114 915.06 95.5714 917.78 97.0514C920.21 98.3814 923.04 100.591 924.07 101.961C925.55 103.921 925.95 106.181 925.94 112.461C925.94 116.961 925.22 122.861 924.29 125.961C923.39 128.991 921.63 133.491 920.38 135.961C919.14 138.431 915.42 144.061 912.13 148.461C908.84 152.861 902.82 159.551 898.76 163.331C894.69 167.121 886.42 173.921 880.37 178.461C874.32 183.001 864.42 189.831 858.37 193.641C852.32 197.441 843.32 202.871 838.37 205.701C833.42 208.521 825.09 212.841 819.87 215.291C814.64 217.731 807.44 220.701 803.87 221.871C800.29 223.051 797.14 223.741 796.87 223.411C796.59 223.071 799.74 216.201 803.86 208.131C807.98 200.061 815.21 186.711 819.92 178.461C824.64 170.211 831.36 159.191 834.86 153.961C838.35 148.741 843.92 140.861 847.22 136.461C850.53 132.061 857.31 124.251 862.3 119.111C867.29 113.961 874.07 107.831 877.37 105.481C880.67 103.131 885.28 100.251 887.62 99.0814C889.96 97.9114 894.23 96.2914 897.12 95.4714ZM884.87 256.291C886.79 255.611 889.72 255.011 891.37 254.971C893.02 254.931 895.61 255.811 897.12 256.931C898.67 258.071 899.88 259.941 899.9 261.211C899.92 262.451 898.41 265.481 896.55 267.961C894.68 270.441 889.2 278.981 884.37 286.961C879.53 294.941 871.3 307.981 866.08 315.961C860.86 323.941 853.33 334.731 849.35 339.961C845.37 345.191 839.47 352.431 836.24 356.071C833.01 359.701 829.02 363.801 827.37 365.181C825.72 366.551 822.91 368.421 821.12 369.321C819.33 370.221 816.74 370.961 815.37 370.961C813.99 370.961 811.96 369.951 810.85 368.711C809.36 367.051 808.84 365.091 808.85 361.211C808.86 358.311 810.02 352.501 811.44 348.211C812.85 343.951 816.03 336.191 818.51 330.961C820.99 325.731 825.53 317.861 828.61 313.461C831.69 309.061 837.61 301.191 841.77 295.961C845.92 290.731 854.28 281.471 860.35 275.361C866.41 269.261 873.62 262.751 876.37 260.901C879.12 259.051 882.94 256.981 884.87 256.291ZM1179.45 278.211C1181.7 275.871 1184.28 273.961 1185.2 273.961C1186.12 273.961 1187.93 274.971 1189.22 276.211C1190.69 277.621 1192.04 280.691 1192.85 284.461C1193.65 288.241 1193.89 293.331 1193.5 298.211C1193.15 302.471 1191.71 309.451 1190.3 313.711C1188.88 317.971 1185.27 326.191 1182.26 331.961C1179.26 337.731 1174 346.371 1170.58 351.141C1167.17 355.921 1160.77 363.971 1156.37 369.041C1151.97 374.111 1144.99 380.951 1140.87 384.241C1136.74 387.521 1131.34 391.371 1128.87 392.781C1126.39 394.201 1122.79 395.681 1120.87 396.091C1118.81 396.521 1116.55 396.371 1115.37 395.741C1114.27 395.151 1113.04 394.171 1112.64 393.561C1112.23 392.961 1111.9 391.341 1111.91 389.961C1111.91 388.591 1113.87 383.641 1116.25 378.961C1118.64 374.291 1126.11 361.461 1132.87 350.461C1139.62 339.461 1151.95 319.661 1160.26 306.461C1168.57 293.261 1177.2 280.551 1179.45 278.211ZM1929.37 108.491C1928.82 108.721 1879.99 111.861 1820.87 115.461C1761.74 119.071 1700.09 122.901 1683.87 123.981C1667.64 125.061 1648.97 125.951 1642.37 125.951C1633.34 125.941 1629.81 126.321 1628.12 127.451C1626.71 128.391 1625.16 131.301 1623.97 135.211C1622.93 138.651 1620.65 147.311 1618.91 154.461C1617.17 161.611 1614.16 172.411 1612.24 178.461C1610.32 184.511 1608.88 190.811 1609.06 192.461C1609.35 195.311 1609.66 195.501 1615.37 196.301C1618.97 196.811 1627.38 196.711 1636.37 196.051C1644.62 195.441 1657.33 194.951 1664.62 194.951C1676.28 194.961 1677.96 195.171 1678.62 196.711C1679.03 197.671 1679.3 205.661 1679.21 214.461C1679.13 223.261 1678.79 266.691 1678.45 310.961C1678.12 355.851 1677.43 393.011 1676.91 394.961C1676.05 398.181 1675.58 398.521 1671.17 399.221C1668.53 399.631 1663.11 399.971 1659.12 399.971C1655.13 399.961 1648.72 399.511 1644.87 398.961C1640.2 398.295 1637.2 398.295 1635.87 398.961C1633.91 399.941 1633.87 400.951 1633.88 446.711C1633.89 472.421 1634.13 494.361 1634.41 495.461C1634.78 496.881 1636.16 497.691 1639.15 498.251C1641.68 498.721 1649.79 498.431 1659.37 497.521C1668.17 496.691 1722.39 493.521 1779.87 490.481C1837.34 487.441 1895.06 484.281 1908.12 483.461C1921.18 482.631 1936.93 481.981 1943.12 482.001C1952.43 482.041 1954.63 481.761 1955.87 480.371C1957.17 478.911 1957.21 477.301 1956.12 468.071C1955.44 462.241 1954.87 447.111 1954.87 434.461C1954.87 421.811 1955.53 402.691 1956.34 391.961C1957.15 381.231 1958.72 365.151 1959.84 356.211C1960.96 347.271 1961.64 338.841 1961.37 337.461C1961 335.631 1960 334.761 1957.62 334.211C1955.83 333.801 1946.62 333.461 1937.16 333.461C1921.96 333.461 1919.73 333.671 1918.16 335.251C1916.62 336.781 1916.35 339.061 1916.23 351.251C1916.15 359.061 1915.34 370.411 1914.42 376.461C1913.51 382.511 1911.89 391.401 1910.82 396.211L1908.87 404.961C1900.73 405.761 1886.67 406.431 1872.37 406.971C1858.07 407.521 1836.24 407.961 1823.87 407.951C1811.49 407.951 1793.94 407.491 1784.87 406.931C1775.79 406.361 1761.62 405.241 1753.37 404.431C1745.12 403.611 1735.56 402.951 1732.12 402.951C1728.06 402.961 1725.69 402.521 1725.35 401.711C1725.07 401.021 1726.77 383.591 1729.14 362.961L1733.44 325.461C1777.56 325.471 1802.74 325.881 1817.87 326.381C1832.99 326.881 1846.61 326.991 1848.12 326.621C1849.63 326.261 1851.32 325.061 1851.87 323.961C1852.42 322.861 1853.05 316.451 1853.27 309.711C1853.49 302.971 1854 293.411 1854.42 288.461C1854.97 281.761 1854.83 278.821 1853.86 276.961L1852.55 274.461C1832.26 275.701 1808.82 276.931 1787.37 278.001C1765.92 279.071 1745.89 280.191 1742.87 280.501C1739.84 280.811 1736.85 280.701 1736.22 280.261C1735.36 279.671 1736.27 268.901 1739.72 238.761C1743.16 208.621 1744.75 197.741 1745.84 196.821C1746.96 195.881 1764.83 195.461 1821.59 195.031C1895.38 194.461 1895.87 194.471 1895.94 196.461C1895.97 197.561 1896.53 210.701 1897.19 225.661C1897.84 240.621 1898.82 253.341 1899.37 253.941C1900 254.631 1907.18 255.101 1918.97 255.241C1934.3 255.421 1937.86 255.201 1939.26 253.961C1940.81 252.601 1940.96 248.811 1940.94 211.961C1940.93 189.691 1941.34 164.491 1941.86 155.961C1942.37 147.441 1943.56 133.941 1944.49 125.961C1945.64 116.031 1945.86 110.991 1945.17 109.961C1944.46 108.911 1942.11 108.401 1937.27 108.271C1933.47 108.161 1929.92 108.261 1929.37 108.491ZM1526.37 121.051C1521.54 121.741 1519.88 122.481 1517.87 124.841C1516.49 126.451 1509.45 138.051 1502.2 150.621C1494.96 163.181 1479.83 189.891 1468.58 209.961C1457.33 230.041 1442.19 256.591 1434.93 268.961C1427.67 281.341 1418.2 298.661 1413.89 307.461C1409.57 316.261 1404.16 328.641 1401.86 334.961C1399.56 341.291 1396.1 352.541 1394.17 359.961C1391.45 370.391 1390.53 376.191 1390.13 385.461C1389.73 394.621 1389.97 398.761 1391.17 402.961C1392.03 405.981 1394.27 410.711 1396.14 413.461C1398.63 417.121 1401.2 419.331 1405.71 421.711C1410.68 424.331 1413.03 424.961 1417.87 424.961C1421.63 424.961 1426.02 424.141 1429.62 422.771C1432.78 421.561 1438.74 418.311 1442.87 415.531C1446.99 412.751 1456.01 404.851 1462.9 397.971C1469.79 391.091 1478.96 381.411 1483.27 376.461C1487.58 371.511 1493.17 364.541 1495.69 360.961C1498.7 356.681 1500.42 353.101 1500.72 350.461C1501.09 347.211 1500.73 346.021 1498.77 344.081C1496.86 342.181 1495.75 341.831 1493.37 342.371C1491.72 342.751 1488.34 344.721 1485.87 346.761C1483.39 348.791 1474.82 356.761 1466.81 364.461C1458.81 372.161 1450.63 379.361 1448.65 380.461C1445.43 382.241 1444.86 382.301 1443.43 380.961C1442.54 380.141 1441.42 377.441 1440.93 374.961C1440.4 372.291 1440.41 368.121 1440.95 364.711C1441.46 361.551 1442.93 356.151 1444.23 352.711C1445.53 349.271 1448.18 343.311 1450.12 339.461C1452.07 335.611 1458.2 324.701 1463.76 315.211C1469.32 305.721 1475.18 295.151 1476.77 291.711C1478.37 288.271 1489.79 267.911 1502.15 246.461L1524.62 207.461C1558.44 206.571 1562.96 206.131 1564.37 204.961C1565.37 204.141 1566.79 202.001 1567.52 200.211C1568.26 198.421 1568.87 195.391 1568.87 193.461C1568.87 191.541 1568.42 189.061 1567.87 187.961C1566.94 186.101 1565.87 185.961 1552.87 185.961H1538.87C1545.26 173.171 1550.51 163.611 1554.67 156.461C1558.82 149.311 1564.22 139.411 1566.66 134.461C1569.33 129.051 1570.85 124.761 1570.48 123.711C1570.15 122.751 1568.74 121.511 1567.37 120.961C1565.99 120.411 1557.56 120.011 1548.62 120.081C1539.68 120.151 1529.67 120.591 1526.37 121.051ZM2069.87 164.491C2065.74 165.231 2061.13 166.321 2059.62 166.901C2058.11 167.481 2056.49 168.971 2056.03 170.211C2055.56 171.451 2052.52 189.501 2049.28 210.341C2043.49 247.441 2043.32 248.231 2040.87 249.171C2039.41 249.741 2033.57 249.861 2026.87 249.481C2020.54 249.121 2012.44 248.401 2008.87 247.891C2004.25 247.221 2002.08 247.281 2001.37 248.071C2000.82 248.691 1999.82 250.831 1999.14 252.831C1998.46 254.821 1997.45 262.091 1996.9 268.961C1996.34 275.841 1995.8 286.191 1995.69 291.961C1995.56 298.551 1995.93 303.301 1996.68 304.711C1997.39 306.051 1999.39 307.331 2001.62 307.881C2003.68 308.391 2011.22 309.291 2018.37 309.881C2026.66 310.571 2032.19 311.501 2033.62 312.461C2035.69 313.841 2035.82 314.491 2035.29 320.711C2034.97 324.421 2034.09 332.861 2033.34 339.461C2032.58 346.061 2031.38 357.761 2030.67 365.461C2029.96 373.161 2029.38 391.391 2029.38 405.961C2029.38 423.501 2029.82 435.001 2030.7 439.961C2031.42 444.091 2033.14 451.731 2034.5 456.961C2035.87 462.191 2038.87 470.061 2041.18 474.461C2043.74 479.351 2047.7 484.831 2051.37 488.571C2054.93 492.191 2059.92 495.961 2063.62 497.821C2067.06 499.551 2072.46 501.641 2075.62 502.471C2078.78 503.291 2084.97 503.971 2089.37 503.981C2093.77 503.981 2101.19 503.261 2105.87 502.371C2110.54 501.481 2118.87 499.201 2124.37 497.311C2129.87 495.411 2139.77 491.221 2146.37 487.991C2152.97 484.761 2162.42 479.391 2167.37 476.051C2172.32 472.711 2178.36 468.291 2180.8 466.221C2183.24 464.151 2185.83 461.001 2186.55 459.211C2187.52 456.831 2187.87 449.341 2187.89 431.211C2187.9 412.551 2187.59 406.151 2186.64 405.191C2185.94 404.501 2183.34 403.941 2180.87 403.961C2178.39 403.971 2172.09 405.261 2166.87 406.821C2161.64 408.381 2151.97 411.341 2145.37 413.391C2138.77 415.441 2129.54 417.601 2124.87 418.191C2118.67 418.961 2114.88 418.951 2110.87 418.121C2107.54 417.431 2103.2 415.491 2099.87 413.201C2096.71 411.021 2092.8 407.081 2090.69 403.931C2088.67 400.921 2086.09 395.311 2084.95 391.461C2083.81 387.611 2082.44 380.191 2081.89 374.961C2081.35 369.731 2080.9 361.751 2080.89 357.211C2080.88 352.671 2081.57 341.201 2082.42 331.711C2083.67 317.871 2084.31 314.211 2085.67 313.191C2086.97 312.221 2096.37 311.931 2126.05 311.941C2159.08 311.961 2164.96 311.741 2166.3 310.461C2167.16 309.641 2168.31 307.271 2168.86 305.211C2169.4 303.151 2170.3 296.731 2170.85 290.961C2171.4 285.191 2173.18 272.361 2174.79 262.461C2176.77 250.381 2177.43 243.881 2176.8 242.711C2176.29 241.751 2175.08 240.721 2174.12 240.431C2173.16 240.151 2166.74 240.381 2159.87 240.951C2152.99 241.531 2141.74 242.681 2134.87 243.511C2127.99 244.341 2114.98 245.341 2105.96 245.741L2089.55 246.461C2090.46 224.761 2091.85 210.361 2093.23 200.461C2094.61 190.561 2096.03 179.761 2096.37 176.461C2096.76 172.791 2096.56 169.291 2095.86 167.461C2095.23 165.811 2094.19 164.131 2093.54 163.731C2092.9 163.321 2088.99 163.021 2084.87 163.071C2080.74 163.111 2073.99 163.751 2069.87 164.491ZM1517.87 271.161C1516.75 272.121 1516.51 276.171 1516.67 291.661C1516.78 302.281 1517.09 311.641 1517.37 312.461C1517.8 313.761 1523.48 313.961 1560.37 313.961H1602.87C1604.42 310.091 1604.87 301.311 1604.87 291.961C1604.87 282.611 1604.42 273.841 1603.87 272.461L1602.87 269.961C1530 269.961 1518.91 270.271 1517.87 271.161ZM1903.4 282.921C1888.67 283.451 1888.4 283.501 1887.16 285.961C1886.47 287.341 1885.9 291.161 1885.89 294.461C1885.89 297.761 1886.33 302.151 1886.88 304.211C1887.42 306.271 1888.21 308.161 1888.62 308.401C1889.03 308.641 1906.92 308.151 1928.37 307.321C1949.82 306.481 1967.73 305.491 1968.18 305.131C1968.63 304.761 1969.25 301.311 1969.57 297.461C1969.91 293.341 1969.68 289.021 1969.02 286.961L1967.89 283.461C1951.21 282.291 1940.07 282.051 1932.37 282.171C1924.67 282.281 1911.63 282.621 1903.4 282.921ZM1612.87 660.991C1592.79 661.431 1557.24 662.291 1533.87 662.901C1510.49 663.511 1468.87 664.681 1441.37 665.491C1413.87 666.311 1362.34 667.871 1326.87 668.961C1291.39 670.051 1238.07 671.611 1208.37 672.431C1178.67 673.251 1131.19 674.361 1102.87 674.901C1074.54 675.451 1028.87 676.171 1001.37 676.501C973.87 676.841 938.09 677.461 921.87 677.871C894.17 678.581 892.14 678.761 888.62 680.791C885.21 682.761 884.87 683.341 884.89 687.211C884.9 689.551 887.77 735.341 891.27 788.961L897.63 886.461C894.09 914.361 892.08 928.311 890.88 935.461C889.69 942.611 887.38 954.981 885.75 962.961C884.12 970.941 881.42 982.631 879.75 988.961C878.09 995.291 874.9 1006.09 872.67 1012.96C870.45 1019.84 866.84 1029.96 864.66 1035.46C862.47 1040.96 857.59 1051.54 853.82 1058.96C850.04 1066.38 844.33 1076.51 841.12 1081.46C837.91 1086.41 832.82 1092.93 829.79 1095.96C826.76 1098.99 822.06 1102.67 819.33 1104.15C816.6 1105.63 811.44 1107.54 807.87 1108.39C804.29 1109.24 798.67 1109.93 795.37 1109.94C792.07 1109.94 784.87 1109.27 779.37 1108.45C773.87 1107.64 762.84 1105.37 754.87 1103.42C746.89 1101.47 735.87 1098.51 730.37 1096.84C724.87 1095.17 707.54 1089.61 691.87 1084.47C676.19 1079.34 658.87 1073.76 653.37 1072.07C647.87 1070.37 637.97 1067.63 631.37 1065.97C624.77 1064.3 614.42 1062.08 608.37 1061.02C602.32 1059.96 591.29 1058.41 583.87 1057.56C576.44 1056.72 563.62 1055.46 555.37 1054.75C545.64 1053.92 523.17 1053.5 491.37 1053.53C456.03 1053.58 435.54 1054.07 417.87 1055.29C404.39 1056.23 383.92 1057.92 372.37 1059.04C360.82 1060.16 347.99 1061.78 343.87 1062.62C339.74 1063.47 334.12 1064.99 331.37 1066.01C328.62 1067.03 325.47 1068.81 324.37 1069.97C322.81 1071.62 322.61 1072.45 323.46 1073.77C324.07 1074.7 325.87 1076.38 327.46 1077.51C329.23 1078.76 333.51 1080.02 338.37 1080.74C342.77 1081.39 351.99 1082.37 358.87 1082.92C365.74 1083.47 386.22 1084.6 404.37 1085.43C422.52 1086.25 441.19 1087.17 445.87 1087.46C450.54 1087.74 461.12 1088.43 469.37 1088.98C477.62 1089.54 489.77 1090.44 496.37 1090.99C502.97 1091.54 511.07 1092.22 514.37 1092.52C517.67 1092.81 521.94 1093.24 523.87 1093.47C525.79 1093.7 531.19 1094.36 535.87 1094.94C540.54 1095.52 545.94 1096.18 547.87 1096.42C549.79 1096.65 557.67 1097.79 565.37 1098.95C573.07 1100.11 588.14 1102.81 598.87 1104.95C609.59 1107.1 625.34 1110.7 633.87 1112.96C642.39 1115.21 655.44 1119.12 662.87 1121.64C670.29 1124.16 681.09 1128.24 686.87 1130.69C692.64 1133.15 702.32 1137.68 708.37 1140.77C714.42 1143.86 723.19 1148.93 727.87 1152.04C732.54 1155.15 738.58 1160.12 741.27 1163.08C743.97 1166.04 747.56 1171.38 749.25 1174.96C752 1180.78 752.36 1182.59 752.6 1192.21L752.87 1202.96C748.61 1202.92 743.32 1201.29 738.37 1199.3C733.42 1197.31 721.38 1191.7 711.62 1186.82C699.91 1180.97 688.34 1176.12 677.62 1172.54C668.68 1169.56 653.27 1165.09 643.37 1162.62C633.47 1160.14 619.29 1156.97 611.87 1155.57C604.44 1154.17 590.49 1151.9 580.87 1150.53C571.24 1149.17 556.62 1147.37 548.37 1146.55C540.12 1145.72 530.22 1144.8 526.37 1144.49C522.52 1144.19 513.07 1143.51 505.37 1142.98C497.67 1142.46 476.74 1141.51 458.87 1140.88C436.87 1140.1 398.26 1139.95 339.37 1140.41C255.66 1141.06 252.11 1141.16 245.37 1143.13C241.52 1144.26 236.79 1145.99 234.87 1146.98C232.94 1147.96 230.38 1149.82 229.18 1151.11C227.97 1152.4 226.28 1155.15 225.43 1157.21C224.57 1159.27 223.87 1163.43 223.87 1166.46C223.87 1169.49 224.81 1174.77 225.96 1178.21C227.1 1181.65 229.01 1186.03 230.21 1187.95C231.4 1189.86 234.39 1193.77 236.87 1196.63C239.34 1199.49 244.52 1204.44 248.38 1207.64C252.23 1210.84 259.65 1216.21 264.88 1219.58C270.1 1222.94 282.02 1230.09 291.37 1235.47C300.72 1240.84 315.12 1248.75 323.37 1253.04C331.62 1257.33 343.99 1263.28 350.87 1266.27C357.74 1269.26 368.32 1273.31 374.37 1275.26C380.42 1277.22 391.67 1280.44 399.37 1282.43C407.07 1284.42 419.22 1287.12 426.37 1288.43C433.52 1289.75 444.99 1291.36 451.87 1292.02C459.57 1292.76 470.71 1292.99 480.87 1292.62C489.94 1292.28 502.54 1291.3 508.87 1290.43C515.19 1289.56 528.24 1287.27 537.87 1285.34C547.49 1283.4 559.87 1280.76 565.37 1279.47C570.87 1278.18 583.02 1274.6 592.37 1271.51C601.72 1268.43 618.37 1263.68 629.37 1260.96C640.37 1258.23 656.12 1254.88 664.37 1253.51C672.62 1252.14 685.89 1250.32 693.87 1249.48C701.84 1248.64 717.59 1247.66 728.87 1247.31L749.37 1246.67C755.44 1260.23 759.41 1273.27 763.43 1288.96C767.03 1302.99 772.9 1325.26 776.49 1338.46C780.07 1351.66 785.95 1372.36 789.56 1384.46C793.16 1396.56 800.16 1418.38 805.11 1432.96C810.07 1447.54 818.16 1469.59 823.11 1481.96C828.06 1494.34 835.94 1512.79 840.61 1522.96C845.29 1533.13 855.19 1553.61 862.61 1568.46C870.03 1583.31 880.83 1604.46 886.62 1615.46C892.4 1626.46 904.11 1648.29 912.64 1663.96C921.18 1679.63 939.28 1712.26 952.87 1736.46C966.46 1760.66 983.1 1790.81 989.86 1803.46C996.62 1816.11 1004.9 1830.87 1008.26 1836.27C1011.62 1841.66 1016.29 1848.41 1018.64 1851.27C1020.99 1854.12 1024.02 1857.13 1025.37 1857.96C1027.64 1859.34 1028.24 1859.26 1033.1 1856.82C1036 1855.37 1048.04 1847.55 1059.87 1839.45C1071.69 1831.36 1083.17 1823.68 1085.37 1822.4C1087.57 1821.12 1095.78 1817.57 1103.62 1814.52C1111.46 1811.46 1121.02 1807.38 1124.87 1805.46C1128.72 1803.54 1133.92 1800.05 1136.42 1797.71C1139.39 1794.93 1141.46 1791.9 1142.38 1788.96C1143.16 1786.49 1144.27 1781.54 1144.85 1777.96C1145.42 1774.38 1146.11 1765.16 1146.37 1757.46C1146.64 1749.76 1147.06 1736.04 1147.33 1726.96C1147.62 1716.84 1148.99 1701.57 1150.87 1687.46C1152.57 1674.81 1155.93 1651.18 1158.36 1634.96C1160.79 1618.74 1163.9 1597.13 1165.27 1586.96C1166.65 1576.79 1168.33 1563.96 1169.01 1558.46C1169.68 1552.96 1170.27 1537.66 1170.3 1524.46C1170.36 1503.79 1170.61 1499.94 1172.12 1496.71C1173.08 1494.65 1174.88 1492.45 1176.12 1491.84C1177.73 1491.03 1179.36 1491.01 1181.87 1491.77C1183.79 1492.34 1185.88 1493.41 1186.51 1494.14C1187.14 1494.87 1188.83 1505.13 1190.26 1516.96C1191.69 1528.79 1193.52 1545.21 1194.32 1553.46C1195.13 1561.71 1196.48 1577.01 1197.33 1587.46C1198.18 1597.91 1199.54 1615.68 1200.36 1626.96C1201.19 1638.24 1202.3 1667.26 1202.85 1691.46C1203.39 1715.66 1204.3 1741.09 1204.86 1747.96C1205.43 1754.84 1206.58 1765.41 1207.42 1771.46C1208.26 1777.51 1209.6 1784.82 1210.41 1787.71C1211.57 1791.87 1212.86 1793.79 1216.62 1796.97C1220.2 1799.99 1223.21 1801.45 1228.87 1802.91C1232.99 1803.96 1243.57 1805.96 1252.37 1807.35C1261.17 1808.74 1274.67 1810.55 1282.37 1811.38C1290.07 1812.21 1303.34 1813.41 1311.87 1814.04C1321.68 1814.77 1341.32 1815.01 1365.37 1814.68C1390.79 1814.34 1408.17 1813.63 1417.87 1812.54C1425.84 1811.64 1439.57 1809.79 1448.37 1808.44C1457.17 1807.08 1471.79 1804.15 1480.87 1801.92C1489.94 1799.69 1505.92 1795.39 1516.37 1792.36C1526.82 1789.33 1536.72 1786.06 1538.37 1785.09C1540.02 1784.12 1542.14 1782.01 1543.08 1780.39C1544.02 1778.78 1545.26 1774.31 1545.85 1770.46C1546.43 1766.61 1547.14 1752.88 1547.43 1739.96C1547.73 1726.84 1547.34 1701 1546.57 1681.46C1545.75 1660.77 1545.37 1633.17 1545.64 1613.96C1545.9 1596.09 1546.62 1562.37 1547.24 1539.04C1548.1 1506.73 1548.67 1496.54 1549.62 1496.29C1550.31 1496.11 1550.87 1496.52 1550.86 1497.21C1550.86 1497.9 1551.79 1500.26 1552.93 1502.46C1554.07 1504.66 1556.3 1513.21 1557.88 1521.46C1559.46 1529.71 1562.16 1543.66 1563.88 1552.46C1565.61 1561.26 1569.21 1578.59 1571.88 1590.96C1574.55 1603.34 1579.44 1624.93 1582.75 1638.96C1586.07 1652.99 1595.28 1690.34 1603.22 1721.96L1617.67 1779.46C1627.89 1787.21 1636.36 1792.61 1643.1 1796.46C1649.83 1800.31 1660.74 1805.78 1667.35 1808.61C1673.96 1811.44 1684.32 1815.41 1690.37 1817.43C1696.42 1819.46 1706.77 1822.4 1713.37 1823.97C1719.97 1825.54 1726.83 1827.08 1728.62 1827.39C1731.48 1827.89 1732.36 1827.44 1735.94 1823.71C1738.17 1821.37 1741.96 1815.63 1744.36 1810.96C1746.76 1806.29 1750.37 1798.63 1752.39 1793.96C1754.4 1789.29 1760.24 1774.66 1765.35 1761.46C1770.46 1748.26 1784.86 1713.84 1797.36 1684.96C1809.86 1656.09 1824.36 1622.34 1829.57 1609.96C1834.79 1597.59 1843.92 1575.31 1849.86 1560.46C1855.8 1545.61 1863.14 1526.93 1866.16 1518.96C1869.18 1510.99 1875.04 1495.01 1879.17 1483.46C1883.3 1471.91 1889.69 1453.01 1893.36 1441.46C1897.03 1429.91 1902.02 1412.7 1904.45 1403.21C1906.88 1393.72 1910.86 1376.17 1913.29 1364.21C1915.73 1352.25 1921.81 1318.16 1926.82 1288.46C1931.82 1258.76 1936.92 1229.51 1938.14 1223.46C1940.29 1212.85 1940.46 1212.47 1942.87 1212.7C1944.24 1212.83 1978.22 1216.53 2018.37 1220.93C2058.52 1225.33 2102.39 1229.82 2115.87 1230.91C2129.34 1232 2152.07 1233.43 2166.37 1234.09C2186.38 1235.01 2196.98 1235.01 2212.37 1234.11C2223.37 1233.47 2238.22 1232.08 2245.37 1231.03C2252.52 1229.97 2263.32 1227.98 2269.37 1226.61C2275.42 1225.23 2286.89 1221.99 2294.87 1219.41C2302.84 1216.84 2315.44 1212.06 2322.87 1208.8C2330.29 1205.55 2341.77 1199.93 2348.37 1196.32C2354.97 1192.71 2364.19 1187.26 2368.87 1184.22C2373.54 1181.18 2381.64 1175.49 2386.85 1171.58C2392.06 1167.66 2400.84 1159.95 2406.35 1154.44C2411.86 1148.93 2418.69 1141.05 2421.53 1136.94C2424.37 1132.83 2428.07 1126.54 2429.75 1122.96C2431.42 1119.38 2433.49 1113.76 2434.34 1110.46C2435.19 1107.16 2435.89 1101.09 2435.91 1096.96C2435.93 1090.3 2435.65 1089.15 2433.4 1086.71C2432.01 1085.2 2428.62 1082.84 2425.87 1081.46C2423.12 1080.09 2417.16 1078.07 2412.62 1076.98C2407.4 1075.73 2397.76 1074.65 2386.37 1074.05C2376.47 1073.52 2361.84 1073.29 2353.87 1073.54C2345.89 1073.78 2332.84 1074.44 2324.87 1075.01C2316.89 1075.57 2300.47 1077.14 2288.37 1078.49C2276.27 1079.84 2248.59 1083.4 2226.87 1086.4C2205.14 1089.4 2179.49 1092.75 2169.87 1093.86C2160.24 1094.96 2145.84 1096.36 2137.87 1096.97L2123.37 1098.08C1978.83 1143.71 1936.19 1156.96 1935.37 1156.96C1934.54 1156.96 1933.42 1156.06 1932.87 1154.96C1932.19 1153.6 1932.23 1151.76 1932.99 1149.21C1933.61 1147.15 1936.63 1141.63 1939.7 1136.96C1942.89 1132.12 1949.83 1123.92 1955.83 1117.92C1962.12 1111.63 1970.2 1104.83 1975.87 1101.05C1981.09 1097.57 1989.19 1092.81 1993.87 1090.47C1998.54 1088.14 2006.42 1084.62 2011.37 1082.65C2016.32 1080.69 2026.44 1077.26 2033.87 1075.03C2041.29 1072.8 2058.84 1068.26 2072.87 1064.93C2095.21 1059.64 2100.23 1058.07 2113.37 1052.29C2121.62 1048.67 2132.42 1044.67 2137.37 1043.42C2142.32 1042.16 2151.09 1040.43 2156.87 1039.58C2162.64 1038.72 2178.39 1037.09 2191.87 1035.95C2205.34 1034.8 2227.17 1032.33 2240.37 1030.45C2253.57 1028.57 2270.67 1025.88 2278.37 1024.47C2290.85 1022.2 2292.61 1021.62 2294.62 1019.19C2296.05 1017.44 2296.86 1015.11 2296.87 1012.71C2296.87 1009.98 2296.12 1008.18 2294.12 1006.09C2292.5 1004.39 2289.11 1002.55 2285.87 1001.61C2282.84 1000.72 2276.32 999.551 2271.37 998.991C2266.42 998.431 2250.44 997.971 2235.87 997.971C2221.29 997.971 2203.07 998.431 2195.37 998.991C2187.67 999.551 2174.62 1000.7 2166.37 1001.54C2158.12 1002.37 2143.04 1004.17 2132.87 1005.54C2122.69 1006.9 2106.04 1009.38 2095.87 1011.04C2085.69 1012.71 2067.24 1016.1 2054.87 1018.58C2042.49 1021.06 2021.12 1025.94 2007.37 1029.42C1993.62 1032.91 1973.37 1038.73 1962.37 1042.37C1945.45 1047.97 1939.36 1050.58 1922.87 1059.31C1912.14 1064.98 1899.54 1071.26 1894.87 1073.26C1890.19 1075.26 1882.77 1077.84 1878.37 1079C1872.78 1080.47 1868.71 1080.94 1864.87 1080.57C1861.84 1080.28 1857.82 1079.46 1855.92 1078.75C1853.46 1077.83 1849.38 1073.76 1841.61 1064.46C1835.64 1057.31 1827.88 1047.18 1824.37 1041.96C1820.85 1036.74 1814.89 1026.38 1811.11 1018.96C1807.33 1011.54 1801.38 998.711 1797.89 990.461C1794.4 982.211 1789.42 969.841 1786.83 962.961C1784.23 956.091 1779.33 941.911 1775.93 931.461C1772.53 921.011 1767.34 903.011 1764.4 891.461C1761.46 879.911 1757.84 863.481 1756.35 854.961C1754.41 843.871 1753.51 834.621 1753.16 822.461C1752.74 807.621 1753.02 802.981 1755.42 785.961C1757.83 768.821 1758.22 762.521 1758.59 733.961C1758.94 707.621 1758.72 699.471 1757.42 690.961C1756.55 685.191 1754.94 678.661 1753.85 676.461C1752.76 674.261 1750.18 671.261 1748.12 669.781C1746.06 668.311 1742.34 666.371 1739.87 665.461C1737.39 664.561 1732.22 663.121 1728.37 662.271C1722.94 661.081 1713.32 660.671 1685.37 660.461C1665.57 660.311 1632.94 660.551 1612.87 660.991ZM1798.37 1147.42C1802.22 1146.72 1806.72 1146.1 1808.37 1146.06C1810.02 1146.01 1813.06 1146.42 1815.12 1146.97C1817.25 1147.53 1819.75 1149.15 1820.9 1150.71C1822.41 1152.74 1822.93 1154.96 1822.9 1159.21C1822.89 1162.37 1821.97 1169.57 1820.86 1175.21C1819.76 1180.85 1817.73 1194.68 1816.35 1205.96C1814.96 1217.24 1812.94 1231.97 1811.85 1238.71C1810.76 1245.45 1808.78 1255.57 1807.44 1261.21C1806.11 1266.85 1803.8 1275.29 1802.31 1279.96C1800.83 1284.63 1798.03 1292.06 1796.09 1296.46C1794.15 1300.86 1790.41 1308.06 1787.8 1312.46C1785.18 1316.86 1780.41 1323.49 1777.2 1327.2C1774 1330.91 1768.22 1336.43 1764.37 1339.47C1760.52 1342.51 1753.77 1346.78 1749.37 1348.96C1744.97 1351.14 1737.54 1353.9 1732.87 1355.08C1725.71 1356.89 1722.64 1357.14 1713.37 1356.65C1704.86 1356.19 1697.73 1354.9 1681.87 1350.94C1664.73 1346.66 1659.32 1345.73 1648.87 1345.24C1640.57 1344.84 1634.69 1345.05 1631.37 1345.85C1628.62 1346.52 1620.74 1349.69 1613.87 1352.91C1606.99 1356.13 1598.11 1359.48 1594.12 1360.36C1590.13 1361.24 1582.48 1361.95 1577.12 1361.94C1571.55 1361.93 1564.8 1361.25 1561.37 1360.36C1558.07 1359.49 1552.24 1357.14 1548.42 1355.12C1544.38 1352.99 1538.15 1348.32 1533.55 1343.96C1529.19 1339.84 1523.25 1332.86 1520.35 1328.46C1517.46 1324.06 1513.01 1316.3 1510.48 1311.21C1507.94 1306.12 1504.52 1297.91 1502.87 1292.96C1501.22 1288.01 1499.87 1282.16 1499.87 1279.96C1499.87 1277.29 1500.54 1275.29 1501.87 1273.96C1502.97 1272.86 1504.66 1271.97 1505.62 1271.98C1506.58 1271.99 1509.17 1272.83 1511.37 1273.85C1513.57 1274.86 1519.64 1279.13 1524.87 1283.32C1532.35 1289.33 1536.18 1291.61 1542.87 1294.07C1549.41 1296.48 1553.56 1297.31 1560.87 1297.69C1567.86 1298.05 1572.08 1297.73 1576.87 1296.49C1580.44 1295.56 1586.97 1293.12 1591.37 1291.07C1595.77 1289.03 1602.52 1285.33 1606.37 1282.85C1610.22 1280.38 1616.7 1275.23 1620.77 1271.41C1624.85 1267.59 1635.82 1255.68 1645.16 1244.96C1654.51 1234.24 1669.85 1217.81 1679.26 1208.46C1689.44 1198.34 1700.22 1188.7 1705.87 1184.67C1711.09 1180.94 1722.12 1174.54 1730.37 1170.45C1738.62 1166.36 1751.44 1160.96 1758.87 1158.45C1766.29 1155.94 1776.64 1152.71 1781.87 1151.29C1787.09 1149.86 1794.52 1148.12 1798.37 1147.42ZM867.62 1178.5C869.13 1177.7 873.07 1177.03 876.37 1177.02C879.67 1177.01 885.52 1177.45 889.37 1178.01C893.22 1178.56 902.44 1180.56 909.87 1182.45C917.29 1184.33 929.89 1187.86 937.87 1190.29C948.71 1193.59 954.89 1194.88 962.37 1195.42C967.93 1195.82 974.59 1196.96 977.37 1198C980.12 1199.03 985.74 1202.06 989.87 1204.74C993.99 1207.42 1000.29 1212.03 1003.87 1214.98C1007.44 1217.93 1016.44 1225.84 1023.87 1232.56C1031.29 1239.28 1044.34 1252.09 1052.87 1261.02C1061.39 1269.96 1072.87 1281.15 1078.37 1285.9C1083.87 1290.64 1091.07 1296.36 1094.37 1298.61C1097.67 1300.85 1103.07 1304.05 1106.37 1305.72C1109.67 1307.38 1115.07 1309.53 1118.37 1310.49C1122.92 1311.8 1126.67 1312.11 1133.87 1311.74C1141.74 1311.34 1144.74 1310.68 1151.37 1307.88C1155.93 1305.96 1167.22 1299.23 1177.62 1292.23C1191.73 1282.75 1196.61 1279.96 1199.12 1279.98C1200.91 1279.98 1202.87 1280.32 1203.47 1280.73C1204.08 1281.13 1205.09 1282.47 1205.72 1283.71C1206.35 1284.95 1206.87 1289 1206.88 1292.71C1206.88 1296.42 1206.18 1302.16 1205.32 1305.46C1204.46 1308.76 1201.85 1315.51 1199.51 1320.46C1197.17 1325.41 1192.97 1332.84 1190.19 1336.96C1187.41 1341.09 1182.86 1347.16 1180.07 1350.46C1177.29 1353.76 1172.17 1358.77 1168.69 1361.58C1165.21 1364.4 1159.89 1368 1156.87 1369.58C1151.61 1372.33 1150.8 1372.46 1138.37 1372.41C1127.01 1372.37 1123.66 1371.93 1111.87 1368.97C1099.43 1365.85 1097.16 1365.58 1067.37 1365.57L1039.37 1372.86C1013.49 1379.6 1010.39 1380.19 998.37 1380.69C988.34 1381.11 983.43 1380.84 976.87 1379.52C972.19 1378.58 964.99 1376.42 960.87 1374.74C956.74 1373.05 949.82 1369.6 945.49 1367.07C941.1 1364.5 933.56 1358.63 928.49 1353.84C923.47 1349.1 916.67 1341.46 913.37 1336.85C910.07 1332.25 904.76 1323.3 901.58 1316.97C898.39 1310.64 893.58 1298.71 890.89 1290.46C888.2 1282.21 884.65 1270.06 883 1263.46C881.34 1256.86 877.96 1241.56 875.48 1229.46C873 1217.36 870.02 1205.21 868.86 1202.46C867.7 1199.71 866.06 1194.99 865.21 1191.96C864.35 1188.89 863.93 1185.03 864.27 1183.21C864.67 1181.04 865.787 1179.47 867.62 1178.5ZM1549.37 1854.09C1543.87 1854.57 1531.04 1856.07 1520.87 1857.44C1510.69 1858.8 1490.67 1861.97 1476.37 1864.47C1462.07 1866.98 1442.27 1870.36 1432.37 1872C1422.47 1873.64 1406.49 1875.84 1396.87 1876.91C1387.24 1877.97 1373.29 1879.13 1365.87 1879.49C1358.44 1879.85 1344.04 1879.64 1333.87 1879.03C1323.69 1878.42 1313.34 1877.71 1310.87 1877.44C1308.39 1877.18 1292.42 1875.41 1275.37 1873.52C1258.32 1871.62 1238.29 1869.6 1230.87 1869.01C1223.44 1868.43 1210.17 1867.96 1201.37 1867.95C1192.57 1867.95 1180.42 1868.44 1174.37 1869.03C1168.32 1869.62 1157.52 1871.24 1150.37 1872.62C1143.22 1874 1131.29 1877.12 1123.87 1879.56C1116.44 1882 1104.07 1887.1 1096.37 1890.9C1088.67 1894.69 1079.44 1899.94 1075.87 1902.56C1072.29 1905.17 1066.73 1909.82 1063.51 1912.89C1060.29 1915.95 1055.1 1921.83 1051.99 1925.96C1048.87 1930.08 1044.02 1937.96 1041.2 1943.46C1038.38 1948.96 1034.95 1957.06 1033.57 1961.46C1032.18 1965.86 1030.32 1973.29 1029.42 1977.96C1028.53 1982.63 1027.53 1991.41 1027.2 1997.46C1026.88 2003.51 1027.12 2013.07 1027.74 2018.71C1028.36 2024.35 1029.58 2032.45 1030.46 2036.71C1031.33 2040.97 1033.34 2048.51 1034.91 2053.46C1036.49 2058.41 1040.38 2067.64 1043.57 2073.97C1046.76 2080.3 1052.07 2089.28 1055.37 2093.93C1058.67 2098.57 1065.19 2106.25 1069.87 2110.98C1074.54 2115.72 1081.74 2121.97 1085.87 2124.87C1089.99 2127.77 1097.19 2132.06 1101.87 2134.41C1106.54 2136.76 1113.29 2139.63 1116.87 2140.8C1120.44 2141.97 1126.52 2143.63 1130.37 2144.49C1134.92 2145.51 1145.07 2146.26 1159.37 2146.64C1172.94 2147.01 1187.12 2146.77 1196.37 2146.04C1204.62 2145.39 1219.69 2143.73 1229.87 2142.36C1240.04 2140.99 1260.07 2137.85 1274.37 2135.39C1288.67 2132.93 1308.24 2129.61 1317.87 2128.01C1327.49 2126.4 1340.54 2124.34 1346.87 2123.41C1353.19 2122.49 1365.79 2120.91 1374.87 2119.9C1387.88 2118.45 1397.08 2118.13 1418.37 2118.39C1439.12 2118.65 1454.75 2119.56 1485.87 2122.34C1508.14 2124.33 1532.44 2126.36 1539.87 2126.85C1547.29 2127.34 1566.64 2127.79 1582.87 2127.85C1602.57 2127.93 1616.85 2127.48 1625.87 2126.51C1633.29 2125.71 1644.32 2124.1 1650.37 2122.92C1656.42 2121.75 1665.64 2119.43 1670.87 2117.77C1676.09 2116.11 1684.19 2112.86 1688.87 2110.56C1693.54 2108.25 1699.39 2104.99 1701.87 2103.3C1704.34 2101.62 1709.02 2097.81 1712.25 2094.85C1715.48 2091.88 1720.15 2086.76 1722.62 2083.46C1725.09 2080.16 1729.7 2072.06 1732.88 2065.46C1736.06 2058.86 1740.05 2049.18 1741.75 2043.96C1743.46 2038.74 1745.85 2029.96 1747.06 2024.46C1748.93 2016.04 1749.28 2011.3 1749.32 1994.46C1749.36 1978.52 1748.99 1972.73 1747.5 1965.96C1746.48 1961.29 1744.29 1953.63 1742.64 1948.96C1740.99 1944.29 1738.16 1937.54 1736.35 1933.96C1734.54 1930.38 1730.83 1924.31 1728.12 1920.46C1725.41 1916.61 1720.53 1910.59 1717.28 1907.07C1714.03 1903.56 1707.99 1897.88 1703.87 1894.45C1699.74 1891.02 1692.54 1885.63 1687.87 1882.49C1683.19 1879.35 1674.42 1874.38 1668.37 1871.46C1662.32 1868.54 1652.42 1864.57 1646.37 1862.63C1640.32 1860.7 1630.64 1858.21 1624.87 1857.1C1619.09 1855.99 1609.64 1854.6 1603.87 1854.01C1598.09 1853.43 1585.72 1853.01 1576.37 1853.09C1567.02 1853.17 1554.87 1853.62 1549.37 1854.09ZM1652.37 1906.49C1654.57 1905.7 1659.41 1905.03 1663.12 1905C1666.83 1904.98 1671.33 1905.55 1673.12 1906.28C1674.91 1907.01 1677.61 1908.92 1679.12 1910.53C1680.64 1912.14 1682.89 1916.38 1684.12 1919.96C1686.11 1925.72 1686.36 1928.34 1686.3 1942.96C1686.25 1956.13 1685.78 1961.58 1683.97 1969.96C1682.73 1975.74 1680.42 1984.51 1678.84 1989.46C1677.25 1994.41 1674.77 2001.16 1673.31 2004.46C1671.86 2007.76 1668.96 2013.38 1666.86 2016.96C1664.76 2020.54 1660.42 2026.32 1657.21 2029.82C1652.89 2034.53 1649.43 2037.13 1643.91 2039.82C1636.57 2043.4 1636.26 2043.46 1624.91 2043.34C1615.51 2043.23 1611.7 2042.71 1604.37 2040.51C1599.42 2039.03 1591.54 2035.94 1586.87 2033.65C1582.19 2031.36 1576.77 2027.91 1574.82 2025.97C1572.87 2024.04 1570.51 2020.21 1569.56 2017.46C1568.5 2014.35 1567.85 2009.43 1567.85 2004.46C1567.86 2000.06 1568.43 1994.21 1569.13 1991.46C1569.82 1988.71 1571.96 1983.84 1573.88 1980.64C1575.8 1977.44 1580.49 1970.92 1584.31 1966.14C1588.13 1961.37 1597.58 1951.14 1605.31 1943.42C1613.04 1935.7 1622.74 1926.66 1626.87 1923.33C1630.99 1920 1637.52 1915.18 1641.37 1912.61C1645.22 1910.04 1650.17 1907.29 1652.37 1906.49ZM1101.87 1927.02C1103.24 1926.44 1106.84 1926.13 1109.87 1926.33C1113.4 1926.57 1117.52 1927.78 1121.37 1929.72C1124.67 1931.38 1132.32 1936.27 1138.37 1940.6C1144.42 1944.92 1156.12 1953.83 1164.37 1960.39C1172.62 1966.95 1183.87 1976.21 1189.37 1980.97C1194.87 1985.73 1201.11 1991.61 1203.24 1994.04C1205.37 1996.47 1208.14 2000.71 1209.39 2003.46C1210.64 2006.21 1212.16 2011.27 1212.76 2014.71C1213.57 2019.26 1213.57 2022.66 1212.77 2027.21C1212.17 2030.65 1210.77 2035.26 1209.66 2037.46C1208.56 2039.66 1206.24 2042.96 1204.51 2044.78C1202.78 2046.61 1197.77 2050.29 1193.37 2052.96C1188.97 2055.63 1182.67 2059.08 1179.37 2060.63C1174.11 2063.09 1172.2 2063.44 1163.87 2063.43C1156.89 2063.42 1152.51 2062.84 1147.37 2061.22C1143.52 2060.01 1137.45 2057.32 1133.88 2055.24C1130.3 2053.16 1123.29 2047.41 1118.3 2042.46C1113.31 2037.51 1107.02 2030.08 1104.33 2025.96C1101.63 2021.83 1098.01 2015.54 1096.28 2011.96C1094.56 2008.38 1092 2002.31 1090.6 1998.46C1089.21 1994.61 1087.34 1987.63 1086.46 1982.96C1085.57 1978.29 1084.86 1970.86 1084.87 1966.46C1084.89 1962.06 1085.52 1955.54 1086.27 1951.96C1087.02 1948.38 1088.99 1942.76 1090.65 1939.46C1092.32 1936.16 1094.96 1932.25 1096.53 1930.77C1098.09 1929.29 1100.49 1927.6 1101.87 1927.02Z" fill="#F8FAFC"/>
</svg>
