<svg width="3009" height="2271" viewBox="0 0 3009 2271" fill="none" xmlns="http://www.w3.org/2000/svg">
<path fill-rule="evenodd" clip-rule="evenodd" d="M335.805 2014.75C323.499 2020.25 307.216 2033.81 299.616 2044.9C288.373 2061.32 285.853 2077.84 286.01 2134.11C286.148 2189.89 288.944 2207.71 300.482 2226.69C308.338 2239.63 324.523 2254.28 336.475 2259.26C349.45 2264.68 390.208 2268.26 437.777 2268.18C499.209 2268.08 522.738 2265.19 540.892 2255.52C554.99 2248 569.087 2232.11 576.077 2215.85C584.898 2195.35 587.005 2172.78 584.721 2123.58C582.87 2084.04 577.593 2052.04 571.233 2042.12C565.504 2033.14 550.205 2020.93 537.269 2014.99C520.907 2007.47 490.132 2004.28 435.966 2004.47C386.014 2004.65 350.179 2008.33 335.805 2014.75ZM394.362 2080.67C400.899 2074.43 417.419 2069.31 431.063 2069.31C444.708 2069.31 462.389 2072.56 470.344 2076.54C482.886 2082.82 484.816 2091.01 484.816 2138.05C484.816 2179.87 482.315 2193.16 473.967 2195.94C467.981 2197.93 449.257 2199.62 432.343 2199.68C415.43 2199.76 397.473 2195.68 392.432 2190.64C387.116 2185.33 383.1 2162.68 382.863 2136.77C382.588 2104.34 385.738 2088.92 394.362 2080.67ZM661.766 2011.5C653.634 2015.03 641.742 2028.38 635.343 2041.18C628.294 2055.25 624.789 2076.09 626.482 2094C628.195 2112.32 635.52 2129.82 645.68 2139.94C655.288 2149.51 674.092 2157.66 691.044 2159.57C706.953 2161.38 738.713 2164.61 761.592 2166.74C799.494 2170.28 803.038 2172.07 801.404 2186.9C799.829 2200.94 794.867 2203.44 765.215 2205C738.339 2206.41 728.08 2203.64 718.176 2192.26C708.233 2180.84 696.616 2177.73 663.912 2177.78L622.308 2177.86C622.308 2218.86 627.821 2234.02 636.78 2242.98C644.734 2250.95 665.093 2261.05 682.007 2265.46C698.92 2269.87 742.06 2272.12 777.875 2270.45C816.998 2268.63 851.672 2262.92 864.706 2256.19C876.717 2249.97 890.952 2234 896.564 2220.45C902.904 2205.17 904.912 2186.41 901.919 2170.62C899.281 2156.7 891.445 2139.47 884.534 2132.36C877.603 2125.23 862.186 2116.53 850.234 2113C838.302 2109.5 806.543 2104.73 779.687 2102.43C746.549 2099.6 729.104 2094.75 725.422 2087.33C722.429 2081.32 722.626 2074.08 725.855 2071.22C729.085 2068.37 744.777 2065.95 760.726 2065.87C781.104 2065.75 791.756 2069.47 796.482 2078.35C801.739 2088.25 812.667 2091.01 846.611 2091.01H890.047C890.047 2050.92 884.77 2035.43 877.366 2028.5C870.416 2021.96 857.382 2013.83 848.423 2010.4C839.484 2006.97 797.151 2004.4 754.366 2004.65C711.58 2004.89 669.917 2007.98 661.766 2011.5ZM2441.52 2014.75C2429.22 2020.25 2413.72 2032.32 2407.09 2041.59C2398.01 2054.27 2394.7 2076.4 2393.76 2130.82C2392.75 2187.63 2395.1 2207.46 2404.67 2223.09C2411.38 2234.02 2425.67 2248.69 2436.44 2255.64C2452.24 2265.86 2472.24 2268.3 2539.56 2268.26C2605.14 2268.24 2628.14 2265.52 2646.61 2255.6C2660.65 2248.08 2674.83 2232.05 2681.8 2215.85C2690.62 2195.35 2692.72 2172.78 2690.44 2123.58C2688.59 2084.04 2683.31 2052.04 2676.95 2042.12C2671.22 2033.14 2655.92 2020.93 2642.99 2014.99C2626.63 2007.47 2595.85 2004.28 2541.69 2004.47C2491.73 2004.65 2455.9 2008.33 2441.52 2014.75ZM2500.08 2080.67C2506.62 2074.43 2523.14 2069.31 2536.78 2069.31C2550.43 2069.31 2568.11 2072.56 2576.06 2076.54C2588.61 2082.82 2590.53 2091.01 2590.53 2138.05C2590.53 2179.87 2588.03 2193.16 2579.69 2195.94C2573.7 2197.93 2554.98 2199.62 2538.06 2199.68C2521.15 2199.76 2503.19 2195.68 2498.15 2190.64C2492.84 2185.33 2488.82 2162.68 2488.58 2136.77C2488.31 2104.34 2491.46 2088.92 2500.08 2080.67ZM2764.2 2014.38C2754.25 2019.65 2741.53 2034.99 2735.96 2048.46C2729.64 2063.66 2727.61 2082.5 2730.59 2098.26C2733.21 2112.18 2742.66 2130.94 2751.6 2139.94C2761.14 2149.57 2779.71 2157.64 2796.76 2159.57C2812.67 2161.38 2844.43 2164.61 2867.31 2166.74C2905.21 2170.28 2908.76 2172.07 2907.12 2186.9C2905.55 2200.94 2900.59 2203.44 2870.93 2205C2844.06 2206.41 2833.8 2203.64 2823.9 2192.26C2813.95 2180.84 2802.34 2177.73 2769.63 2177.78L2728.03 2177.86C2728.03 2218.86 2733.54 2234.02 2742.5 2242.98C2750.45 2250.95 2770.81 2261.05 2787.73 2265.46C2804.64 2269.87 2847.78 2272.12 2883.59 2270.45C2922.72 2268.63 2957.39 2262.92 2970.43 2256.19C2982.44 2249.97 2996.67 2234 3002.28 2220.45C3008.62 2205.17 3010.63 2186.41 3007.64 2170.62C3005 2156.7 2997.16 2139.47 2990.25 2132.36C2983.32 2125.23 2967.9 2116.53 2955.95 2113C2944.02 2109.5 2912.26 2104.73 2885.41 2102.43C2852.27 2099.6 2834.82 2094.75 2831.14 2087.33C2828.15 2081.32 2828.35 2074.08 2831.57 2071.22C2834.8 2068.37 2850.5 2065.95 2866.44 2065.87C2886.82 2065.75 2897.48 2069.47 2902.2 2078.35C2907.46 2088.25 2918.39 2091.01 2952.33 2091.01H2995.77C2995.77 2050.92 2990.49 2035.43 2983.09 2028.5C2976.14 2021.96 2963.1 2013.83 2954.14 2010.4C2945.2 2006.97 2902.87 2004.32 2860.08 2004.47C2809.86 2004.67 2775.87 2008.18 2764.2 2014.38ZM1304.33 8.78069C1300.46 13.7622 1271.45 63.7944 1239.87 120.009C1208.29 176.204 1181.94 226.669 1181.31 232.163C1180.68 237.656 1208.53 290.997 1243.2 350.696L1306.22 459.247L1581.09 462.85L1714.96 231.297L1581.09 0.0187051C1346.77 -0.237264 1309.51 2.1058 1304.33 8.78069ZM499.288 420.025C461.484 428.196 397.985 447.748 358.173 463.48C318.38 479.193 266.281 502.604 242.398 515.462L198.983 538.834L195.36 1504.88H1150.54V1345.69H361.796V643.761C448.725 611.293 500.016 596.053 531.854 588.945C569.52 580.537 618.803 576.107 672.95 576.225C733.101 576.382 773.721 580.754 819.479 592.016C854.31 600.581 903.967 617.357 929.839 629.289L976.878 651.007V1085.17H651.252V817.427H868.329V643.761H484.816V1251.61H1150.54L1146.92 561.024C1057.19 501.324 1005.09 473.995 973.255 461.787C941.417 449.579 890.933 433.02 861.083 424.967C819.794 413.803 778.308 409.707 687.421 407.758C587.477 405.612 556.821 407.6 499.288 420.025ZM2040.59 416.047C2010.74 421.423 1961.89 434.556 1932.04 445.248C1902.19 455.919 1858.24 474.467 1834.36 486.439C1810.47 498.41 1777.91 517.057 1762 527.886C1746.07 538.696 1727.34 552.932 1720.39 559.489C1708.68 570.495 1707.71 596.958 1707.71 911.505V1251.61H2380.68V643.761L1993.55 647.384V813.823L2207.02 817.427V1085.17H1881.4L1880.9 654.611C1956.98 618.952 1996.99 603.574 2018.87 597.431C2040.76 591.288 2089.61 582.683 2127.42 578.292C2177.66 572.484 2213.68 572.504 2261.29 578.391C2297.1 582.821 2339.43 589.929 2355.36 594.182C2371.27 598.435 2411.16 611.312 2444.01 622.831L2503.7 643.761V1345.69L1711.34 1349.31V1501.26L2662.89 1504.88C2663.46 642.068 2661.65 544.367 2654.17 537.534C2649.01 532.828 2615.5 514.438 2579.69 496.678C2543.85 478.917 2488.5 456.175 2456.67 446.173C2424.83 436.17 2371.09 422.762 2337.27 416.382C2299.37 409.235 2241.05 405.06 2185.3 405.513C2135.57 405.927 2070.44 410.672 2040.59 416.047ZM1340.43 909.694L1342.3 1255.23L1526.83 1258.86V564.155H1338.54L1340.43 909.694ZM340.098 1743.68V1837.76H2496.48V1649.62H340.098V1743.68ZM0 2134.43V2264.68H94.0766L97.6996 2169.42L177.285 2264.99C264.214 2264.75 289.397 2262.23 289.338 2259.26C289.279 2256.27 264.864 2226.97 235.074 2194.13L180.908 2134.43C206.15 2102.16 228.832 2075.28 247.596 2053.9C266.36 2032.53 281.836 2012.59 281.974 2009.61C282.112 2006.62 256.968 2004.32 226.134 2004.49L170.059 2004.83L94.0766 2098.26V2004.18H0V2134.43ZM919.148 2036.57L918.99 2069.29H1005.82V2264.68H1099.9V2069.29H1186.73L1183.11 2007.8L919.325 2003.84L919.148 2036.57ZM1195.29 2128.76C1170.54 2197.55 1150.34 2256.27 1150.42 2259.24C1150.48 2262.23 1173.34 2264.68 1201.18 2264.68H1251.84L1259.09 2221.26H1360.39L1367.62 2264.68H1476.17C1430.05 2138.5 1409.4 2080.69 1400.54 2054.82L1384.39 2007.78L1240.3 2003.71L1195.29 2128.76ZM1307.72 2083.76C1310.16 2077.13 1315.58 2085.58 1321.64 2105.46C1327.12 2123.38 1333.18 2143.74 1335.13 2150.69C1338.08 2161.24 1333.81 2163.35 1280.79 2163.35L1292.24 2128.99C1298.57 2110.09 1305.52 2089.73 1307.72 2083.76ZM1505.11 2134.41V2264.68H1599.17V2192.3C1646.83 2192.12 1664.81 2196.19 1669.85 2201.24C1674.89 2206.28 1678.97 2222.6 1678.89 2237.52L1678.77 2264.68H1772.85C1772.85 2190.84 1770.27 2183.24 1755.03 2172.41L1737.21 2159.75C1769.64 2127.16 1773.18 2116.35 1773.08 2087.39C1773 2067.36 1768.08 2043.91 1762.04 2034.91C1754.77 2024.08 1739.04 2016.21 1714.96 2011.4C1695.05 2007.43 1639.69 2004.16 1591.94 2004.16H1505.11V2134.41ZM1599.99 2068.49L1633.21 2070.69C1655.22 2072.15 1669.12 2077.17 1674.42 2085.56C1680.23 2094.79 1680.23 2101.66 1674.42 2110.9C1669.02 2119.44 1655.54 2124.15 1599.17 2127.18L1599.58 2097.82L1599.99 2068.49ZM1830.73 2134.41V2264.68H2084V2199.54H1924.79V2163.35H2076.76V2105.46H1924.79V2069.29H2084V2004.16H1830.73V2134.41ZM2134.64 2134.41V2264.66H2373.44V2199.54H2228.72V2004.16H2134.64V2134.41Z" fill="#F8FAFC"/>
</svg>
