<svg width="2714" height="2029" viewBox="0 0 2714 2029" fill="none" xmlns="http://www.w3.org/2000/svg">
<path fill-rule="evenodd" clip-rule="evenodd" d="M338.37 144.622C220.893 253.855 177.79 325.577 162.185 438.048C145.285 559.588 158.239 607.285 232.965 698.499C283.194 759.857 373.053 829.99 432.586 854.309C492.119 878.629 687.383 941.4 866.454 993.867C1115.19 1066.71 1209.87 1113.35 1267.76 1191.49C1311.1 1250.08 1342.84 1349.48 1342.01 1424.08C1341.25 1495.69 1310.33 1604.51 1273.41 1665.93C1236.43 1727.34 1144.45 1806.84 1068.9 1842.7C993.352 1878.5 847.846 1907.77 745.503 1907.77C643.16 1907.77 517.617 1891.04 466.445 1870.61C415.274 1850.12 331.009 1787.35 279.131 1731.05C221.482 1668.46 185.032 1585.37 185.385 1517.06C185.68 1455.71 219.716 1367.79 261.053 1321.74C302.391 1275.69 373.877 1227.88 419.926 1215.51C465.974 1203.09 553.89 1215.81 615.249 1243.78C689.15 1277.34 730.428 1325.86 737.377 1387.22C743.148 1438.16 726.425 1501.58 700.162 1528.08C670.837 1557.7 606.004 1568.41 531.573 1555.99C465.032 1544.8 410.622 1544.09 410.622 1554.28C410.622 1564.53 448.309 1606.75 494.357 1648.08C540.405 1689.42 611.539 1723.46 652.465 1723.75C693.39 1724.05 772.944 1690.25 829.238 1648.61C896.485 1598.86 932.111 1537.85 933.171 1470.6C934.29 1402.65 893.659 1327.75 812.279 1247.66C742.088 1178.65 634.033 1117.41 559.484 1104.4C487.821 1091.91 366.458 1100.1 289.671 1122.65C212.944 1145.2 116.078 1209.62 74.4456 1265.92C29.045 1327.28 -0.751099 1424.08 0.0144104 1507.82C0.956576 1605.69 31.8713 1682.18 103.653 1764.03C159.947 1828.21 272.948 1914.19 354.799 1955.11C454.551 2004.93 577.326 2029.31 726.895 2028.95C849.671 2028.72 1008.78 2003.87 1080.38 1973.84C1152.05 1943.81 1274.59 1853.83 1352.79 1773.98C1432.52 1692.54 1510.19 1567.41 1529.56 1489.21C1548.58 1412.42 1555.77 1295.24 1545.52 1228.7C1535.27 1162.22 1501.59 1082.67 1470.68 1051.99C1432.34 1014.01 1426.57 984.269 1452.48 958.949C1478.39 933.628 1472.44 903.89 1433.87 865.909C1388.12 820.921 1386.23 800.783 1424.1 761.918C1449.95 735.479 1487.81 714.398 1508.3 715.163C1528.8 715.929 1559.01 879.924 1575.43 1079.6C1591.92 1279.29 1593.81 1492.92 1579.61 1554.28C1565.42 1615.7 1535.21 1687.6 1512.49 1714.09C1489.7 1740.59 1479.45 1763.21 1489.7 1764.27C1499.94 1765.38 1575.26 1769.68 1657.17 1773.75L1805.97 1781.22L1787.36 717.106C1974.79 782.94 2125.42 795.483 2243.02 787.474L2456.83 772.93C2457.07 1464.54 2441.58 1655.09 2419.91 1665.93C2399.48 1676.17 2382.75 1709.68 2382.75 1740.36C2382.75 1781.99 2419.5 1793.83 2527.79 1786.88C2607.58 1781.75 2687.07 1765.38 2704.5 1750.49C2721.93 1735.65 2714.69 1702.14 2688.37 1676.11C2651.92 1640.02 2644.14 1482.38 2655.8 1014.77C2664.28 677.064 2681.6 363.146 2694.37 317.098C2715.98 239.252 2705.86 233.363 2550.16 233.363C2426.15 233.363 2382.75 247.849 2382.75 289.186C2382.75 319.866 2399.48 345.01 2419.91 345.01C2440.4 345.01 2457.12 411.962 2457.12 493.813C2457.12 636.846 2451.71 643.618 2317.62 666.171C2240.84 679.067 2085.97 668.821 1973.44 643.382L1768.75 597.098L1824.58 233.363C1593.86 233.363 1518.55 250.086 1508.3 270.578C1498.06 291.071 1506.42 316.156 1526.91 326.402C1547.35 336.648 1564.13 395.239 1564.13 456.597C1564.13 531.029 1545.52 568.244 1508.3 568.244C1477.63 568.244 1402.25 593.388 1340.83 624.068C1279.48 654.747 1229.25 704.976 1229.25 735.714C1229.25 766.393 1212.46 799.899 1192.03 810.086C1171.54 820.332 1008.31 786.415 829.238 734.654C650.168 682.894 465.974 615.941 419.926 585.792C373.877 555.702 327.358 501.762 316.523 465.901C305.747 430.099 314.109 354.784 335.131 298.49C359.863 232.362 409.621 188.08 475.75 173.3C532.044 160.698 682.732 177.422 810.631 210.515C938.53 243.55 1080.86 270.284 1126.9 269.99C1172.95 269.636 1276.3 231.95 1356.56 186.254C1436.82 140.559 1511.19 78.0234 1521.79 47.3441C1537.28 2.29676 1523.5 -2.0021 1450.24 25.0263C1400.31 43.4574 1300.85 58.061 1229.25 57.4132C1157.58 56.8244 962.849 43.6342 796.439 28.1474L493.886 0L338.37 144.622Z" fill="#F8FAFC"/>
</svg>
