<svg width="8718" height="1734" viewBox="0 0 8718 1734" fill="none" xmlns="http://www.w3.org/2000/svg">
<path fill-rule="evenodd" clip-rule="evenodd" d="M993.471 1.55901C976.416 3.87075 934.497 10.8059 900.335 16.9706C866.173 23.1866 805.658 43.1189 765.793 61.3559C725.929 79.5415 670.911 115.194 643.478 140.623C616.046 166 584.658 205.351 573.767 228.16C562.877 250.918 553.835 286.981 553.784 308.352C553.681 329.722 559.794 362.292 567.294 380.786C574.846 399.28 599.299 432.826 621.645 455.275C650.773 484.506 717.966 522.932 858.929 590.845C967.117 642.988 1069.04 699.137 1085.53 715.628C1102.02 732.118 1124.01 764.277 1134.49 787.035C1144.91 809.792 1153.44 849.4 1153.44 874.983C1153.44 900.618 1142.96 947.212 1130.22 978.497C1117.48 1009.78 1088.51 1058.33 1065.8 1086.38C1043.1 1114.43 989.618 1160.05 946.929 1187.79C904.239 1215.53 845.984 1246.86 817.524 1257.45C789.064 1268.03 726.186 1284.78 677.845 1294.64C612.707 1307.89 565.651 1310.87 496.71 1306.04C445.493 1302.45 380.251 1293.3 351.792 1285.7C323.332 1278.1 277.406 1260.58 249.717 1246.81C222.028 1232.99 181.29 1201.91 159.149 1177.72C137.059 1153.52 111.322 1116.28 102.024 1094.91C90.8766 1069.32 85.2257 1027.97 85.4826 973.309C85.6881 919.779 93.291 866.712 106.956 823.251C118.566 786.264 146.409 728.008 168.807 693.897C191.256 659.735 221.771 623.621 236.72 613.655C251.618 603.688 263.844 588.585 263.844 580.006C263.844 571.478 255.676 564.389 245.71 564.235C235.744 564.029 207.798 578.002 183.653 595.263C159.457 612.524 121.288 651.053 98.8904 680.952C76.4925 710.85 45.0534 763.198 29.0255 797.36C3.18574 852.534 -0.0507783 871.028 0.000593079 962.983C0.103336 1052.37 3.49398 1072.82 25.0186 1113.04C38.6833 1138.67 73.5645 1182.24 102.538 1209.88C131.46 1237.51 183.088 1273.63 217.25 1290.17C251.412 1306.66 311.979 1327.06 351.792 1335.43C391.656 1343.85 474.312 1350.79 535.496 1350.89C596.73 1350.99 680.517 1344.52 721.82 1336.56C763.071 1328.54 829.442 1308.87 869.307 1292.84C909.119 1276.76 974.361 1242.24 1014.17 1216.04C1054.04 1189.89 1118.36 1133.9 1157.19 1091.62C1195.98 1049.29 1237.74 993.755 1249.97 968.12C1262.55 941.818 1273.8 894.556 1275.91 859.469C1278.99 807.275 1274.93 788.318 1250.38 740.44C1231.27 703.144 1203.32 670.009 1169.42 644.323C1140.96 622.799 1036.16 565.365 936.552 516.716C806.48 453.22 744.526 416.849 716.631 387.721C681.955 351.504 677.794 341.384 677.589 292.837C677.383 244.753 681.852 233.246 716.425 193.073C737.899 168.055 774.064 137.078 796.822 124.132C819.631 111.238 860.368 93.2578 887.389 84.165C914.462 75.1236 970.354 62.7942 1011.61 56.7837C1064.72 49.0266 1104.79 49.0781 1148.72 56.938C1188.99 64.1814 1223.56 78.2573 1247.04 97.008C1266.97 112.933 1291.32 141.958 1301.13 161.531C1315.36 189.786 1316.96 205.043 1308.89 235.917C1300.52 268.179 1290.96 278.196 1252.23 295.406C1226.59 306.811 1205.63 320.784 1205.63 326.486C1205.63 332.137 1211.49 338.661 1218.58 340.87C1225.72 343.13 1245.5 339.175 1262.55 332.086C1279.66 324.996 1309.05 305.732 1327.9 289.19C1346.8 272.7 1367.09 242.904 1373.05 222.971C1379.01 203.039 1381.07 171.6 1377.57 153.106C1373.88 133.431 1354.05 102.248 1329.85 78.0518C1301.29 49.489 1271.6 32.0225 1234.09 21.7481C1204.25 13.5286 1144.86 4.69262 1102.17 2.12403C1059.48 -0.495935 1010.58 -0.701348 993.471 1.55901ZM7294.27 26.1149C7281.68 30.9439 7253.74 58.068 7232.16 86.2711C7196.56 132.865 7188.14 138.208 7141.18 144.013C7112.72 147.506 7061.45 150.332 7027.34 150.383C6993.18 150.383 6913.97 157.524 6851.4 166.206C6788.77 174.888 6710.74 188.861 6678.02 197.286C6645.3 205.711 6585.91 228.931 6546.05 248.863C6506.23 268.744 6454.04 304.858 6430.15 329.054C6406.21 353.251 6376.01 396.3 6362.96 424.76C6349.91 453.272 6335.53 499.815 6331.01 528.275C6326.48 556.735 6326.38 603.329 6330.8 631.789C6335.17 660.249 6350.48 700.987 6364.81 722.358C6379.09 743.677 6410.37 773.935 6434.21 789.603C6465.24 809.946 6494.11 819.091 6535.16 821.659C6571.06 823.868 6608.15 819.091 6634.04 808.919C6656.8 799.929 6692.81 775.322 6714.08 754.208C6735.3 733.145 6761.55 699.291 6772.34 678.999C6783.12 658.708 6794.68 628.141 6798.12 611.086C6801.52 593.979 6800.69 563.721 6796.33 543.789C6791.96 523.908 6781.63 506.236 6773.31 504.643C6762.16 502.434 6756.72 515.997 6752.4 556.375C6749.22 586.479 6734.99 636.72 6720.81 668.006C6704.94 702.939 6681.2 734.686 6659.32 750.149C6639.75 764.071 6605.07 777.274 6582.26 779.534C6559.5 781.795 6528.07 778.61 6512.45 772.394C6496.78 766.229 6471.15 744.036 6455.48 723.179C6431.13 690.661 6427.28 676.123 6428.56 622.234C6429.38 586.838 6439.55 534.439 6451.73 502.383C6463.7 471.098 6491.13 422.192 6512.71 393.732C6534.28 365.272 6577.38 326.743 6608.51 308.095C6639.64 289.447 6688.34 265.507 6716.8 254.822C6745.32 244.137 6819.8 228.314 6882.43 219.581C6945.05 210.899 7034.69 201.087 7081.64 197.851L7167.02 191.892C7105.22 316.263 7057.5 421.216 7021.08 505.363L6954.86 658.348C6896.66 657.731 6867.17 667.749 6843.59 683.469C6822.27 697.75 6804.8 716.398 6804.8 724.926C6804.8 733.454 6810.61 743.163 6817.75 746.451C6824.84 749.738 6845.8 745.115 6864.29 736.073C6882.84 727.083 6904.93 719.738 6913.45 719.738C6924.5 719.738 6927.22 726.518 6922.8 743.06C6919.41 755.852 6897.79 803.576 6874.77 849.143C6851.76 894.658 6818.72 952.863 6801.41 978.497C6784.1 1004.13 6736.99 1059.36 6696.82 1101.28C6656.6 1143.2 6595.72 1196.42 6561.56 1219.64C6527.45 1242.81 6466.88 1277.12 6427.02 1295.92C6387.21 1314.67 6317.34 1339.49 6271.77 1351.05C6226.26 1362.55 6165.69 1371.9 6137.23 1371.8C6108.77 1371.7 6055.24 1366.66 6018.21 1360.6C5981.22 1354.49 5925.94 1337.07 5895.32 1321.87C5864.71 1306.61 5823.97 1279.02 5804.76 1260.53C5785.54 1242.03 5759.7 1207.1 5747.32 1182.91C5729.86 1148.85 5724.67 1120.18 5724.36 1056.12C5724 987.128 5728.52 963.805 5751.43 916.388C5766.54 885.103 5793.3 845.495 5810.87 828.44C5828.44 811.333 5847.4 789.243 5852.94 779.277C5860.34 765.869 5858.9 759.807 5847.45 755.954C5838.92 753.129 5808.66 769.414 5780.2 792.223C5745.22 820.169 5719.22 852.893 5699.96 893.117C5674.43 946.493 5671.55 963.754 5671.76 1061.31C5672.01 1151.62 5675.92 1178.23 5695.08 1219.12C5707.72 1246.14 5735.56 1287.65 5756.88 1311.39C5778.25 1335.07 5818.99 1369.44 5847.45 1387.72C5875.91 1406.01 5931.8 1431.08 5971.66 1443.46C6011.53 1455.79 6079.03 1468.64 6121.72 1471.97C6175.71 1476.24 6226.16 1472.64 6287.34 1460.26C6335.68 1450.45 6400.92 1432.06 6432.21 1419.42C6463.54 1406.73 6524.06 1373.91 6566.75 1346.37C6609.44 1318.89 6674.94 1265.61 6712.23 1228.01C6749.58 1190.41 6801.52 1129.32 6827.71 1092.34C6853.91 1055.35 6895.27 990.159 6919.62 947.469C6943.92 904.779 6976.69 837.225 6992.41 797.36L7021.02 724.926C7162.24 727.649 7270.79 731.707 7353.35 735.663L7503.4 742.906C7432.15 967.658 7422.49 1016.82 7417.66 1102.71L7411.55 1211.37C7480.64 1280.26 7485.68 1281.95 7534.43 1276.09C7562.89 1272.7 7597.82 1260.94 7612.05 1250C7626.28 1239 7661.22 1201.81 7689.67 1167.24C7718.13 1132.66 7744.95 1104.05 7749.21 1103.54C7753.48 1103.07 7756.97 1114.32 7756.97 1128.55C7756.97 1143.5 7770.07 1167.55 7788 1185.47C7812.61 1210.03 7828.27 1216.61 7863.05 1216.91C7891.51 1217.12 7917.1 1209.82 7935.49 1196.21C7951.15 1184.6 7968.62 1175.15 7974.32 1175.15C7980.03 1175.15 7998.62 1182.14 8015.73 1190.66C8039.98 1202.79 8059.7 1204.17 8106.24 1196.88C8139.02 1191.79 8166.71 1188.3 8167.89 1189.12C8169.02 1190 8147.8 1248.87 8120.68 1320.02C8093.61 1391.17 8063.71 1477.37 8054.36 1511.53C8044.96 1545.64 8034.32 1596.91 8030.73 1625.37C8025.23 1668.37 8027.8 1681.93 8045.78 1705.56C8063.45 1728.78 8075.58 1734.02 8111.43 1733.97C8137.22 1733.97 8169.38 1725.39 8189.06 1713.27C8207.55 1701.92 8233.9 1677.51 8247.52 1658.97C8261.18 1640.47 8281.52 1609.04 8292.72 1589.15C8303.87 1569.22 8323.29 1520.32 8335.82 1480.45C8348.31 1440.59 8361.77 1366.82 8365.67 1316.42C8372.61 1227.03 8373.48 1224.57 8403.84 1212.14C8421.1 1205.1 8457.21 1169.96 8485.21 1132.97C8512.85 1096.4 8548.96 1039.68 8565.4 1006.96C8581.84 974.233 8593.86 941.612 8592.12 934.523C8590.37 927.382 8567.77 961.185 8541.87 1009.53C8507.97 1072.92 8479.87 1109.8 8441.55 1141.5C8412.26 1165.7 8383.03 1184.34 8376.66 1182.91C8370.24 1181.47 8359.4 1161.69 8352.57 1138.93C8345.74 1116.12 8333.51 1087.35 8325.39 1074.97C8311.78 1054.17 8318.51 1036.65 8414.94 842.105C8472.32 726.416 8543.83 589.869 8573.98 538.651C8604.09 487.382 8649.14 416.387 8674.1 380.786C8699.07 345.237 8718.8 309.687 8717.97 301.776C8717.2 293.916 8704.36 285.029 8689.52 282.049C8674.72 279.07 8648.57 282.358 8631.52 289.396C8613.69 296.69 8586.36 323.917 8567.46 353.148C8549.27 381.146 8492.76 490.259 8441.8 595.572C8390.84 700.884 8325.34 837.071 8296.27 898.306C8259.64 975.364 8236.21 1012.3 8220.13 1018.57C8207.29 1023.5 8191.42 1033.98 8184.79 1041.84C8178.22 1049.7 8168.92 1074.36 8164.14 1096.7C8158.49 1123.01 8144.52 1145.71 8124.38 1161.33C8095.15 1183.98 8091.35 1184.5 8059.7 1169.91C8041.21 1161.38 8025.85 1150.95 8025.59 1146.69C8025.33 1142.42 8032.94 1131.94 8042.54 1123.37C8052.1 1114.84 8074.14 1086.89 8091.55 1061.31C8108.97 1035.67 8134.4 986.768 8148.06 952.606C8161.88 918.135 8173.28 867.534 8173.75 838.766C8174.16 810.306 8167.89 771.263 8159.83 751.999C8151.71 732.683 8132.29 710.593 8116.62 702.836C8100.95 695.079 8075.37 688.812 8059.7 688.914C8044.03 689.069 8010.28 698.829 7984.65 710.696C7959.07 722.512 7914.78 756.571 7886.32 786.367C7855.04 819.193 7812.55 883.151 7778.8 948.342C7748.08 1007.63 7710.33 1074.77 7694.81 1097.53C7679.3 1120.28 7647.34 1156.4 7623.82 1177.72C7600.29 1199.09 7575.22 1216.61 7568.08 1216.71C7560.99 1216.81 7546.66 1211.01 7536.28 1203.76C7524.57 1195.7 7515.32 1172.89 7512.03 1144.07C7509.05 1118.23 7514.04 1065.32 7523.18 1025.09C7532.22 985.227 7553.95 906.063 7571.47 849.143L7603.27 745.629C7707.14 723.744 7729.08 713.419 7736.27 699.035C7745.98 679.616 7743.15 678.332 7689.67 678.332C7646.01 678.332 7632.75 674.735 7632.75 662.817C7632.75 654.289 7647.14 611.189 7664.76 567.112C7682.33 522.983 7726.35 428.664 7762.52 357.514C7798.74 286.364 7849.39 197.851 7875.18 160.863C7915.35 103.121 7919.46 92.7442 7904.15 87.4529C7894.34 84.011 7877.03 83.754 7865.62 86.7336C7854.27 89.7645 7823.96 113.807 7798.38 140.109C7770.58 168.672 7728.31 233.708 7693.63 301.211C7661.63 363.474 7610.41 473.923 7579.79 546.665C7525.95 674.479 7523.08 678.897 7493.08 678.692C7475.97 678.589 7368.86 673.092 7255.02 666.465C7141.18 659.838 7046.92 653.981 7045.53 653.416C7044.19 652.903 7069.26 580.314 7101.27 492.057C7133.27 403.852 7175.14 297.872 7194.3 256.62C7222.3 196.258 7233.7 181.515 7252.4 181.36C7265.24 181.206 7294.32 172.576 7317.13 162.096C7339.89 151.668 7366.91 134.304 7377.18 123.516C7387.46 112.728 7396.55 92.2817 7397.37 78.0518C7398.19 63.8218 7392.13 43.838 7383.86 33.615C7375.59 23.392 7357.2 15.5323 7342.97 16.1488C7328.74 16.7652 7306.8 21.2346 7294.27 26.1149ZM7291.75 101.374C7303.26 88.5315 7317.18 78.0518 7322.68 78.0518C7328.17 78.0518 7332.75 83.9082 7332.95 90.9976C7333.11 98.1382 7320.26 109.902 7304.49 117.146C7288.67 124.44 7274.59 129.064 7273.21 127.523C7271.87 125.93 7280.19 114.166 7291.75 101.374ZM7988.76 805.118C8031.91 763.763 8053.02 750.817 8077.17 750.817C8102.08 750.817 8111.23 756.879 8120.11 779.277C8126.28 794.894 8128.54 828.697 8125.1 854.28C8121.66 879.915 8104.91 930.002 8087.96 965.552C8071 1001.15 8053.59 1030.07 8049.33 1029.92C8045.06 1029.72 8032.27 1022.68 8020.87 1014.2C8009.51 1005.78 7996.67 998.943 7992.41 998.995C7988.14 999.098 7975.35 1008.5 7963.95 1019.9C7951.67 1032.18 7943.35 1054.22 7943.4 1074.25C7943.5 1092.75 7947.87 1114.84 7953.06 1123.37C7958.81 1132.82 7958.76 1146.02 7952.9 1157.01C7946.17 1169.65 7930.71 1175.15 7901.84 1175.15C7867.42 1175.15 7858.28 1170.58 7847.54 1148.08C7837.16 1126.35 7837.21 1109.39 7847.69 1062.7C7854.88 1030.59 7876.82 971.767 7896.39 931.903C7919.15 885.668 7952.49 839.845 7988.76 805.118ZM8280.55 1138.93C8283.89 1124.7 8290.87 1113.04 8296.06 1113.04C8301.25 1113.04 8310.24 1128.19 8315.99 1146.69C8321.8 1165.18 8326.47 1181.47 8326.37 1182.91C8326.27 1184.34 8316.87 1185.47 8305.51 1185.47C8294.11 1185.47 8282.45 1180.85 8279.62 1175.15C8276.8 1169.45 8277.21 1153.16 8280.55 1138.93ZM8233.65 1240.55C8244.13 1213.22 8249.57 1209.26 8265.55 1217.22C8276.13 1222.56 8295.29 1226.83 8308.08 1226.78C8330.74 1226.67 8331.15 1228.68 8323.55 1296.64C8319.23 1335.12 8305.93 1399.23 8294.06 1439.05C8282.14 1478.91 8257.74 1538.96 8239.81 1572.46C8221.88 1606 8192.03 1646.79 8173.54 1663.03C8154.07 1680.13 8134.86 1689.33 8127.87 1684.86C8119.75 1679.62 8117.86 1657.02 8122.02 1614.99C8125.46 1580.83 8149.09 1490.01 8174.62 1413.21C8200.15 1336.35 8226.71 1258.63 8233.65 1240.55ZM3134.11 340.305C3112.28 365.015 3065.69 438.374 3030.55 503.308C2995.36 568.293 2936.85 679.667 2900.48 750.817C2864.06 821.967 2809.04 925.995 2778.11 982.042C2747.19 1038.09 2703.26 1104.31 2680.45 1129.27C2655.39 1156.76 2629.91 1174.74 2615.78 1174.89C2602.99 1175.05 2590.2 1168.16 2587.32 1159.63C2584.49 1151.06 2589.37 1117.3 2598.16 1084.58C2606.94 1051.86 2646.55 961.031 2686.11 882.74C2725.71 804.501 2755.76 735.816 2752.94 730.114C2750.06 724.412 2739.58 719.891 2729.62 720.045C2719.65 720.2 2674.7 739.978 2629.7 764.02C2576.84 792.275 2525.57 830.649 2484.83 872.517C2450.11 908.169 2418.26 937.246 2413.99 937.194C2409.73 937.143 2420.62 910.327 2438.29 877.603C2455.91 844.879 2483.86 800.597 2500.35 779.277C2525.26 747.119 2528.19 737.717 2517.45 724.463C2510.36 715.679 2494.03 708.692 2481.24 708.949C2468.45 709.206 2445.17 720.405 2429.51 733.865C2413.84 747.324 2371.25 816.008 2334.83 886.49C2298.41 957.024 2252.53 1040.35 2232.8 1071.63C2213.13 1102.97 2184.72 1139.19 2169.67 1152.19C2154.62 1165.13 2132.99 1175.82 2121.59 1175.92C2110.23 1175.97 2095.08 1168.88 2087.94 1160.1C2077.97 1147.77 2077.66 1134 2086.55 1100.09C2092.87 1075.9 2127.8 985.073 2164.17 898.306C2218.88 767.616 2228.03 737.717 2217.34 724.463C2209.23 714.446 2188.06 708.641 2160.42 708.949C2133.04 709.206 2115.99 714.292 2115.22 722.358C2114.6 729.447 2114.75 742.238 2115.68 750.817C2116.55 759.345 2102.78 805.939 2085.06 854.28C2067.34 902.672 2039.19 967.863 2022.44 999.2C2005.69 1030.49 1972.25 1079.03 1948.1 1107.03C1924.01 1135.08 1889.13 1164.16 1870.64 1171.71C1852.14 1179.31 1826.51 1185.63 1813.72 1185.83C1800.87 1185.99 1781.1 1176.23 1769.69 1164.05C1755.21 1148.59 1749.45 1129.12 1750.43 1099.07C1751.2 1075.44 1754.74 1042.15 1758.24 1025.09C1763.22 1001.1 1773.55 990.775 1803.44 979.73C1824.71 971.922 1854.97 963.754 1870.64 961.647C1886.25 959.541 1918.87 944.541 1943.07 928.41C1967.27 912.228 2002.3 876.113 2020.9 848.167C2042.88 815.186 2054.8 784.671 2054.91 761.143C2054.96 739.67 2047.51 717.888 2036.57 707.614C2026.39 698.11 2006.46 687.167 1992.23 683.263C1978 679.41 1947.75 682.03 1924.94 689.12C1902.18 696.209 1864.93 715.217 1842.18 731.348C1819.37 747.478 1782.43 785.236 1759.98 815.238C1737.59 845.239 1705.53 900.104 1688.83 937.091C1672.09 974.079 1641.16 1029.97 1620.05 1061.31C1598.93 1092.59 1568.11 1128.86 1551.52 1141.86C1534.87 1154.86 1508.52 1165.34 1492.85 1165.13C1470.51 1164.87 1462.95 1158.71 1457.56 1136.31C1453.81 1120.69 1458.48 1069.43 1467.94 1022.47C1484.12 941.869 1488.59 933.187 1548.02 867.226C1582.65 828.8 1626.88 772.907 1646.35 743.06C1680.36 690.763 1683.54 688.709 1728.29 688.709C1768 688.709 1774.88 685.626 1774.88 668.006C1774.88 651.926 1768 647.303 1743.85 647.303C1726.75 647.303 1712.82 643.81 1712.93 639.546C1712.98 635.282 1729.11 599.168 1748.73 559.354C1768.36 519.49 1789.26 462.416 1795.17 432.569C1801.39 401.129 1802.21 368.405 1797.18 354.946C1792.35 342.103 1780.69 328.13 1771.28 323.866C1761.88 319.602 1743.7 316.212 1730.91 316.366C1716.83 316.469 1689.04 335.938 1660.73 365.528C1632.58 394.913 1590.25 460.926 1554.65 530.894L1495.42 647.303C1409.22 647.303 1402.28 650.385 1402.28 668.006C1402.28 684.753 1409.22 688.709 1438.5 688.709C1458.43 688.709 1474.77 689.89 1474.82 691.277C1474.82 692.716 1453.35 754.413 1427.05 828.44C1388.11 937.965 1378.24 980.244 1373.88 1056.12C1368.74 1145.15 1369.71 1150.75 1395.76 1182.91C1418.26 1210.7 1430.18 1216.55 1464.39 1216.55C1487.15 1216.55 1522.8 1208.39 1543.61 1198.42C1564.41 1188.45 1595.85 1160.4 1613.47 1136.05C1631.09 1111.7 1647.84 1091.77 1650.66 1091.82C1653.54 1091.82 1659.35 1105.95 1663.61 1123.16C1667.87 1140.37 1686.52 1168.57 1705.02 1185.83C1728.29 1207.56 1753 1219.02 1785.26 1223.08C1817.47 1227.14 1846.13 1223.23 1878.39 1210.34C1903.98 1200.12 1942.61 1175.2 1964.24 1154.96C1994.18 1126.96 2003.43 1122.54 2003.07 1136.31C2002.76 1146.28 2017.71 1169.29 2036.21 1187.43C2068.26 1218.87 2072.53 1220.1 2126.77 1213.42C2161.76 1209.11 2187.7 1210.54 2194.02 1217.12C2200.65 1223.9 2217.6 1224.57 2240.61 1218.92C2271.28 1211.47 2283.2 1198.99 2318.24 1137.85C2340.99 1098.14 2381.37 1033.26 2407.93 993.601C2434.44 953.993 2467.06 912.176 2480.36 900.72C2493.67 889.265 2519.66 871.798 2538.16 861.934C2556.65 852.02 2578.79 843.954 2587.32 843.954C2595.85 843.954 2602.83 846.266 2602.83 849.143C2602.83 851.968 2578.38 901.131 2548.53 958.411C2502.09 1047.39 2494.18 1070.81 2494.18 1119.72C2494.18 1168.37 2498.04 1180.03 2520.07 1197.44C2534.3 1208.75 2555.26 1220.51 2566.62 1223.59C2578.02 1226.62 2600.16 1226.31 2615.78 1222.82C2631.45 1219.38 2663.35 1199.09 2686.67 1177.72C2709.99 1156.4 2742.61 1114.48 2759.1 1084.58C2775.65 1054.68 2790.29 1030.28 2791.73 1030.33C2793.16 1030.33 2792.55 1054.78 2790.39 1084.63C2788.18 1114.48 2791.67 1149.41 2798.15 1162.2C2804.57 1174.99 2824.96 1192.97 2843.51 1202.12C2863.03 1211.83 2900.94 1218.4 2934.02 1217.94C2968.08 1217.43 3007.59 1208.9 3032.35 1196.72C3055.16 1185.53 3097.49 1151.67 3126.46 1121.41C3155.43 1091.21 3192.27 1040.86 3208.3 1009.53C3229.15 968.788 3238.81 932.006 3242.41 880.172C3246.31 822.995 3243.28 799.158 3227.87 766.999C3214.05 738.283 3196.12 720.867 3166.89 707.716C3144.13 697.493 3112.69 689.069 3097.02 688.914C3075.4 688.76 3068.56 693.641 3068.56 709.412C3068.56 725.08 3075.45 730.063 3097.02 730.012C3112.69 729.961 3136.68 738.128 3150.3 748.146C3172.39 764.328 3174.65 772.65 3171 824.022C3168.12 864.914 3154.87 905.601 3125.64 963.754C3099.8 1015.18 3061.17 1069.84 3022.13 1110.32C2987.4 1146.33 2950.77 1174.99 2939.21 1175.15C2927.81 1175.35 2909.21 1168.78 2897.81 1160.61C2880.65 1148.23 2877.26 1134.41 2878.03 1080.21C2878.49 1044.2 2887.22 989.08 2897.4 957.794C2907.57 926.509 2935.98 858.955 2960.58 807.738C2985.14 756.468 3045.5 651.721 3094.66 574.869C3143.82 498.016 3202.18 411.866 3224.37 383.406C3246.52 354.946 3264.8 323.506 3264.96 313.54C3265.16 298.95 3256.28 295.406 3219.49 295.406C3178.5 295.406 3169.61 300.081 3134.11 340.305ZM1714.37 417.003C1725.56 401.386 1739.07 388.543 1744.47 388.543C1749.81 388.543 1754.13 399.023 1754.02 411.866C1753.97 424.657 1746.99 454.916 1738.51 479.112C1730.03 503.308 1709.18 551.032 1692.07 585.194C1666.54 636.258 1656.42 647.303 1635.15 647.303C1620.92 647.303 1609.26 641.498 1609.16 634.357C1609.11 627.268 1628.16 581.855 1651.59 533.463C1674.96 485.071 1703.22 432.671 1714.37 417.003ZM1568.73 711.98C1574.79 696.432 1586.52 688.675 1603.92 688.709C1618.25 688.709 1629.81 692.202 1629.6 696.466C1629.4 700.73 1608.44 733.351 1583.06 768.9C1557.63 804.501 1532.2 835.94 1526.5 838.766C1520.8 841.643 1525.94 819.502 1537.9 789.603C1549.87 759.705 1563.74 724.823 1568.73 711.98ZM1910.14 779.277C1938.19 750.098 1966.6 730.114 1980.01 730.114C1998.5 730.114 2002.61 736.176 2002.87 763.763C2003.07 784.98 1991.62 813.594 1971.84 841.386C1954.58 865.531 1927.66 893.014 1911.99 902.364C1896.37 911.714 1870.74 927.999 1855.07 938.581C1839.45 949.164 1817.31 957.794 1805.91 957.794C1794.56 957.794 1785.26 955.483 1785.26 952.606C1785.26 949.78 1802.67 920.653 1824.04 887.929C1845.41 855.205 1884.15 806.299 1910.14 779.277ZM2212.15 536.34C2199.31 543.48 2180.71 561.461 2170.75 576.359C2153.49 602.147 2153.49 604.767 2170.75 630.556C2183.59 649.717 2197.92 657.629 2219.91 657.629C2237.17 657.629 2260.19 648.433 2271.64 636.977C2283.15 625.47 2292.34 602.455 2292.34 585.194C2292.34 564.509 2284.59 548.96 2269.07 538.549C2256.28 529.97 2243.44 523.034 2240.61 523.189C2237.79 523.291 2224.95 529.25 2212.15 536.34ZM3795.57 556.734C3789.97 563.875 3777.23 606.925 3767.32 652.491C3757.4 698.007 3739.83 760.886 3728.38 792.223C3716.87 823.509 3688.82 893.374 3666.01 947.469C3643.21 1001.51 3612.9 1062.08 3598.67 1082.01C3584.49 1101.89 3553.66 1130.92 3530.29 1146.43C3506.87 1162 3471.47 1177.77 3451.54 1181.57C3422.62 1187.07 3410.6 1183.98 3392 1166.26C3373.92 1149.05 3368.73 1132.51 3368.73 1092.34C3368.73 1063.88 3373.4 1028.94 3379.05 1014.71C3384.76 1000.48 3399.91 985.946 3412.7 982.402C3425.54 978.806 3447.63 974.696 3461.86 973.206C3476.09 971.716 3501.73 963.548 3518.78 955.072C3535.89 946.544 3565.74 926.252 3585.16 909.916C3604.57 893.528 3631.34 862.705 3644.69 841.386C3658.51 819.142 3668.99 785.956 3669.2 763.763C3669.4 739.67 3662.52 718.196 3651.06 707.254C3640.94 697.545 3618.65 686.346 3601.59 682.39C3578.89 677.15 3555.26 682.339 3513.59 701.757C3477.38 718.607 3436.54 750.201 3401.3 788.678C3370.83 821.916 3332.51 877.089 3316.18 911.2C3298.09 948.958 3283.71 999.714 3279.6 1040.61C3274.41 1091.46 3276.67 1115.45 3288.69 1138.93C3297.48 1155.99 3317.2 1181.62 3332.51 1195.85C3353.16 1215.06 3374.02 1222.57 3413.68 1224.98C3453.8 1227.45 3478.61 1222.31 3513.59 1204.28C3547.81 1186.71 3571.8 1162.41 3603.8 1113.04C3627.79 1076.05 3658.05 1031.2 3671.1 1013.38C3684.1 995.553 3711.02 938.582 3730.95 886.747C3766.29 794.843 3768.04 792.532 3800.81 792.377C3819.31 792.275 3843.76 796.847 3855.16 802.549C3866.57 808.251 3875.87 822.224 3875.87 833.577C3875.87 844.982 3855.42 890.394 3830.45 934.523C3805.49 978.6 3779.29 1033.36 3772.25 1056.12C3765.21 1078.88 3762.39 1113.81 3765.98 1133.74C3769.58 1153.68 3782.94 1180.54 3795.73 1193.54C3810.57 1208.59 3831.02 1216.97 3852.59 1216.81C3879.1 1216.61 3895.49 1206.49 3930.22 1168.83C3954.36 1142.58 3982.31 1116.94 3992.27 1111.91C4007.12 1104.36 4013.23 1109.75 4025.87 1141.5C4034.55 1163.38 4054.89 1188.2 4072.41 1198.42C4089.57 1208.39 4115.2 1216.55 4129.43 1216.55C4143.66 1216.55 4168.12 1210.08 4183.73 1202.22C4199.4 1194.31 4230.84 1166.93 4253.6 1141.35C4276.41 1115.71 4305.69 1079.08 4318.79 1059.92C4331.84 1040.76 4349.61 1015.74 4358.29 1004.39C4372.68 985.432 4373.6 990.21 4369.03 1061.31C4366.31 1104 4357.88 1161.02 4350.23 1188.09L4336.41 1237.21C4167.96 1294.23 4072.52 1333.22 4015.6 1360.6C3941 1396.51 3900.52 1423.33 3870.68 1456.56C3847.92 1481.94 3826.09 1518.62 3822.13 1538.14C3818.18 1557.66 3819.46 1589.93 3824.91 1609.81C3830.35 1629.74 3847.56 1655.37 3863.07 1666.78C3885.22 1682.96 3907.15 1687.33 3963.81 1686.91C4016.26 1686.55 4049.14 1680.13 4082.84 1663.85C4108.48 1651.47 4157.38 1618.95 4191.54 1591.62C4225.65 1564.29 4278.26 1509.48 4308.36 1469.82C4338.46 1430.11 4381.57 1359.21 4404.12 1312.26C4426.62 1265.31 4450.92 1226.67 4458.01 1226.47C4465.15 1226.21 4500.08 1195.95 4535.63 1159.17C4578.75 1114.62 4600.32 1098.38 4600.36 1110.47C4600.41 1120.44 4608.83 1142.53 4619.11 1159.63C4629.38 1176.69 4654.96 1198.83 4675.97 1208.8C4696.99 1218.76 4730.48 1226.88 4750.41 1226.88C4770.34 1226.88 4801.78 1220.61 4820.28 1212.96C4838.77 1205.25 4871.34 1179.67 4892.71 1156.04C4914.03 1132.41 4938.48 1099.07 4947.06 1082.01C4955.59 1064.9 4966.07 1051.09 4970.33 1051.29C4974.6 1051.5 4997.46 1008.4 5021.09 955.534C5044.72 902.724 5070.3 844.16 5078.01 825.409C5089.1 798.336 5097.78 791.452 5120.39 791.812C5136.06 792.017 5160.66 798.028 5175.05 805.118C5189.43 812.258 5201.2 822.738 5201.2 828.44C5201.2 834.091 5174.89 889.984 5142.79 952.606C5088.02 1059.41 5084.68 1069.99 5089.51 1123.37C5093.47 1167.55 5100.15 1184.5 5119.16 1198.88C5132.67 1209.05 5158.81 1217.22 5177.31 1216.97C5204.79 1216.61 5222.82 1204.38 5275.63 1150.13C5312.57 1112.22 5354.33 1055.61 5372.93 1018.16C5390.86 982.093 5403.65 946.801 5401.39 939.66C5399.13 932.571 5393.74 928.512 5389.47 930.67C5385.21 932.828 5359.62 972.384 5332.55 1018.62C5305.53 1064.85 5283.54 1106.21 5283.7 1110.47C5283.8 1114.74 5273.32 1128.61 5260.38 1141.29C5247.43 1153.98 5226.37 1164.46 5213.52 1164.57C5200.68 1164.67 5187.22 1156.65 5183.52 1146.69C5179.77 1136.72 5185.12 1102.97 5195.29 1071.63C5205.51 1040.35 5238.9 963.497 5269.57 900.875C5300.19 838.252 5325.15 776.555 5325.05 763.763C5324.79 741.416 5321.1 740.44 5236.85 740.44C5188.46 740.44 5148.95 736.947 5149.05 732.683C5149.21 728.419 5159.69 713.983 5172.38 700.627C5187.53 684.599 5196.78 659.787 5199.35 628.141C5202.17 593.774 5198.47 574.869 5186.4 561.923C5177.15 551.957 5157.94 543.789 5143.71 543.789C5128.3 543.789 5115.3 551.135 5111.6 561.923C5108.16 571.889 5096.35 617.302 5085.25 662.817C5074.21 708.384 5053.5 778.25 5039.22 818.063C5024.99 857.928 4996.94 925.43 4976.96 968.12C4956.98 1010.86 4935.09 1055.76 4928.31 1067.94C4921.53 1080.16 4895.02 1107.24 4869.44 1128.2C4843.8 1149.15 4806.56 1171.4 4786.63 1177.61C4757.65 1186.71 4745.22 1185.83 4724.52 1173.4C4710.29 1164.87 4695.55 1144.27 4691.75 1127.68C4687.94 1111.09 4688.92 1076.57 4693.85 1050.93C4698.83 1025.35 4703.15 1000.9 4703.35 996.631C4703.61 992.316 4721.28 986.203 4742.65 983.018C4763.97 979.782 4802.4 969.507 4828.03 960.106C4857.62 949.267 4894.51 922.142 4929.24 885.72C4973.83 838.971 4985.02 819.81 4990.06 781.846C4993.45 756.211 4991.7 728.265 4986.21 719.738C4980.66 711.21 4962.63 697.853 4946.08 690.096C4928.88 682.031 4902.73 678.64 4884.95 682.236C4867.85 685.626 4828.44 703.658 4797.31 722.203C4766.23 740.8 4724.31 777.839 4704.18 804.553C4684.09 831.266 4659.79 868.562 4650.29 887.364C4640.73 906.166 4619.06 951.836 4602.1 988.823C4585.15 1025.86 4550.32 1079.39 4524.74 1107.85C4499.1 1136.31 4474.24 1155.94 4469.41 1151.47C4464.58 1147 4466.48 1116.74 4473.62 1084.17C4480.81 1051.65 4486.36 999.457 4485.95 968.12C4485.59 936.835 4482 892.604 4477.99 869.846C4472.65 839.639 4465.15 827.567 4450.15 825.255C4438.79 823.508 4417.94 830.906 4403.71 841.694C4389.48 852.482 4373.91 874.829 4369.13 891.422C4364.3 908.015 4342.83 951.836 4321.31 988.823C4299.78 1025.86 4260.64 1078.26 4234.28 1105.28C4207.93 1132.3 4173.56 1157.17 4157.89 1160.46C4138.12 1164.67 4123.58 1160.71 4110.27 1147.51C4096.51 1133.9 4092.45 1118.38 4095.79 1092.34C4098.41 1072.4 4114.9 1025.86 4132.47 988.823C4150.09 951.836 4187.02 893.631 4214.51 859.469C4242.04 825.306 4287.71 782.052 4316.02 763.352C4348.43 741.93 4379.92 729.447 4401.09 729.703C4427.34 730.012 4438.74 736.947 4452.87 761.092C4462.83 778.147 4479.12 792.12 4489.09 792.12C4499.05 792.172 4509.53 785.236 4512.36 776.657C4515.18 768.13 4504.7 748.197 4489.09 732.375C4473.01 716.141 4438.13 697.75 4408.84 690.044C4363.79 678.229 4349.1 678.742 4295 694.205C4244.35 708.641 4220.88 723.59 4167.55 775.322C4118.8 822.635 4089.47 863.784 4052.17 937.091C4024.69 991.186 3988.37 1061.05 3971.47 1092.34C3954.57 1123.67 3928.62 1156.24 3913.78 1164.77C3889.79 1178.59 3884.91 1178.59 3870.11 1164.77C3854.86 1150.54 3854.91 1144.22 3870.88 1087.15C3880.44 1053.04 3913.37 973.822 3943.98 911.2C3974.65 848.629 3999.82 784.569 3999.88 768.9L4000.03 740.44H3824.08C3871.4 668.673 3881.05 640.265 3881.05 613.603C3881.05 585.04 3874.94 568.807 3860.35 558.327C3848.95 550.159 3831.99 543.532 3822.7 543.635C3813.35 543.737 3801.17 549.645 3795.57 556.734ZM3544.67 759.191C3564.61 742.855 3590.19 730.782 3601.59 732.375C3618.55 734.789 3621.68 741.827 3619.01 771.52C3617.21 791.452 3605.65 821.71 3593.37 838.766C3581.05 855.873 3561.58 877.757 3550.07 887.466C3538.56 897.175 3505.84 917.108 3477.38 931.749C3442.39 949.831 3422.31 955.02 3415.32 947.879C3408.34 940.79 3422 912.895 3456.68 863.116C3485.14 822.275 3524.74 775.527 3544.67 759.191ZM4865.02 763.66C4887.37 745.115 4913.26 730.012 4922.61 730.012C4936.22 730.063 4938.84 738.745 4935.81 774.089C4933.34 803.473 4922.15 830.084 4902.16 854.28C4885.72 874.212 4844.73 904.47 4811.13 921.577C4777.48 938.633 4744.25 953.787 4737.26 955.226C4730.27 956.613 4724.42 954.301 4724.26 950.037C4724.11 945.773 4746.56 909.659 4774.2 869.846C4801.83 829.981 4842.67 782.205 4865.02 763.66ZM4196.68 1333.89C4245.07 1315.39 4290.48 1300.08 4297.62 1299.83C4304.71 1299.57 4310.42 1302.81 4310.31 1307.12C4310.21 1311.39 4297.88 1335.84 4282.93 1361.42C4267.98 1387.06 4231.41 1438.28 4201.66 1475.26C4171.87 1512.3 4122.5 1560.08 4091.88 1581.5C4061.32 1602.87 4012.98 1627.48 3984.52 1636.06C3956.06 1644.69 3919.99 1649.31 3904.33 1646.33C3888.66 1643.35 3871.45 1632.72 3866.05 1622.75C3859.84 1611.35 3859.84 1590.34 3866.05 1565.83C3871.45 1544.51 3891.48 1509.58 3910.54 1488.21C3930.01 1466.43 3981.07 1431.44 4026.95 1408.48C4071.95 1385.93 4148.29 1352.38 4196.68 1333.89Z" fill="#F8FAFC"/>
</svg>
